G75*
G70*
%OFA0B0*%
%FSLAX24Y24*%
%IPPOS*%
%LPD*%
%AMOC8*
5,1,8,0,0,1.08239X$1,22.5*
%
%ADD10R,0.0530X0.0530*%
%ADD11C,0.0530*%
%ADD12OC8,0.0530*%
%ADD13R,0.0590X0.0590*%
%ADD14OC8,0.0590*%
%ADD15C,0.0650*%
%ADD16R,0.0650X0.0650*%
%ADD17OC8,0.0650*%
D10*
X004202Y004518D03*
X006202Y006018D03*
X012202Y013518D03*
X016202Y013518D03*
X023202Y011518D03*
X029202Y010518D03*
X023202Y003518D03*
X025202Y017518D03*
X040202Y020518D03*
X042202Y021518D03*
X042202Y022518D03*
X005202Y020518D03*
D11*
X004202Y021018D03*
X003202Y021018D03*
X003202Y022018D03*
X004202Y022018D03*
X006202Y022018D03*
X007202Y021643D03*
X008202Y020518D03*
X009202Y020518D03*
X009202Y019518D03*
X008202Y019518D03*
X008202Y018518D03*
X009202Y018518D03*
X009202Y017518D03*
X008202Y017518D03*
X008202Y016518D03*
X009202Y016518D03*
X009202Y015518D03*
X008202Y015518D03*
X008202Y014518D03*
X009202Y014518D03*
X009202Y013518D03*
X008202Y013518D03*
X007202Y012518D03*
X006202Y012518D03*
X005202Y013518D03*
X005202Y014518D03*
X004202Y014518D03*
X003202Y014518D03*
X003202Y015518D03*
X004202Y015518D03*
X005202Y015518D03*
X005202Y016518D03*
X005202Y017518D03*
X005202Y018518D03*
X005202Y019518D03*
X010202Y021643D03*
X012202Y020518D03*
X012202Y019518D03*
X013202Y019518D03*
X013202Y018518D03*
X012202Y018518D03*
X012202Y017518D03*
X013202Y017518D03*
X013202Y016518D03*
X012202Y016518D03*
X012202Y015518D03*
X013202Y015518D03*
X013202Y014518D03*
X012202Y014518D03*
X013202Y013518D03*
X014202Y012518D03*
X015202Y012518D03*
X016202Y014518D03*
X016202Y015518D03*
X017202Y015518D03*
X018702Y015518D03*
X016202Y016518D03*
X016202Y017518D03*
X016202Y018518D03*
X017202Y018518D03*
X016202Y019518D03*
X022202Y020518D03*
X022202Y021518D03*
X023202Y021518D03*
X024202Y021518D03*
X025202Y021518D03*
X026202Y021518D03*
X027202Y021518D03*
X028202Y021518D03*
X029202Y021518D03*
X030202Y021518D03*
X031202Y021518D03*
X032202Y021518D03*
X033202Y021518D03*
X034202Y021518D03*
X035202Y021518D03*
X036202Y021518D03*
X037202Y021518D03*
X038202Y021518D03*
X039202Y021518D03*
X040202Y021518D03*
X041202Y021518D03*
X041202Y022518D03*
X040202Y022518D03*
X039202Y022518D03*
X038202Y022518D03*
X037202Y022518D03*
X036202Y022518D03*
X035202Y022518D03*
X034202Y022518D03*
X033202Y022518D03*
X032202Y022518D03*
X031202Y022518D03*
X030202Y022518D03*
X029202Y022518D03*
X028202Y022518D03*
X027202Y022518D03*
X026202Y022518D03*
X025202Y022518D03*
X024202Y022518D03*
X023202Y022518D03*
X025202Y020518D03*
X026202Y020518D03*
X027202Y020518D03*
X028202Y020518D03*
X029202Y020518D03*
X030202Y020518D03*
X031202Y020518D03*
X033202Y020518D03*
X034202Y020518D03*
X035202Y020518D03*
X036202Y020518D03*
X037202Y020518D03*
X038202Y020518D03*
X039202Y020518D03*
X039202Y017518D03*
X038202Y017518D03*
X037202Y017518D03*
X036202Y017518D03*
X035202Y017518D03*
X034202Y017518D03*
X033202Y017518D03*
X033202Y016518D03*
X034202Y016518D03*
X035202Y016518D03*
X036202Y016518D03*
X037202Y016518D03*
X038202Y016518D03*
X039202Y016518D03*
X040202Y016518D03*
X041202Y016518D03*
X042202Y016518D03*
X042202Y015518D03*
X041202Y015518D03*
X040202Y015518D03*
X039202Y015518D03*
X038202Y015518D03*
X037202Y015518D03*
X036202Y015518D03*
X035202Y015518D03*
X034202Y015518D03*
X033202Y015518D03*
X032202Y015518D03*
X031202Y015518D03*
X030202Y015518D03*
X029202Y015518D03*
X028202Y015518D03*
X027202Y015518D03*
X026202Y015518D03*
X025202Y015518D03*
X024202Y015518D03*
X023202Y015518D03*
X022202Y015518D03*
X022202Y016518D03*
X023202Y016518D03*
X024202Y016518D03*
X025202Y016518D03*
X026202Y016518D03*
X027202Y016518D03*
X028202Y016518D03*
X029202Y016518D03*
X030202Y016518D03*
X031202Y016518D03*
X032202Y016518D03*
X031202Y017518D03*
X030202Y017518D03*
X029202Y017518D03*
X028202Y017518D03*
X027202Y017518D03*
X026202Y017518D03*
X026202Y014518D03*
X025202Y014518D03*
X024202Y014518D03*
X023202Y014518D03*
X027202Y014518D03*
X028202Y014518D03*
X029202Y014518D03*
X030202Y014518D03*
X031202Y014518D03*
X032202Y014518D03*
X033202Y014518D03*
X034202Y014518D03*
X037702Y014518D03*
X038702Y014518D03*
X038702Y013518D03*
X037702Y013518D03*
X034202Y011518D03*
X033202Y011518D03*
X032202Y011518D03*
X031202Y011518D03*
X030202Y011518D03*
X029202Y011518D03*
X028202Y011518D03*
X027202Y011518D03*
X026202Y011518D03*
X025202Y011518D03*
X024202Y011518D03*
X024202Y010518D03*
X023202Y010518D03*
X023202Y009518D03*
X024202Y009518D03*
X025202Y009518D03*
X026202Y009518D03*
X027202Y009518D03*
X028202Y009518D03*
X029202Y009518D03*
X030202Y009518D03*
X031202Y009518D03*
X032202Y009518D03*
X033202Y009518D03*
X034202Y009518D03*
X035202Y009518D03*
X036202Y009518D03*
X034202Y010518D03*
X033202Y010518D03*
X032202Y010518D03*
X031202Y010518D03*
X030202Y010518D03*
X018702Y012518D03*
X017202Y010518D03*
X016202Y010518D03*
X015202Y010518D03*
X014202Y010518D03*
X013202Y010518D03*
X012202Y010518D03*
X011202Y010518D03*
X010202Y010518D03*
X009202Y010518D03*
X008202Y010518D03*
X007202Y010518D03*
X006202Y010518D03*
X005202Y010518D03*
X004202Y010518D03*
X003202Y009518D03*
X003202Y008518D03*
X006202Y009018D03*
X007202Y009018D03*
X008202Y009018D03*
X009202Y009018D03*
X010202Y009018D03*
X011202Y009018D03*
X012202Y009018D03*
X013202Y009018D03*
X013202Y006018D03*
X012202Y006018D03*
X011202Y006018D03*
X010202Y006018D03*
X009202Y006018D03*
X008202Y006018D03*
X007202Y006018D03*
X007202Y004518D03*
X006202Y004518D03*
X005202Y004518D03*
X008202Y004518D03*
X009202Y004518D03*
X010202Y004518D03*
X011202Y004518D03*
X012202Y004518D03*
X013202Y004518D03*
X014202Y004518D03*
X015202Y004518D03*
X016202Y004518D03*
X017202Y004518D03*
X024202Y003518D03*
X025202Y003518D03*
X026202Y003518D03*
X027202Y003518D03*
X028202Y003518D03*
X029202Y003518D03*
X030202Y003518D03*
X031202Y003518D03*
X032202Y003518D03*
X033202Y003518D03*
X034202Y003518D03*
X035202Y003518D03*
X036202Y003518D03*
X041702Y014518D03*
X042702Y014518D03*
X040202Y017518D03*
X040202Y023518D03*
X039202Y023518D03*
X038202Y023518D03*
X037202Y023518D03*
X036202Y023518D03*
X035202Y023518D03*
X034202Y023518D03*
X033202Y023518D03*
X032202Y023518D03*
X031202Y023518D03*
X041202Y023518D03*
X042202Y023518D03*
X011202Y012518D03*
X010202Y012518D03*
D12*
X003702Y016768D03*
X003202Y017518D03*
X004202Y017518D03*
X004202Y019518D03*
X003202Y019518D03*
X003702Y020268D03*
X005202Y022018D03*
D13*
X003202Y006518D03*
D14*
X003202Y005518D03*
D15*
X004202Y011518D03*
X004202Y013518D03*
D16*
X004202Y012518D03*
D17*
X019702Y012518D03*
X020702Y012518D03*
X020702Y011518D03*
X019702Y011518D03*
X019702Y013518D03*
X020702Y013518D03*
X020702Y014518D03*
X019702Y014518D03*
X019702Y015518D03*
X020702Y015518D03*
X020702Y016518D03*
X019702Y016518D03*
X019702Y017518D03*
X020702Y017518D03*
X035702Y014518D03*
X036702Y014518D03*
X036702Y013518D03*
X035702Y013518D03*
X035702Y012518D03*
X036702Y012518D03*
X036702Y011518D03*
X035702Y011518D03*
X035702Y010518D03*
X036702Y010518D03*
X039702Y013518D03*
X040702Y013518D03*
X040702Y014518D03*
X039702Y014518D03*
M02*
