%
M48
M72
T01C0.0236
T02C0.0320
T03C0.0360
T04C0.0400
%
T01
X3702Y3893
X5702Y3893
X7702Y3893
X9702Y3893
X11702Y3893
X13702Y3893
X15702Y3893
X18202Y4518
X20327Y5768
X20702Y6018
X21077Y6268
X22202Y6518
X22577Y6768
X24577Y6768
X25202Y6518
X26202Y6268
X27202Y6018
X28202Y5768
X29202Y5518
X30202Y5268
X31202Y5268
X32202Y5268
X33202Y5268
X34202Y5268
X34827Y5643
X33702Y6518
X32702Y7143
X32327Y7643
X31952Y8143
X30702Y8018
X29702Y8268
X27202Y8768
X26202Y8518
X24702Y10018
X25827Y10643
X26452Y10768
X27702Y10768
X27702Y12268
X26452Y13018
X25202Y13768
X21452Y13893
X21327Y13018
X17952Y13268
X17077Y13268
X17077Y12518
X17827Y12018
X17952Y10518
X19577Y9393
X22452Y9768
X24702Y11018
X29202Y13268
X30702Y12643
X32202Y12893
X33202Y13018
X34202Y13518
X35202Y14018
X32202Y17518
X32452Y18268
X33452Y18768
X34077Y18393
X34577Y19768
X35452Y19768
X36452Y19768
X38202Y19643
X39452Y19518
X40702Y19018
X41202Y19393
X41702Y19893
X42327Y20268
X41202Y20518
X38452Y18518
X39702Y18143
X41202Y18143
X41702Y17518
X42327Y17643
X43077Y16018
X32202Y19768
X31577Y19768
X30827Y19268
X30202Y19268
X29702Y18268
X25952Y19518
X24202Y18643
X21452Y18143
X19202Y18893
X19952Y19393
X19327Y19768
X18827Y19893
X18327Y20018
X17827Y19893
X17202Y19518
X17702Y19143
X15327Y19518
X14702Y19643
X14077Y19518
X11577Y19893
X11327Y19018
X10577Y18643
X10202Y18268
X9952Y17518
X11077Y17643
X11452Y17018
X9827Y16018
X7702Y16018
X7202Y15518
X7452Y14518
X6702Y14018
X7077Y13393
X9202Y12143
X7327Y11768
X7202Y9768
X5202Y9643
X4327Y8518
X5702Y8143
X7202Y8143
X8202Y8143
X9077Y8143
X10077Y8143
X11077Y8143
X12077Y8143
X12702Y8518
X13077Y8018
X13827Y7893
X14077Y7518
X13827Y7143
X14077Y6768
X13827Y6393
X15702Y8143
X16452Y8018
X17202Y7893
X14702Y8268
X14077Y8518
X13452Y11393
X12577Y11518
X11327Y11768
X13202Y12643
X14202Y13518
X15202Y13518
X17327Y14768
X17827Y15268
X19202Y16018
X18577Y16268
X18077Y16268
X18077Y16768
X16952Y16518
X15327Y17268
X14202Y17268
X14577Y16143
X14077Y15643
X11577Y14143
X10827Y14393
X6202Y16518
X4452Y16393
X5827Y17893
X6202Y18393
X7327Y17768
X6702Y19018
X6077Y19518
X7327Y19518
X6702Y20518
X5952Y20518
X4577Y20143
X2952Y20143
X2952Y18518
X4577Y18143
X9702Y19018
X10952Y20893
X11077Y21518
X11077Y22268
X9702Y22643
X7827Y22643
X8952Y21268
X15077Y21018
X18452Y22018
X18952Y22018
X20077Y21518
X20827Y21518
X20202Y21018
X21577Y23018
X22077Y23393
X20577Y23768
X29702Y23018
X30452Y23268
X32827Y24018
X34702Y24143
X36702Y24143
X38702Y24143
X40577Y24143
X42827Y24143
X21452Y14893
X17952Y14143
X17952Y17643
X17202Y17643
X2952Y12768
X2952Y11143
X5202Y6893
X7202Y6893
X19702Y6643
X20577Y3268
X21952Y3268
X24702Y2893
X26702Y2893
X28702Y2893
X30702Y2893
X32702Y2893
X34702Y2893
X36702Y2893
X36202Y4518
X36202Y6518
X35452Y7643
X34827Y8018
X35702Y8393
X33702Y7643
X33202Y8018
X31202Y6518
T02
X31202Y3518
X30202Y3518
X29202Y3518
X28202Y3518
X27202Y3518
X26202Y3518
X25202Y3518
X24202Y3518
X23202Y3518
X17202Y4518
X16202Y4518
X15202Y4518
X14202Y4518
X13202Y4518
X12202Y4518
X11202Y4518
X10202Y4518
X9202Y4518
X8202Y4518
X7202Y4518
X6202Y4518
X5202Y4518
X4202Y4518
X6202Y6018
X7202Y6018
X8202Y6018
X9202Y6018
X10202Y6018
X11202Y6018
X12202Y6018
X13202Y6018
X13202Y9018
X12202Y9018
X11202Y9018
X10202Y9018
X9202Y9018
X8202Y9018
X7202Y9018
X6202Y9018
X6202Y10518
X5202Y10518
X4202Y10518
X3202Y9518
X3202Y8518
X7202Y10518
X8202Y10518
X9202Y10518
X10202Y10518
X11202Y10518
X12202Y10518
X13202Y10518
X14202Y10518
X15202Y10518
X16202Y10518
X17202Y10518
X18702Y12518
X16202Y13518
X16202Y14518
X16202Y15518
X17202Y15518
X18702Y15518
X16202Y16518
X16202Y17518
X16202Y18518
X17202Y18518
X16202Y19518
X13202Y19518
X12202Y19518
X12202Y18518
X13202Y18518
X13202Y17518
X12202Y17518
X12202Y16518
X13202Y16518
X13202Y15518
X12202Y15518
X12202Y14518
X13202Y14518
X13202Y13518
X12202Y13518
X11202Y12518
X10202Y12518
X9202Y13518
X8202Y13518
X8202Y14518
X9202Y14518
X9202Y15518
X8202Y15518
X8202Y16518
X9202Y16518
X9202Y17518
X8202Y17518
X8202Y18518
X9202Y18518
X9202Y19518
X8202Y19518
X8202Y20518
X9202Y20518
X10202Y21643
X12202Y20518
X7202Y21643
X6202Y22018
X5202Y22018
X4202Y22018
X3202Y22018
X3202Y21018
X4202Y21018
X5202Y20518
X3702Y20268
X3202Y19518
X4202Y19518
X5202Y19518
X5202Y18518
X5202Y17518
X4202Y17518
X3202Y17518
X3702Y16768
X5202Y16518
X5202Y15518
X4202Y15518
X3202Y15518
X3202Y14518
X4202Y14518
X5202Y14518
X5202Y13518
X6202Y12518
X7202Y12518
X14202Y12518
X15202Y12518
X22202Y15518
X23202Y15518
X24202Y15518
X25202Y15518
X26202Y15518
X27202Y15518
X28202Y15518
X29202Y15518
X30202Y15518
X31202Y15518
X32202Y15518
X33202Y15518
X34202Y15518
X35202Y15518
X36202Y15518
X37202Y15518
X38202Y15518
X39202Y15518
X40202Y15518
X41202Y15518
X42202Y15518
X42202Y16518
X41202Y16518
X40202Y16518
X39202Y16518
X38202Y16518
X37202Y16518
X36202Y16518
X35202Y16518
X34202Y16518
X33202Y16518
X32202Y16518
X31202Y16518
X30202Y16518
X29202Y16518
X28202Y16518
X27202Y16518
X26202Y16518
X25202Y16518
X24202Y16518
X23202Y16518
X22202Y16518
X25202Y17518
X26202Y17518
X27202Y17518
X28202Y17518
X29202Y17518
X30202Y17518
X31202Y17518
X33202Y17518
X34202Y17518
X35202Y17518
X36202Y17518
X37202Y17518
X38202Y17518
X39202Y17518
X40202Y17518
X40202Y20518
X39202Y20518
X38202Y20518
X37202Y20518
X36202Y20518
X35202Y20518
X34202Y20518
X33202Y20518
X33202Y21518
X34202Y21518
X35202Y21518
X36202Y21518
X37202Y21518
X38202Y21518
X39202Y21518
X40202Y21518
X41202Y21518
X42202Y21518
X42202Y22518
X41202Y22518
X40202Y22518
X39202Y22518
X38202Y22518
X37202Y22518
X36202Y22518
X35202Y22518
X34202Y22518
X33202Y22518
X32202Y22518
X31202Y22518
X30202Y22518
X29202Y22518
X28202Y22518
X27202Y22518
X26202Y22518
X25202Y22518
X24202Y22518
X23202Y22518
X23202Y21518
X24202Y21518
X25202Y21518
X26202Y21518
X27202Y21518
X28202Y21518
X29202Y21518
X30202Y21518
X31202Y21518
X32202Y21518
X31202Y20518
X30202Y20518
X29202Y20518
X28202Y20518
X27202Y20518
X26202Y20518
X25202Y20518
X22202Y20518
X22202Y21518
X31202Y23518
X32202Y23518
X33202Y23518
X34202Y23518
X35202Y23518
X36202Y23518
X37202Y23518
X38202Y23518
X39202Y23518
X40202Y23518
X41202Y23518
X42202Y23518
X41702Y14518
X42702Y14518
X38702Y14518
X37702Y14518
X37702Y13518
X38702Y13518
X34202Y14518
X33202Y14518
X32202Y14518
X31202Y14518
X30202Y14518
X29202Y14518
X28202Y14518
X27202Y14518
X26202Y14518
X25202Y14518
X24202Y14518
X23202Y14518
X23202Y11518
X24202Y11518
X25202Y11518
X26202Y11518
X27202Y11518
X28202Y11518
X29202Y11518
X30202Y11518
X31202Y11518
X32202Y11518
X33202Y11518
X34202Y11518
X34202Y10518
X33202Y10518
X32202Y10518
X31202Y10518
X30202Y10518
X29202Y10518
X29202Y9518
X28202Y9518
X27202Y9518
X26202Y9518
X25202Y9518
X24202Y9518
X23202Y9518
X23202Y10518
X24202Y10518
X30202Y9518
X31202Y9518
X32202Y9518
X33202Y9518
X34202Y9518
X35202Y9518
X36202Y9518
X36202Y3518
X35202Y3518
X34202Y3518
X33202Y3518
X32202Y3518
T03
X3202Y5518
X3202Y6518
T04
X4202Y11518
X4202Y12518
X4202Y13518
X19702Y13518
X20702Y13518
X20702Y14518
X19702Y14518
X19702Y15518
X20702Y15518
X20702Y16518
X19702Y16518
X19702Y17518
X20702Y17518
X20702Y12518
X19702Y12518
X19702Y11518
X20702Y11518
X35702Y11518
X36702Y11518
X36702Y10518
X35702Y10518
X35702Y12518
X36702Y12518
X36702Y13518
X35702Y13518
X35702Y14518
X36702Y14518
X39702Y14518
X40702Y14518
X40702Y13518
X39702Y13518
M30
