G75*
G70*
%OFA0B0*%
%FSLAX24Y24*%
%IPPOS*%
%LPD*%
%AMOC8*
5,1,8,0,0,1.08239X$1,22.5*
%
%ADD10C,0.0000*%
%ADD11C,0.0040*%
%ADD12C,0.0050*%
%ADD13C,0.0030*%
%ADD14C,0.0060*%
D10*
X002202Y003393D02*
X002202Y023518D01*
X019202Y023518D01*
X020452Y024768D01*
X043577Y024768D01*
X043577Y012768D01*
X043577Y013643D01*
X043577Y012768D01*
X037702Y012768D01*
X037702Y002393D01*
X020202Y002393D01*
X019202Y003393D01*
X002202Y003393D01*
D11*
X013817Y015038D02*
X014057Y015038D01*
X013817Y015279D01*
X013817Y015339D01*
X013877Y015399D01*
X013997Y015399D01*
X014057Y015339D01*
X014426Y015399D02*
X014426Y015038D01*
X014186Y015038D01*
X014942Y015038D02*
X015182Y015038D01*
X015062Y015038D02*
X015062Y015399D01*
X015182Y015279D01*
X015311Y015038D02*
X015551Y015038D01*
X015551Y015399D01*
D12*
X015702Y014893D02*
X015702Y014518D01*
X015327Y014143D01*
X015702Y013768D01*
X015702Y014143D01*
X015327Y013768D01*
X015702Y013768D01*
X015327Y013768D02*
X015327Y014143D01*
X015702Y014143D01*
X015327Y014518D01*
X015327Y014143D01*
X015202Y014143D02*
X014827Y013768D01*
X014827Y014143D01*
X015202Y013768D01*
X014827Y013768D01*
X014577Y013768D02*
X014577Y014143D01*
X014202Y014518D01*
X014577Y014893D01*
X014577Y014518D01*
X014202Y014893D01*
X014577Y014893D01*
X014827Y014893D02*
X014827Y014518D01*
X015202Y014143D01*
X015202Y013768D01*
X015202Y014143D02*
X015202Y014518D01*
X014827Y014143D01*
X015202Y014143D01*
X014827Y014143D02*
X014827Y014518D01*
X015202Y014518D01*
X015202Y014893D01*
X014827Y014893D01*
X015327Y014893D02*
X015327Y014518D01*
X015702Y014518D01*
X015702Y014143D01*
X014577Y014143D02*
X014577Y014518D01*
X014202Y014143D01*
X014202Y014518D01*
X014202Y014893D01*
X014077Y014893D02*
X013702Y014518D01*
X014077Y014143D01*
X014077Y014518D01*
X013702Y014893D01*
X013702Y014518D01*
X013702Y014143D01*
X014077Y014518D01*
X014077Y014893D01*
X013702Y014893D01*
X013702Y014518D02*
X014077Y014518D01*
X014202Y014518D02*
X014577Y014518D01*
X014577Y014143D02*
X014202Y014143D01*
X014202Y013768D01*
X014577Y013768D01*
X014077Y013768D02*
X014077Y014143D01*
X013702Y014143D01*
X013702Y013768D01*
X014077Y013768D01*
X015327Y014893D02*
X015702Y014893D01*
X015688Y016418D02*
X015613Y016418D01*
X015538Y016493D01*
X015538Y016869D01*
X015613Y016869D02*
X015463Y016869D01*
X015302Y016794D02*
X015227Y016869D01*
X015077Y016869D01*
X015002Y016794D01*
X015002Y016719D01*
X015302Y016418D01*
X015002Y016418D01*
X014513Y016493D02*
X014438Y016418D01*
X014363Y016418D01*
X014288Y016493D01*
X014288Y016869D01*
X014363Y016869D02*
X014213Y016869D01*
X014052Y016794D02*
X013977Y016869D01*
X013827Y016869D01*
X013752Y016794D01*
X013752Y016719D01*
X013827Y016643D01*
X013752Y016568D01*
X013752Y016493D01*
X013827Y016418D01*
X013977Y016418D01*
X014052Y016493D01*
X013902Y016643D02*
X013827Y016643D01*
X015688Y016418D02*
X015763Y016493D01*
X022702Y017018D02*
X042702Y017018D01*
X042702Y018768D01*
X042648Y018770D01*
X042595Y018776D01*
X042543Y018785D01*
X042491Y018798D01*
X042440Y018815D01*
X042390Y018836D01*
X042343Y018860D01*
X042297Y018887D01*
X042253Y018918D01*
X042211Y018951D01*
X042172Y018988D01*
X042135Y019027D01*
X042102Y019069D01*
X042071Y019113D01*
X042044Y019159D01*
X042020Y019206D01*
X041999Y019256D01*
X041982Y019307D01*
X041969Y019359D01*
X041960Y019411D01*
X041954Y019464D01*
X041952Y019518D01*
X041954Y019572D01*
X041960Y019625D01*
X041969Y019677D01*
X041982Y019729D01*
X041999Y019780D01*
X042020Y019830D01*
X042044Y019877D01*
X042071Y019923D01*
X042102Y019967D01*
X042135Y020009D01*
X042172Y020048D01*
X042211Y020085D01*
X042253Y020118D01*
X042297Y020149D01*
X042343Y020176D01*
X042390Y020200D01*
X042440Y020221D01*
X042491Y020238D01*
X042543Y020251D01*
X042595Y020260D01*
X042648Y020266D01*
X042702Y020268D01*
X042702Y022018D01*
X022702Y022018D01*
X022702Y017018D01*
X037338Y018793D02*
X037638Y018793D01*
X037488Y018793D02*
X037488Y019244D01*
X037638Y019094D01*
X037798Y019244D02*
X037948Y019244D01*
X037873Y019244D02*
X037873Y018868D01*
X037948Y018793D01*
X038023Y018793D01*
X038098Y018868D01*
X042727Y022168D02*
X043178Y022469D01*
X043028Y022629D02*
X043178Y022779D01*
X042727Y022779D01*
X042727Y022629D02*
X042727Y022929D01*
X042727Y022469D02*
X043178Y022168D01*
D13*
X035464Y019332D02*
X035464Y019138D01*
X035464Y019283D02*
X035271Y019283D01*
X035271Y019332D02*
X035271Y019138D01*
X035170Y019187D02*
X035170Y019283D01*
X035121Y019332D01*
X034976Y019332D01*
X034976Y019429D02*
X034976Y019138D01*
X035121Y019138D01*
X035170Y019187D01*
X035271Y019332D02*
X035368Y019429D01*
X035464Y019332D01*
X034875Y019283D02*
X034875Y019187D01*
X034827Y019138D01*
X034681Y019138D01*
X034681Y019429D01*
X034681Y019332D02*
X034827Y019332D01*
X034875Y019283D01*
X034580Y019332D02*
X034532Y019332D01*
X034532Y019138D01*
X034580Y019138D02*
X034484Y019138D01*
X034336Y019187D02*
X034287Y019138D01*
X034336Y019187D02*
X034336Y019380D01*
X034384Y019332D02*
X034287Y019332D01*
X034187Y019332D02*
X034139Y019332D01*
X034139Y019138D01*
X034187Y019138D02*
X034091Y019138D01*
X033991Y019187D02*
X033943Y019138D01*
X033846Y019138D01*
X033798Y019187D01*
X033798Y019283D01*
X033846Y019332D01*
X033943Y019332D01*
X033991Y019283D01*
X033991Y019187D01*
X034040Y018949D02*
X033895Y018949D01*
X033847Y018900D01*
X033847Y018707D01*
X033895Y018658D01*
X034040Y018658D01*
X034040Y018949D01*
X034141Y018949D02*
X034141Y018658D01*
X034335Y018949D01*
X034335Y018658D01*
X034436Y018707D02*
X034436Y018803D01*
X034533Y018803D01*
X034629Y018707D02*
X034629Y018900D01*
X034581Y018949D01*
X034484Y018949D01*
X034436Y018900D01*
X034436Y018707D02*
X034484Y018658D01*
X034581Y018658D01*
X034629Y018707D01*
X033696Y019138D02*
X033696Y019332D01*
X033551Y019332D01*
X033503Y019283D01*
X033503Y019138D01*
X033402Y019187D02*
X033353Y019235D01*
X033208Y019235D01*
X033208Y019283D02*
X033208Y019138D01*
X033353Y019138D01*
X033402Y019187D01*
X033353Y019332D02*
X033257Y019332D01*
X033208Y019283D01*
X033107Y019138D02*
X033010Y019138D01*
X033059Y019138D02*
X033059Y019429D01*
X033107Y019429D01*
X034139Y019429D02*
X034139Y019477D01*
X034532Y019477D02*
X034532Y019429D01*
X016652Y020227D02*
X016555Y020227D01*
X016603Y020275D02*
X016603Y020082D01*
X016555Y020033D01*
X016455Y020082D02*
X016407Y020033D01*
X016310Y020033D01*
X016262Y020082D01*
X016262Y020178D01*
X016310Y020227D01*
X016407Y020227D01*
X016455Y020178D01*
X016455Y020082D01*
X016432Y020513D02*
X016480Y020562D01*
X016432Y020513D02*
X016335Y020513D01*
X016286Y020562D01*
X016286Y020610D01*
X016335Y020658D01*
X016432Y020658D01*
X016480Y020707D01*
X016480Y020755D01*
X016432Y020804D01*
X016335Y020804D01*
X016286Y020755D01*
X016185Y020658D02*
X016137Y020707D01*
X016040Y020707D01*
X015992Y020658D01*
X015992Y020610D01*
X016185Y020610D01*
X016185Y020562D02*
X016185Y020658D01*
X016185Y020562D02*
X016137Y020513D01*
X016040Y020513D01*
X015842Y020562D02*
X015794Y020513D01*
X015842Y020562D02*
X015842Y020755D01*
X015794Y020707D02*
X015891Y020707D01*
X015400Y020562D02*
X015351Y020610D01*
X015206Y020610D01*
X015206Y020658D02*
X015206Y020513D01*
X015351Y020513D01*
X015400Y020562D01*
X015351Y020707D02*
X015254Y020707D01*
X015206Y020658D01*
X015105Y020658D02*
X015105Y020562D01*
X015057Y020513D01*
X014911Y020513D01*
X014810Y020562D02*
X014762Y020513D01*
X014617Y020513D01*
X014516Y020562D02*
X014467Y020513D01*
X014370Y020513D01*
X014322Y020562D01*
X014322Y020658D01*
X014370Y020707D01*
X014467Y020707D01*
X014516Y020658D01*
X014516Y020562D01*
X014617Y020707D02*
X014762Y020707D01*
X014810Y020658D01*
X014810Y020562D01*
X014911Y020707D02*
X015057Y020707D01*
X015105Y020658D01*
X015083Y020324D02*
X015083Y020033D01*
X014982Y020033D02*
X014837Y020033D01*
X014789Y020082D01*
X014837Y020130D01*
X014934Y020130D01*
X014982Y020178D01*
X014934Y020227D01*
X014789Y020227D01*
X014687Y020178D02*
X014639Y020227D01*
X014542Y020227D01*
X014494Y020178D01*
X014494Y020130D01*
X014687Y020130D01*
X014687Y020082D02*
X014687Y020178D01*
X014687Y020082D02*
X014639Y020033D01*
X014542Y020033D01*
X014344Y020082D02*
X014296Y020033D01*
X014344Y020082D02*
X014344Y020275D01*
X014296Y020227D02*
X014393Y020227D01*
X014221Y020513D02*
X014221Y020707D01*
X014124Y020707D02*
X014076Y020707D01*
X014124Y020707D02*
X014221Y020610D01*
X013975Y020562D02*
X013975Y020658D01*
X013927Y020707D01*
X013782Y020707D01*
X013782Y020804D02*
X013782Y020513D01*
X013927Y020513D01*
X013975Y020562D01*
X013681Y020513D02*
X013584Y020513D01*
X013632Y020513D02*
X013632Y020707D01*
X013681Y020707D01*
X013632Y020804D02*
X013632Y020852D01*
X013484Y020707D02*
X013339Y020707D01*
X013291Y020658D01*
X013291Y020513D01*
X013190Y020562D02*
X013141Y020513D01*
X012996Y020513D01*
X012996Y020465D02*
X012996Y020707D01*
X013141Y020707D01*
X013190Y020658D01*
X013190Y020562D01*
X013093Y020417D02*
X013045Y020417D01*
X012996Y020465D01*
X012824Y020324D02*
X012824Y020033D01*
X012969Y020033D01*
X013018Y020082D01*
X013018Y020178D01*
X012969Y020227D01*
X012824Y020227D01*
X013119Y020178D02*
X013119Y020130D01*
X013312Y020130D01*
X013312Y020082D02*
X013312Y020178D01*
X013264Y020227D01*
X013167Y020227D01*
X013119Y020178D01*
X013167Y020033D02*
X013264Y020033D01*
X013312Y020082D01*
X013414Y020082D02*
X013462Y020130D01*
X013559Y020130D01*
X013607Y020178D01*
X013559Y020227D01*
X013414Y020227D01*
X013414Y020082D02*
X013462Y020033D01*
X013607Y020033D01*
X013708Y020033D02*
X013708Y020227D01*
X013708Y020033D02*
X013853Y020033D01*
X013902Y020082D01*
X013902Y020227D01*
X013484Y020513D02*
X013484Y020707D01*
X015083Y020324D02*
X015180Y020227D01*
X015277Y020324D01*
X015277Y020033D01*
X015378Y020082D02*
X015378Y020275D01*
X015426Y020324D01*
X015523Y020324D01*
X015571Y020275D01*
X015571Y020082D01*
X015523Y020033D01*
X015426Y020033D01*
X015378Y020082D01*
X015673Y020033D02*
X015769Y020130D01*
X015721Y020130D02*
X015866Y020130D01*
X015866Y020033D02*
X015866Y020324D01*
X015721Y020324D01*
X015673Y020275D01*
X015673Y020178D01*
X015721Y020130D01*
D14*
X015627Y019343D02*
X015027Y019343D01*
X015010Y019341D01*
X014993Y019337D01*
X014977Y019330D01*
X014963Y019320D01*
X014950Y019307D01*
X014940Y019293D01*
X014933Y019277D01*
X014929Y019260D01*
X014927Y019243D01*
X014927Y017543D01*
X014929Y017526D01*
X014933Y017509D01*
X014940Y017493D01*
X014950Y017479D01*
X014963Y017466D01*
X014977Y017456D01*
X014993Y017449D01*
X015010Y017445D01*
X015027Y017443D01*
X015627Y017443D01*
X015644Y017445D01*
X015661Y017449D01*
X015677Y017456D01*
X015691Y017466D01*
X015704Y017479D01*
X015714Y017493D01*
X015721Y017509D01*
X015725Y017526D01*
X015727Y017543D01*
X015727Y019243D01*
X015725Y019260D01*
X015721Y019277D01*
X015714Y019293D01*
X015704Y019307D01*
X015691Y019320D01*
X015677Y019330D01*
X015661Y019337D01*
X015644Y019341D01*
X015627Y019343D01*
X014477Y019243D02*
X014477Y017543D01*
X014475Y017526D01*
X014471Y017509D01*
X014464Y017493D01*
X014454Y017479D01*
X014441Y017466D01*
X014427Y017456D01*
X014411Y017449D01*
X014394Y017445D01*
X014377Y017443D01*
X013777Y017443D01*
X013760Y017445D01*
X013743Y017449D01*
X013727Y017456D01*
X013713Y017466D01*
X013700Y017479D01*
X013690Y017493D01*
X013683Y017509D01*
X013679Y017526D01*
X013677Y017543D01*
X013677Y019243D01*
X013679Y019260D01*
X013683Y019277D01*
X013690Y019293D01*
X013700Y019307D01*
X013713Y019320D01*
X013727Y019330D01*
X013743Y019337D01*
X013760Y019341D01*
X013777Y019343D01*
X014377Y019343D01*
X014394Y019341D01*
X014411Y019337D01*
X014427Y019330D01*
X014441Y019320D01*
X014454Y019307D01*
X014464Y019293D01*
X014471Y019277D01*
X014475Y019260D01*
X014477Y019243D01*
X035677Y019318D02*
X035677Y018718D01*
X035679Y018701D01*
X035683Y018684D01*
X035690Y018668D01*
X035700Y018654D01*
X035713Y018641D01*
X035727Y018631D01*
X035743Y018624D01*
X035760Y018620D01*
X035777Y018618D01*
X036877Y018618D01*
X036894Y018620D01*
X036911Y018624D01*
X036927Y018631D01*
X036941Y018641D01*
X036954Y018654D01*
X036964Y018668D01*
X036971Y018684D01*
X036975Y018701D01*
X036977Y018718D01*
X036977Y019318D01*
X036975Y019335D01*
X036971Y019352D01*
X036964Y019368D01*
X036954Y019382D01*
X036941Y019395D01*
X036927Y019405D01*
X036911Y019412D01*
X036894Y019416D01*
X036877Y019418D01*
X035777Y019418D01*
X035760Y019416D01*
X035743Y019412D01*
X035727Y019405D01*
X035713Y019395D01*
X035700Y019382D01*
X035690Y019368D01*
X035683Y019352D01*
X035679Y019335D01*
X035677Y019318D01*
M02*
