G75*
G70*
%OFA0B0*%
%FSLAX24Y24*%
%IPPOS*%
%LPD*%
%AMOC8*
5,1,8,0,0,1.08239X$1,22.5*
%
%ADD10R,0.0480X0.0480*%
%ADD11C,0.0480*%
%ADD12OC8,0.0480*%
%ADD13R,0.0540X0.0540*%
%ADD14OC8,0.0540*%
%ADD15C,0.0600*%
%ADD16R,0.0600X0.0600*%
%ADD17OC8,0.0600*%
%ADD18C,0.0376*%
D10*
X004202Y004518D03*
X006202Y006018D03*
X012202Y013518D03*
X016202Y013518D03*
X023202Y011518D03*
X029202Y010518D03*
X023202Y003518D03*
X025202Y017518D03*
X040202Y020518D03*
X042202Y021518D03*
X042202Y022518D03*
X005202Y020518D03*
D11*
X004202Y021018D03*
X003202Y021018D03*
X003202Y022018D03*
X004202Y022018D03*
X006202Y022018D03*
X007202Y021643D03*
X008202Y020518D03*
X009202Y020518D03*
X009202Y019518D03*
X008202Y019518D03*
X008202Y018518D03*
X009202Y018518D03*
X009202Y017518D03*
X008202Y017518D03*
X008202Y016518D03*
X009202Y016518D03*
X009202Y015518D03*
X008202Y015518D03*
X008202Y014518D03*
X009202Y014518D03*
X009202Y013518D03*
X008202Y013518D03*
X007202Y012518D03*
X006202Y012518D03*
X005202Y013518D03*
X005202Y014518D03*
X004202Y014518D03*
X003202Y014518D03*
X003202Y015518D03*
X004202Y015518D03*
X005202Y015518D03*
X005202Y016518D03*
X005202Y017518D03*
X005202Y018518D03*
X005202Y019518D03*
X010202Y021643D03*
X012202Y020518D03*
X012202Y019518D03*
X013202Y019518D03*
X013202Y018518D03*
X012202Y018518D03*
X012202Y017518D03*
X013202Y017518D03*
X013202Y016518D03*
X012202Y016518D03*
X012202Y015518D03*
X013202Y015518D03*
X013202Y014518D03*
X012202Y014518D03*
X013202Y013518D03*
X014202Y012518D03*
X015202Y012518D03*
X016202Y014518D03*
X016202Y015518D03*
X017202Y015518D03*
X018702Y015518D03*
X016202Y016518D03*
X016202Y017518D03*
X016202Y018518D03*
X017202Y018518D03*
X016202Y019518D03*
X022202Y020518D03*
X022202Y021518D03*
X023202Y021518D03*
X024202Y021518D03*
X025202Y021518D03*
X026202Y021518D03*
X027202Y021518D03*
X028202Y021518D03*
X029202Y021518D03*
X030202Y021518D03*
X031202Y021518D03*
X032202Y021518D03*
X033202Y021518D03*
X034202Y021518D03*
X035202Y021518D03*
X036202Y021518D03*
X037202Y021518D03*
X038202Y021518D03*
X039202Y021518D03*
X040202Y021518D03*
X041202Y021518D03*
X041202Y022518D03*
X040202Y022518D03*
X039202Y022518D03*
X038202Y022518D03*
X037202Y022518D03*
X036202Y022518D03*
X035202Y022518D03*
X034202Y022518D03*
X033202Y022518D03*
X032202Y022518D03*
X031202Y022518D03*
X030202Y022518D03*
X029202Y022518D03*
X028202Y022518D03*
X027202Y022518D03*
X026202Y022518D03*
X025202Y022518D03*
X024202Y022518D03*
X023202Y022518D03*
X025202Y020518D03*
X026202Y020518D03*
X027202Y020518D03*
X028202Y020518D03*
X029202Y020518D03*
X030202Y020518D03*
X031202Y020518D03*
X033202Y020518D03*
X034202Y020518D03*
X035202Y020518D03*
X036202Y020518D03*
X037202Y020518D03*
X038202Y020518D03*
X039202Y020518D03*
X039202Y017518D03*
X038202Y017518D03*
X037202Y017518D03*
X036202Y017518D03*
X035202Y017518D03*
X034202Y017518D03*
X033202Y017518D03*
X033202Y016518D03*
X034202Y016518D03*
X035202Y016518D03*
X036202Y016518D03*
X037202Y016518D03*
X038202Y016518D03*
X039202Y016518D03*
X040202Y016518D03*
X041202Y016518D03*
X042202Y016518D03*
X042202Y015518D03*
X041202Y015518D03*
X040202Y015518D03*
X039202Y015518D03*
X038202Y015518D03*
X037202Y015518D03*
X036202Y015518D03*
X035202Y015518D03*
X034202Y015518D03*
X033202Y015518D03*
X032202Y015518D03*
X031202Y015518D03*
X030202Y015518D03*
X029202Y015518D03*
X028202Y015518D03*
X027202Y015518D03*
X026202Y015518D03*
X025202Y015518D03*
X024202Y015518D03*
X023202Y015518D03*
X022202Y015518D03*
X022202Y016518D03*
X023202Y016518D03*
X024202Y016518D03*
X025202Y016518D03*
X026202Y016518D03*
X027202Y016518D03*
X028202Y016518D03*
X029202Y016518D03*
X030202Y016518D03*
X031202Y016518D03*
X032202Y016518D03*
X031202Y017518D03*
X030202Y017518D03*
X029202Y017518D03*
X028202Y017518D03*
X027202Y017518D03*
X026202Y017518D03*
X026202Y014518D03*
X025202Y014518D03*
X024202Y014518D03*
X023202Y014518D03*
X027202Y014518D03*
X028202Y014518D03*
X029202Y014518D03*
X030202Y014518D03*
X031202Y014518D03*
X032202Y014518D03*
X033202Y014518D03*
X034202Y014518D03*
X037702Y014518D03*
X038702Y014518D03*
X038702Y013518D03*
X037702Y013518D03*
X034202Y011518D03*
X033202Y011518D03*
X032202Y011518D03*
X031202Y011518D03*
X030202Y011518D03*
X029202Y011518D03*
X028202Y011518D03*
X027202Y011518D03*
X026202Y011518D03*
X025202Y011518D03*
X024202Y011518D03*
X024202Y010518D03*
X023202Y010518D03*
X023202Y009518D03*
X024202Y009518D03*
X025202Y009518D03*
X026202Y009518D03*
X027202Y009518D03*
X028202Y009518D03*
X029202Y009518D03*
X030202Y009518D03*
X031202Y009518D03*
X032202Y009518D03*
X033202Y009518D03*
X034202Y009518D03*
X035202Y009518D03*
X036202Y009518D03*
X034202Y010518D03*
X033202Y010518D03*
X032202Y010518D03*
X031202Y010518D03*
X030202Y010518D03*
X018702Y012518D03*
X017202Y010518D03*
X016202Y010518D03*
X015202Y010518D03*
X014202Y010518D03*
X013202Y010518D03*
X012202Y010518D03*
X011202Y010518D03*
X010202Y010518D03*
X009202Y010518D03*
X008202Y010518D03*
X007202Y010518D03*
X006202Y010518D03*
X005202Y010518D03*
X004202Y010518D03*
X003202Y009518D03*
X003202Y008518D03*
X006202Y009018D03*
X007202Y009018D03*
X008202Y009018D03*
X009202Y009018D03*
X010202Y009018D03*
X011202Y009018D03*
X012202Y009018D03*
X013202Y009018D03*
X013202Y006018D03*
X012202Y006018D03*
X011202Y006018D03*
X010202Y006018D03*
X009202Y006018D03*
X008202Y006018D03*
X007202Y006018D03*
X007202Y004518D03*
X006202Y004518D03*
X005202Y004518D03*
X008202Y004518D03*
X009202Y004518D03*
X010202Y004518D03*
X011202Y004518D03*
X012202Y004518D03*
X013202Y004518D03*
X014202Y004518D03*
X015202Y004518D03*
X016202Y004518D03*
X017202Y004518D03*
X024202Y003518D03*
X025202Y003518D03*
X026202Y003518D03*
X027202Y003518D03*
X028202Y003518D03*
X029202Y003518D03*
X030202Y003518D03*
X031202Y003518D03*
X032202Y003518D03*
X033202Y003518D03*
X034202Y003518D03*
X035202Y003518D03*
X036202Y003518D03*
X041702Y014518D03*
X042702Y014518D03*
X040202Y017518D03*
X040202Y023518D03*
X039202Y023518D03*
X038202Y023518D03*
X037202Y023518D03*
X036202Y023518D03*
X035202Y023518D03*
X034202Y023518D03*
X033202Y023518D03*
X032202Y023518D03*
X031202Y023518D03*
X041202Y023518D03*
X042202Y023518D03*
X011202Y012518D03*
X010202Y012518D03*
D12*
X003702Y016768D03*
X003202Y017518D03*
X004202Y017518D03*
X004202Y019518D03*
X003202Y019518D03*
X003702Y020268D03*
X005202Y022018D03*
D13*
X003202Y006518D03*
D14*
X003202Y005518D03*
D15*
X004202Y011518D03*
X004202Y013518D03*
D16*
X004202Y012518D03*
D17*
X019702Y012518D03*
X020702Y012518D03*
X020702Y011518D03*
X019702Y011518D03*
X019702Y013518D03*
X020702Y013518D03*
X020702Y014518D03*
X019702Y014518D03*
X019702Y015518D03*
X020702Y015518D03*
X020702Y016518D03*
X019702Y016518D03*
X019702Y017518D03*
X020702Y017518D03*
X035702Y014518D03*
X036702Y014518D03*
X036702Y013518D03*
X035702Y013518D03*
X035702Y012518D03*
X036702Y012518D03*
X036702Y011518D03*
X035702Y011518D03*
X035702Y010518D03*
X036702Y010518D03*
X039702Y013518D03*
X040702Y013518D03*
X040702Y014518D03*
X039702Y014518D03*
D18*
X003702Y003893D03*
X005702Y003893D03*
X007702Y003893D03*
X009702Y003893D03*
X011702Y003893D03*
X013702Y003893D03*
X015702Y003893D03*
X018202Y004518D03*
X020327Y005768D03*
X020702Y006018D03*
X021077Y006268D03*
X022202Y006518D03*
X022577Y006768D03*
X024577Y006768D03*
X025202Y006518D03*
X026202Y006268D03*
X027202Y006018D03*
X028202Y005768D03*
X029202Y005518D03*
X030202Y005268D03*
X031202Y005268D03*
X032202Y005268D03*
X033202Y005268D03*
X034202Y005268D03*
X034827Y005643D03*
X033702Y006518D03*
X032702Y007143D03*
X032327Y007643D03*
X031952Y008143D03*
X030702Y008018D03*
X029702Y008268D03*
X027202Y008768D03*
X026202Y008518D03*
X024702Y010018D03*
X025827Y010643D03*
X026452Y010768D03*
X027702Y010768D03*
X027702Y012268D03*
X026452Y013018D03*
X025202Y013768D03*
X021452Y013893D03*
X021327Y013018D03*
X017952Y013268D03*
X017077Y013268D03*
X017077Y012518D03*
X017827Y012018D03*
X017952Y010518D03*
X019577Y009393D03*
X022452Y009768D03*
X024702Y011018D03*
X029202Y013268D03*
X030702Y012643D03*
X032202Y012893D03*
X033202Y013018D03*
X034202Y013518D03*
X035202Y014018D03*
X032202Y017518D03*
X032452Y018268D03*
X033452Y018768D03*
X034077Y018393D03*
X034577Y019768D03*
X035452Y019768D03*
X036452Y019768D03*
X038202Y019643D03*
X039452Y019518D03*
X040702Y019018D03*
X041202Y019393D03*
X041702Y019893D03*
X042327Y020268D03*
X041202Y020518D03*
X038452Y018518D03*
X039702Y018143D03*
X041202Y018143D03*
X041702Y017518D03*
X042327Y017643D03*
X043077Y016018D03*
X032202Y019768D03*
X031577Y019768D03*
X030827Y019268D03*
X030202Y019268D03*
X029702Y018268D03*
X025952Y019518D03*
X024202Y018643D03*
X021452Y018143D03*
X019202Y018893D03*
X019952Y019393D03*
X019327Y019768D03*
X018827Y019893D03*
X018327Y020018D03*
X017827Y019893D03*
X017202Y019518D03*
X017702Y019143D03*
X015327Y019518D03*
X014702Y019643D03*
X014077Y019518D03*
X011577Y019893D03*
X011327Y019018D03*
X010577Y018643D03*
X010202Y018268D03*
X009952Y017518D03*
X011077Y017643D03*
X011452Y017018D03*
X009827Y016018D03*
X007702Y016018D03*
X007202Y015518D03*
X007452Y014518D03*
X006702Y014018D03*
X007077Y013393D03*
X009202Y012143D03*
X007327Y011768D03*
X007202Y009768D03*
X005202Y009643D03*
X004327Y008518D03*
X005702Y008143D03*
X007202Y008143D03*
X008202Y008143D03*
X009077Y008143D03*
X010077Y008143D03*
X011077Y008143D03*
X012077Y008143D03*
X012702Y008518D03*
X013077Y008018D03*
X013827Y007893D03*
X014077Y007518D03*
X013827Y007143D03*
X014077Y006768D03*
X013827Y006393D03*
X015702Y008143D03*
X016452Y008018D03*
X017202Y007893D03*
X014702Y008268D03*
X014077Y008518D03*
X013452Y011393D03*
X012577Y011518D03*
X011327Y011768D03*
X013202Y012643D03*
X014202Y013518D03*
X015202Y013518D03*
X017327Y014768D03*
X017827Y015268D03*
X019202Y016018D03*
X018577Y016268D03*
X018077Y016268D03*
X018077Y016768D03*
X016952Y016518D03*
X015327Y017268D03*
X014202Y017268D03*
X014577Y016143D03*
X014077Y015643D03*
X011577Y014143D03*
X010827Y014393D03*
X006202Y016518D03*
X004452Y016393D03*
X005827Y017893D03*
X006202Y018393D03*
X007327Y017768D03*
X006702Y019018D03*
X006077Y019518D03*
X007327Y019518D03*
X006702Y020518D03*
X005952Y020518D03*
X004577Y020143D03*
X002952Y020143D03*
X002952Y018518D03*
X004577Y018143D03*
X009702Y019018D03*
X010952Y020893D03*
X011077Y021518D03*
X011077Y022268D03*
X009702Y022643D03*
X007827Y022643D03*
X008952Y021268D03*
X015077Y021018D03*
X018452Y022018D03*
X018952Y022018D03*
X020077Y021518D03*
X020827Y021518D03*
X020202Y021018D03*
X021577Y023018D03*
X022077Y023393D03*
X020577Y023768D03*
X029702Y023018D03*
X030452Y023268D03*
X032827Y024018D03*
X034702Y024143D03*
X036702Y024143D03*
X038702Y024143D03*
X040577Y024143D03*
X042827Y024143D03*
X021452Y014893D03*
X017952Y014143D03*
X017952Y017643D03*
X017202Y017643D03*
X002952Y012768D03*
X002952Y011143D03*
X005202Y006893D03*
X007202Y006893D03*
X019702Y006643D03*
X020577Y003268D03*
X021952Y003268D03*
X024702Y002893D03*
X026702Y002893D03*
X028702Y002893D03*
X030702Y002893D03*
X032702Y002893D03*
X034702Y002893D03*
X036702Y002893D03*
X036202Y004518D03*
X036202Y006518D03*
X035452Y007643D03*
X034827Y008018D03*
X035702Y008393D03*
X033702Y007643D03*
X033202Y008018D03*
X031202Y006518D03*
M02*
