G75*
G70*
%OFA0B0*%
%FSLAX24Y24*%
%IPPOS*%
%LPD*%
%AMOC8*
5,1,8,0,0,1.08239X$1,22.5*
%
%ADD10C,0.0050*%
%ADD11R,0.0530X0.0530*%
%ADD12C,0.0530*%
%ADD13OC8,0.0530*%
%ADD14R,0.0680X0.0510*%
%ADD15R,0.0590X0.0590*%
%ADD16OC8,0.0590*%
%ADD17C,0.0650*%
%ADD18R,0.0650X0.0650*%
%ADD19OC8,0.0650*%
%ADD20R,0.0510X0.0680*%
%ADD21R,0.0060X0.0720*%
D10*
X022117Y023868D02*
X022192Y023793D01*
X022343Y023793D01*
X022418Y023868D01*
X022117Y024169D01*
X022117Y023868D01*
X022418Y023868D02*
X022418Y024169D01*
X022343Y024244D01*
X022192Y024244D01*
X022117Y024169D01*
X022573Y023868D02*
X022573Y023793D01*
X022648Y023793D01*
X022648Y023868D01*
X022573Y023868D01*
X022808Y023793D02*
X023108Y023793D01*
X022958Y023793D02*
X022958Y024244D01*
X023108Y024094D01*
X023729Y024169D02*
X023804Y024244D01*
X023954Y024244D01*
X024029Y024169D01*
X024029Y024094D01*
X023954Y024018D01*
X023804Y024018D01*
X023729Y023943D01*
X023729Y023868D01*
X023804Y023793D01*
X023954Y023793D01*
X024029Y023868D01*
X024189Y023868D02*
X024189Y024169D01*
X024264Y024244D01*
X024414Y024244D01*
X024489Y024169D01*
X024489Y023868D01*
X024414Y023793D01*
X024264Y023793D01*
X024189Y023868D01*
X024649Y023868D02*
X024649Y024169D01*
X024725Y024244D01*
X024950Y024244D01*
X024950Y023793D01*
X024725Y023793D01*
X024649Y023868D01*
X025567Y023793D02*
X025717Y023793D01*
X025642Y023793D02*
X025642Y024244D01*
X025717Y024244D01*
X025877Y024018D02*
X025877Y023793D01*
X026102Y023793D01*
X026177Y023868D01*
X026102Y023943D01*
X025877Y023943D01*
X025877Y024018D02*
X025952Y024094D01*
X026102Y024094D01*
X026338Y024018D02*
X026338Y023793D01*
X026338Y024018D02*
X026413Y024094D01*
X026638Y024094D01*
X026638Y023793D01*
X026798Y023868D02*
X026798Y024018D01*
X026873Y024094D01*
X027023Y024094D01*
X027098Y024018D01*
X027098Y023868D01*
X027023Y023793D01*
X026873Y023793D01*
X026798Y023868D01*
X027255Y023793D02*
X027405Y023793D01*
X027330Y023793D02*
X027330Y024094D01*
X027405Y024094D01*
X027565Y024094D02*
X027791Y024094D01*
X027866Y024018D01*
X027791Y023943D01*
X027640Y023943D01*
X027565Y023868D01*
X027640Y023793D01*
X027866Y023793D01*
X028026Y023868D02*
X028101Y023943D01*
X028251Y023943D01*
X028326Y024018D01*
X028251Y024094D01*
X028026Y024094D01*
X028026Y023868D02*
X028101Y023793D01*
X028326Y023793D01*
X028486Y023943D02*
X028786Y023943D01*
X028786Y023868D02*
X028786Y024018D01*
X028711Y024094D01*
X028561Y024094D01*
X028486Y024018D01*
X028486Y023943D01*
X028561Y023793D02*
X028711Y023793D01*
X028786Y023868D01*
X028943Y024018D02*
X029093Y024018D01*
X029253Y024018D02*
X029328Y024094D01*
X029479Y024094D01*
X029554Y024018D01*
X029554Y023868D01*
X029479Y023793D01*
X029328Y023793D01*
X029253Y023868D01*
X029253Y024018D01*
X029018Y024169D02*
X029018Y023793D01*
X029018Y024169D02*
X028943Y024244D01*
X029712Y024094D02*
X029787Y024094D01*
X029937Y023943D01*
X029937Y023793D02*
X029937Y024094D01*
X030097Y024169D02*
X030097Y024018D01*
X030173Y023943D01*
X030398Y023943D01*
X030398Y023793D02*
X030398Y024244D01*
X030173Y024244D01*
X030097Y024169D01*
X027330Y024244D02*
X027330Y024319D01*
D11*
X004202Y004518D03*
X006202Y006018D03*
X012202Y013518D03*
X016202Y013518D03*
X023202Y011518D03*
X029202Y010518D03*
X023202Y003518D03*
X025202Y017518D03*
X040202Y020518D03*
X042202Y021518D03*
X042202Y022518D03*
X005202Y020518D03*
D12*
X004202Y021018D03*
X003202Y021018D03*
X003202Y022018D03*
X004202Y022018D03*
X006202Y022018D03*
X007202Y021643D03*
X008202Y020518D03*
X009202Y020518D03*
X009202Y019518D03*
X008202Y019518D03*
X008202Y018518D03*
X009202Y018518D03*
X009202Y017518D03*
X008202Y017518D03*
X008202Y016518D03*
X009202Y016518D03*
X009202Y015518D03*
X008202Y015518D03*
X008202Y014518D03*
X009202Y014518D03*
X009202Y013518D03*
X008202Y013518D03*
X007202Y012518D03*
X006202Y012518D03*
X005202Y013518D03*
X005202Y014518D03*
X004202Y014518D03*
X003202Y014518D03*
X003202Y015518D03*
X004202Y015518D03*
X005202Y015518D03*
X005202Y016518D03*
X005202Y017518D03*
X005202Y018518D03*
X005202Y019518D03*
X010202Y021643D03*
X012202Y020518D03*
X012202Y019518D03*
X013202Y019518D03*
X013202Y018518D03*
X012202Y018518D03*
X012202Y017518D03*
X013202Y017518D03*
X013202Y016518D03*
X012202Y016518D03*
X012202Y015518D03*
X013202Y015518D03*
X013202Y014518D03*
X012202Y014518D03*
X013202Y013518D03*
X014202Y012518D03*
X015202Y012518D03*
X016202Y014518D03*
X016202Y015518D03*
X017202Y015518D03*
X018702Y015518D03*
X016202Y016518D03*
X016202Y017518D03*
X016202Y018518D03*
X017202Y018518D03*
X016202Y019518D03*
X022202Y020518D03*
X022202Y021518D03*
X023202Y021518D03*
X024202Y021518D03*
X025202Y021518D03*
X026202Y021518D03*
X027202Y021518D03*
X028202Y021518D03*
X029202Y021518D03*
X030202Y021518D03*
X031202Y021518D03*
X032202Y021518D03*
X033202Y021518D03*
X034202Y021518D03*
X035202Y021518D03*
X036202Y021518D03*
X037202Y021518D03*
X038202Y021518D03*
X039202Y021518D03*
X040202Y021518D03*
X041202Y021518D03*
X041202Y022518D03*
X040202Y022518D03*
X039202Y022518D03*
X038202Y022518D03*
X037202Y022518D03*
X036202Y022518D03*
X035202Y022518D03*
X034202Y022518D03*
X033202Y022518D03*
X032202Y022518D03*
X031202Y022518D03*
X030202Y022518D03*
X029202Y022518D03*
X028202Y022518D03*
X027202Y022518D03*
X026202Y022518D03*
X025202Y022518D03*
X024202Y022518D03*
X023202Y022518D03*
X025202Y020518D03*
X026202Y020518D03*
X027202Y020518D03*
X028202Y020518D03*
X029202Y020518D03*
X030202Y020518D03*
X031202Y020518D03*
X033202Y020518D03*
X034202Y020518D03*
X035202Y020518D03*
X036202Y020518D03*
X037202Y020518D03*
X038202Y020518D03*
X039202Y020518D03*
X039202Y017518D03*
X038202Y017518D03*
X037202Y017518D03*
X036202Y017518D03*
X035202Y017518D03*
X034202Y017518D03*
X033202Y017518D03*
X033202Y016518D03*
X034202Y016518D03*
X035202Y016518D03*
X036202Y016518D03*
X037202Y016518D03*
X038202Y016518D03*
X039202Y016518D03*
X040202Y016518D03*
X041202Y016518D03*
X042202Y016518D03*
X042202Y015518D03*
X041202Y015518D03*
X040202Y015518D03*
X039202Y015518D03*
X038202Y015518D03*
X037202Y015518D03*
X036202Y015518D03*
X035202Y015518D03*
X034202Y015518D03*
X033202Y015518D03*
X032202Y015518D03*
X031202Y015518D03*
X030202Y015518D03*
X029202Y015518D03*
X028202Y015518D03*
X027202Y015518D03*
X026202Y015518D03*
X025202Y015518D03*
X024202Y015518D03*
X023202Y015518D03*
X022202Y015518D03*
X022202Y016518D03*
X023202Y016518D03*
X024202Y016518D03*
X025202Y016518D03*
X026202Y016518D03*
X027202Y016518D03*
X028202Y016518D03*
X029202Y016518D03*
X030202Y016518D03*
X031202Y016518D03*
X032202Y016518D03*
X031202Y017518D03*
X030202Y017518D03*
X029202Y017518D03*
X028202Y017518D03*
X027202Y017518D03*
X026202Y017518D03*
X026202Y014518D03*
X025202Y014518D03*
X024202Y014518D03*
X023202Y014518D03*
X027202Y014518D03*
X028202Y014518D03*
X029202Y014518D03*
X030202Y014518D03*
X031202Y014518D03*
X032202Y014518D03*
X033202Y014518D03*
X034202Y014518D03*
X037702Y014518D03*
X038702Y014518D03*
X038702Y013518D03*
X037702Y013518D03*
X034202Y011518D03*
X033202Y011518D03*
X032202Y011518D03*
X031202Y011518D03*
X030202Y011518D03*
X029202Y011518D03*
X028202Y011518D03*
X027202Y011518D03*
X026202Y011518D03*
X025202Y011518D03*
X024202Y011518D03*
X024202Y010518D03*
X023202Y010518D03*
X023202Y009518D03*
X024202Y009518D03*
X025202Y009518D03*
X026202Y009518D03*
X027202Y009518D03*
X028202Y009518D03*
X029202Y009518D03*
X030202Y009518D03*
X031202Y009518D03*
X032202Y009518D03*
X033202Y009518D03*
X034202Y009518D03*
X035202Y009518D03*
X036202Y009518D03*
X034202Y010518D03*
X033202Y010518D03*
X032202Y010518D03*
X031202Y010518D03*
X030202Y010518D03*
X018702Y012518D03*
X017202Y010518D03*
X016202Y010518D03*
X015202Y010518D03*
X014202Y010518D03*
X013202Y010518D03*
X012202Y010518D03*
X011202Y010518D03*
X010202Y010518D03*
X009202Y010518D03*
X008202Y010518D03*
X007202Y010518D03*
X006202Y010518D03*
X005202Y010518D03*
X004202Y010518D03*
X003202Y009518D03*
X003202Y008518D03*
X006202Y009018D03*
X007202Y009018D03*
X008202Y009018D03*
X009202Y009018D03*
X010202Y009018D03*
X011202Y009018D03*
X012202Y009018D03*
X013202Y009018D03*
X013202Y006018D03*
X012202Y006018D03*
X011202Y006018D03*
X010202Y006018D03*
X009202Y006018D03*
X008202Y006018D03*
X007202Y006018D03*
X007202Y004518D03*
X006202Y004518D03*
X005202Y004518D03*
X008202Y004518D03*
X009202Y004518D03*
X010202Y004518D03*
X011202Y004518D03*
X012202Y004518D03*
X013202Y004518D03*
X014202Y004518D03*
X015202Y004518D03*
X016202Y004518D03*
X017202Y004518D03*
X024202Y003518D03*
X025202Y003518D03*
X026202Y003518D03*
X027202Y003518D03*
X028202Y003518D03*
X029202Y003518D03*
X030202Y003518D03*
X031202Y003518D03*
X032202Y003518D03*
X033202Y003518D03*
X034202Y003518D03*
X035202Y003518D03*
X036202Y003518D03*
X041702Y014518D03*
X042702Y014518D03*
X040202Y017518D03*
X040202Y023518D03*
X039202Y023518D03*
X038202Y023518D03*
X037202Y023518D03*
X036202Y023518D03*
X035202Y023518D03*
X034202Y023518D03*
X033202Y023518D03*
X032202Y023518D03*
X031202Y023518D03*
X041202Y023518D03*
X042202Y023518D03*
X011202Y012518D03*
X010202Y012518D03*
D13*
X003702Y016768D03*
X003202Y017518D03*
X004202Y017518D03*
X004202Y019518D03*
X003202Y019518D03*
X003702Y020268D03*
X005202Y022018D03*
D14*
X014077Y018993D03*
X014077Y018393D03*
X014077Y017793D03*
X015327Y017793D03*
X015327Y018393D03*
X015327Y018993D03*
D15*
X003202Y006518D03*
D16*
X003202Y005518D03*
D17*
X004202Y011518D03*
X004202Y013518D03*
D18*
X004202Y012518D03*
D19*
X019702Y012518D03*
X020702Y012518D03*
X020702Y011518D03*
X019702Y011518D03*
X019702Y013518D03*
X020702Y013518D03*
X020702Y014518D03*
X019702Y014518D03*
X019702Y015518D03*
X020702Y015518D03*
X020702Y016518D03*
X019702Y016518D03*
X019702Y017518D03*
X020702Y017518D03*
X035702Y014518D03*
X036702Y014518D03*
X036702Y013518D03*
X035702Y013518D03*
X035702Y012518D03*
X036702Y012518D03*
X036702Y011518D03*
X035702Y011518D03*
X035702Y010518D03*
X036702Y010518D03*
X039702Y013518D03*
X040702Y013518D03*
X040702Y014518D03*
X039702Y014518D03*
D20*
X036627Y019018D03*
X036027Y019018D03*
D21*
X036327Y019018D03*
M02*
