G75*
G70*
%OFA0B0*%
%FSLAX24Y24*%
%IPPOS*%
%LPD*%
%AMOC8*
5,1,8,0,0,1.08239X$1,22.5*
%
%ADD10C,0.0000*%
%ADD11C,0.0040*%
%ADD12C,0.0030*%
%ADD13C,0.0050*%
%ADD14C,0.0060*%
%ADD15C,0.0240*%
%ADD16C,0.0100*%
D10*
X002202Y003393D02*
X002202Y023518D01*
X019202Y023518D01*
X020452Y024768D01*
X043577Y024768D01*
X043577Y012768D01*
X043577Y013643D01*
X043577Y012768D01*
X037702Y012768D01*
X037702Y002393D01*
X020202Y002393D01*
X019202Y003393D01*
X002202Y003393D01*
D11*
X006960Y005163D02*
X006960Y005524D01*
X007200Y005524D01*
X007080Y005343D02*
X006960Y005343D01*
X007328Y005223D02*
X007388Y005283D01*
X007569Y005283D01*
X007569Y005343D02*
X007569Y005163D01*
X007388Y005163D01*
X007328Y005223D01*
X007388Y005404D02*
X007509Y005404D01*
X007569Y005343D01*
X007697Y005343D02*
X007757Y005404D01*
X007937Y005404D01*
X008065Y005404D02*
X008185Y005404D01*
X008125Y005464D02*
X008125Y005223D01*
X008185Y005163D01*
X007937Y005223D02*
X007877Y005283D01*
X007757Y005283D01*
X007697Y005343D01*
X007697Y005163D02*
X007877Y005163D01*
X007937Y005223D01*
X008679Y005223D02*
X008739Y005283D01*
X008919Y005283D01*
X008919Y005343D02*
X008919Y005163D01*
X008739Y005163D01*
X008679Y005223D01*
X008739Y005404D02*
X008859Y005404D01*
X008919Y005343D01*
X009047Y005343D02*
X009107Y005404D01*
X009287Y005404D01*
X009227Y005283D02*
X009107Y005283D01*
X009047Y005343D01*
X009047Y005163D02*
X009227Y005163D01*
X009287Y005223D01*
X009227Y005283D01*
X009784Y005223D02*
X009844Y005283D01*
X010024Y005283D01*
X010024Y005343D02*
X010024Y005163D01*
X009844Y005163D01*
X009784Y005223D01*
X009844Y005404D02*
X009964Y005404D01*
X010024Y005343D01*
X010520Y005404D02*
X010581Y005404D01*
X010641Y005343D01*
X010701Y005404D01*
X010761Y005343D01*
X010761Y005163D01*
X010641Y005163D02*
X010641Y005343D01*
X010520Y005404D02*
X010520Y005163D01*
X010889Y005223D02*
X010889Y005343D01*
X010949Y005404D01*
X011069Y005404D01*
X011129Y005343D01*
X011129Y005223D01*
X011069Y005163D01*
X010949Y005163D01*
X010889Y005223D01*
X011257Y005223D02*
X011257Y005343D01*
X011317Y005404D01*
X011437Y005404D01*
X011497Y005343D01*
X011497Y005223D01*
X011437Y005163D01*
X011317Y005163D01*
X011257Y005223D01*
X011625Y005163D02*
X011806Y005163D01*
X011866Y005223D01*
X011806Y005283D01*
X011685Y005283D01*
X011625Y005343D01*
X011685Y005404D01*
X011866Y005404D01*
X011994Y005343D02*
X012054Y005404D01*
X012174Y005404D01*
X012234Y005343D01*
X012234Y005283D01*
X011994Y005283D01*
X011994Y005223D02*
X011994Y005343D01*
X011994Y005223D02*
X012054Y005163D01*
X012174Y005163D01*
X012362Y005163D02*
X012362Y005223D01*
X012362Y005343D02*
X012362Y005584D01*
X018736Y010413D02*
X018976Y010413D01*
X018856Y010413D02*
X018856Y010774D01*
X018736Y010654D01*
X019104Y010593D02*
X019224Y010654D01*
X019284Y010654D01*
X019344Y010593D01*
X019344Y010473D01*
X019284Y010413D01*
X019164Y010413D01*
X019104Y010473D01*
X019104Y010593D02*
X019104Y010774D01*
X019344Y010774D01*
X019472Y010593D02*
X019713Y010593D01*
X019841Y010654D02*
X019961Y010774D01*
X019961Y010413D01*
X019841Y010413D02*
X020081Y010413D01*
X020361Y010413D02*
X020601Y010413D01*
X020481Y010413D02*
X020481Y010774D01*
X020361Y010654D01*
X020729Y010593D02*
X020849Y010654D01*
X020909Y010654D01*
X020969Y010593D01*
X020969Y010473D01*
X020909Y010413D01*
X020789Y010413D01*
X020729Y010473D01*
X020729Y010593D02*
X020729Y010774D01*
X020969Y010774D01*
X021097Y010774D02*
X021338Y010774D01*
X021338Y010714D01*
X021097Y010473D01*
X021097Y010413D01*
X021466Y010413D02*
X021706Y010413D01*
X021586Y010413D02*
X021586Y010774D01*
X021466Y010654D01*
X019653Y010774D02*
X019653Y010413D01*
X019472Y010593D02*
X019653Y010774D01*
X021882Y008338D02*
X021822Y008278D01*
X021822Y008158D01*
X021882Y008097D01*
X021882Y007969D02*
X022002Y007969D01*
X022062Y007909D01*
X022062Y007729D01*
X022182Y007729D02*
X021822Y007729D01*
X021822Y007909D01*
X021882Y007969D01*
X022182Y008097D02*
X021942Y008338D01*
X021882Y008338D01*
X022182Y008338D02*
X022182Y008097D01*
X022122Y007541D02*
X021822Y007541D01*
X021822Y007481D02*
X021822Y007601D01*
X022122Y007541D02*
X022182Y007481D01*
X022182Y007421D01*
X022122Y007361D01*
X023722Y005749D02*
X023963Y005749D01*
X023843Y005749D02*
X023843Y005388D01*
X023903Y005149D02*
X023963Y005089D01*
X023963Y005029D01*
X023903Y004968D01*
X023722Y004968D01*
X023722Y004788D02*
X023903Y004788D01*
X023963Y004848D01*
X023963Y004908D01*
X023903Y004968D01*
X023903Y005149D02*
X023722Y005149D01*
X023722Y004788D01*
X024091Y004848D02*
X024091Y004968D01*
X024151Y005029D01*
X024271Y005029D01*
X024331Y004968D01*
X024331Y004908D01*
X024091Y004908D01*
X024091Y004848D02*
X024151Y004788D01*
X024271Y004788D01*
X024459Y004788D02*
X024459Y005029D01*
X024639Y005029D01*
X024699Y004968D01*
X024699Y004788D01*
X024827Y004848D02*
X024827Y005029D01*
X024827Y004848D02*
X024887Y004788D01*
X025068Y004788D01*
X025068Y005029D01*
X025196Y005029D02*
X025316Y005029D01*
X025256Y005089D02*
X025256Y004848D01*
X025316Y004788D01*
X025441Y004788D02*
X025681Y004788D01*
X025810Y004848D02*
X025810Y004968D01*
X025870Y005029D01*
X025990Y005029D01*
X026050Y004968D01*
X026050Y004908D01*
X025810Y004908D01*
X025810Y004848D02*
X025870Y004788D01*
X025990Y004788D01*
X026178Y004788D02*
X026178Y005029D01*
X026298Y005029D02*
X026358Y005029D01*
X026298Y005029D02*
X026178Y004908D01*
X026485Y004788D02*
X026485Y005029D01*
X026665Y005029D01*
X026725Y004968D01*
X026725Y004788D01*
X026853Y004848D02*
X026913Y004908D01*
X027093Y004908D01*
X027093Y004968D02*
X027093Y004788D01*
X026913Y004788D01*
X026853Y004848D01*
X026913Y005029D02*
X027033Y005029D01*
X027093Y004968D01*
X027221Y005029D02*
X027221Y004788D01*
X027342Y004788D02*
X027342Y004968D01*
X027402Y005029D01*
X027462Y004968D01*
X027462Y004788D01*
X027590Y004848D02*
X027590Y004968D01*
X027650Y005029D01*
X027770Y005029D01*
X027830Y004968D01*
X027830Y004908D01*
X027590Y004908D01*
X027590Y004848D02*
X027650Y004788D01*
X027770Y004788D01*
X027958Y004668D02*
X028078Y004788D01*
X028018Y004788D01*
X028018Y004848D01*
X028078Y004848D01*
X028078Y004788D01*
X028572Y004848D02*
X028572Y005089D01*
X028632Y005149D01*
X028752Y005149D01*
X028812Y005089D01*
X028812Y004968D02*
X028692Y004968D01*
X028812Y004968D02*
X028812Y004848D01*
X028752Y004788D01*
X028632Y004788D01*
X028572Y004848D01*
X028940Y004788D02*
X028940Y005149D01*
X029060Y005029D01*
X029180Y005149D01*
X029180Y004788D01*
X029309Y004788D02*
X029309Y005149D01*
X029489Y005149D01*
X029549Y005089D01*
X029549Y004968D01*
X029489Y004908D01*
X029309Y004908D01*
X029737Y004848D02*
X029737Y004788D01*
X029797Y004788D01*
X029797Y004848D01*
X029737Y004848D01*
X029797Y004788D02*
X029677Y004668D01*
X030291Y004788D02*
X030291Y005149D01*
X030351Y004968D02*
X030531Y004788D01*
X030659Y004788D02*
X030779Y004788D01*
X030719Y004788D02*
X030719Y005029D01*
X030659Y005029D01*
X030719Y005149D02*
X030719Y005209D01*
X030905Y005149D02*
X030905Y004788D01*
X031025Y004908D01*
X031145Y004788D01*
X031145Y005149D01*
X031273Y005029D02*
X031333Y005029D01*
X031333Y004788D01*
X031273Y004788D02*
X031393Y004788D01*
X031518Y004668D02*
X031639Y004788D01*
X031578Y004788D01*
X031578Y004848D01*
X031639Y004848D01*
X031639Y004788D01*
X031333Y005149D02*
X031333Y005209D01*
X032132Y005029D02*
X032132Y004788D01*
X032252Y004788D02*
X032252Y004968D01*
X032312Y005029D01*
X032372Y004968D01*
X032372Y004788D01*
X032501Y004848D02*
X032561Y004908D01*
X032741Y004908D01*
X032741Y004968D02*
X032741Y004788D01*
X032561Y004788D01*
X032501Y004848D01*
X032561Y005029D02*
X032681Y005029D01*
X032741Y004968D01*
X032869Y004908D02*
X032989Y005029D01*
X033049Y005029D01*
X033176Y005029D02*
X033296Y005029D01*
X033236Y005089D02*
X033236Y004848D01*
X033296Y004788D01*
X033421Y004848D02*
X033481Y004788D01*
X033662Y004788D01*
X033662Y004728D02*
X033602Y004668D01*
X033541Y004668D01*
X033662Y004728D02*
X033662Y005029D01*
X033421Y005029D02*
X033421Y004848D01*
X033790Y004668D02*
X033910Y004788D01*
X033850Y004788D01*
X033850Y004848D01*
X033910Y004848D01*
X033910Y004788D01*
X034404Y004848D02*
X034464Y004788D01*
X034584Y004788D01*
X034644Y004848D01*
X034644Y004908D01*
X034584Y004968D01*
X034464Y004968D01*
X034404Y005029D01*
X034404Y005089D01*
X034464Y005149D01*
X034584Y005149D01*
X034644Y005089D01*
X034772Y005029D02*
X034772Y004848D01*
X034832Y004788D01*
X035012Y004788D01*
X035012Y004728D02*
X034952Y004668D01*
X034892Y004668D01*
X035012Y004728D02*
X035012Y005029D01*
X035140Y005149D02*
X035140Y004788D01*
X035140Y004908D02*
X035320Y005029D01*
X035447Y004968D02*
X035507Y005029D01*
X035627Y005029D01*
X035687Y004968D01*
X035687Y004908D01*
X035447Y004908D01*
X035447Y004848D02*
X035447Y004968D01*
X035447Y004848D02*
X035507Y004788D01*
X035627Y004788D01*
X035815Y004788D02*
X035815Y005029D01*
X035996Y005029D01*
X036056Y004968D01*
X036056Y004788D01*
X035320Y004788D02*
X035140Y004908D01*
X032869Y004788D02*
X032869Y005029D01*
X032252Y004968D02*
X032192Y005029D01*
X032132Y005029D01*
X030531Y005149D02*
X030291Y004908D01*
X027342Y004968D02*
X027281Y005029D01*
X027221Y005029D01*
X026725Y005448D02*
X026725Y005568D01*
X026665Y005629D01*
X026545Y005629D01*
X026485Y005568D01*
X026485Y005448D01*
X026545Y005388D01*
X026665Y005388D01*
X026725Y005448D01*
X026359Y005388D02*
X026299Y005448D01*
X026299Y005689D01*
X026239Y005629D02*
X026359Y005629D01*
X025743Y005629D02*
X025563Y005629D01*
X025503Y005568D01*
X025563Y005508D01*
X025683Y005508D01*
X025743Y005448D01*
X025683Y005388D01*
X025503Y005388D01*
X025376Y005388D02*
X025196Y005508D01*
X025376Y005629D01*
X025196Y005749D02*
X025196Y005388D01*
X025068Y005388D02*
X025068Y005568D01*
X025008Y005629D01*
X024827Y005629D01*
X024827Y005388D01*
X024699Y005388D02*
X024699Y005568D01*
X024639Y005629D01*
X024519Y005629D01*
X024519Y005508D02*
X024699Y005508D01*
X024699Y005388D02*
X024519Y005388D01*
X024459Y005448D01*
X024519Y005508D01*
X024331Y005568D02*
X024331Y005388D01*
X024331Y005568D02*
X024271Y005629D01*
X024151Y005629D01*
X024091Y005568D01*
X024091Y005388D02*
X024091Y005749D01*
X025441Y005029D02*
X025681Y005029D01*
X025441Y004788D01*
X022182Y004604D02*
X021822Y004604D01*
X021822Y004784D01*
X021882Y004844D01*
X022002Y004844D01*
X022062Y004784D01*
X022062Y004604D01*
X022122Y004416D02*
X021822Y004416D01*
X021822Y004356D02*
X021822Y004476D01*
X022122Y004416D02*
X022182Y004356D01*
X022182Y004296D01*
X022122Y004236D01*
X022122Y004972D02*
X022182Y005033D01*
X022182Y005153D01*
X022122Y005213D01*
X022062Y005213D01*
X022002Y005153D01*
X022002Y005093D01*
X022002Y005153D02*
X021942Y005213D01*
X021882Y005213D01*
X021822Y005153D01*
X021822Y005033D01*
X021882Y004972D01*
X012247Y011198D02*
X012247Y011258D01*
X012187Y011318D01*
X012007Y011318D01*
X012007Y011198D01*
X012067Y011138D01*
X012187Y011138D01*
X012247Y011198D01*
X012007Y011318D02*
X012127Y011439D01*
X012247Y011499D01*
X011758Y011499D02*
X011758Y011138D01*
X011638Y011138D02*
X011878Y011138D01*
X011638Y011379D02*
X011758Y011499D01*
X011510Y011439D02*
X011270Y011198D01*
X011330Y011138D01*
X011450Y011138D01*
X011510Y011198D01*
X011510Y011439D01*
X011450Y011499D01*
X011330Y011499D01*
X011270Y011439D01*
X011270Y011198D01*
X011142Y011138D02*
X010902Y011138D01*
X011142Y011379D01*
X011142Y011439D01*
X011082Y011499D01*
X010962Y011499D01*
X010902Y011439D01*
X010405Y011439D02*
X010345Y011499D01*
X010225Y011499D01*
X010165Y011439D01*
X010165Y011379D01*
X010225Y011318D01*
X010345Y011318D01*
X010405Y011258D01*
X010405Y011198D01*
X010345Y011138D01*
X010225Y011138D01*
X010165Y011198D01*
X010037Y011198D02*
X010037Y011439D01*
X009977Y011499D01*
X009857Y011499D01*
X009797Y011439D01*
X009797Y011198D01*
X009857Y011138D01*
X009977Y011138D01*
X010037Y011198D01*
X009669Y011198D02*
X009669Y011439D01*
X009609Y011499D01*
X009428Y011499D01*
X009428Y011138D01*
X009609Y011138D01*
X009669Y011198D01*
X008935Y011138D02*
X008815Y011138D01*
X008875Y011138D02*
X008875Y011499D01*
X008815Y011499D01*
X008686Y011318D02*
X008626Y011379D01*
X008506Y011379D01*
X008506Y011258D02*
X008686Y011258D01*
X008686Y011318D02*
X008686Y011138D01*
X008506Y011138D01*
X008446Y011198D01*
X008506Y011258D01*
X008318Y011318D02*
X008258Y011379D01*
X008078Y011379D01*
X008078Y011138D01*
X007950Y011198D02*
X007950Y011318D01*
X007890Y011379D01*
X007770Y011379D01*
X007710Y011318D01*
X007710Y011198D01*
X007770Y011138D01*
X007890Y011138D01*
X007950Y011198D01*
X007584Y011138D02*
X007464Y011138D01*
X007524Y011138D02*
X007524Y011379D01*
X007464Y011379D01*
X007336Y011379D02*
X007156Y011379D01*
X007096Y011318D01*
X007156Y011258D01*
X007276Y011258D01*
X007336Y011198D01*
X007276Y011138D01*
X007096Y011138D01*
X006968Y011198D02*
X006908Y011258D01*
X006787Y011258D01*
X006727Y011318D01*
X006787Y011379D01*
X006968Y011379D01*
X006968Y011198D02*
X006908Y011138D01*
X006727Y011138D01*
X006599Y011258D02*
X006359Y011258D01*
X006359Y011198D02*
X006359Y011318D01*
X006419Y011379D01*
X006539Y011379D01*
X006599Y011318D01*
X006599Y011258D01*
X006539Y011138D02*
X006419Y011138D01*
X006359Y011198D01*
X006234Y011318D02*
X006114Y011318D01*
X005985Y011318D02*
X005925Y011379D01*
X005805Y011379D01*
X005745Y011318D01*
X005745Y011198D01*
X005805Y011138D01*
X005925Y011138D01*
X005985Y011198D01*
X005985Y011318D01*
X006174Y011439D02*
X006174Y011138D01*
X006174Y011439D02*
X006234Y011499D01*
X005618Y011379D02*
X005558Y011379D01*
X005438Y011258D01*
X005438Y011138D02*
X005438Y011379D01*
X005310Y011439D02*
X005310Y011318D01*
X005250Y011258D01*
X005070Y011258D01*
X005070Y011138D02*
X005070Y011499D01*
X005250Y011499D01*
X005310Y011439D01*
X007524Y011499D02*
X007524Y011559D01*
X008318Y011318D02*
X008318Y011138D01*
X024041Y022893D02*
X024101Y022893D01*
X024161Y022953D01*
X024161Y023254D01*
X024289Y023193D02*
X024289Y023073D01*
X024349Y023013D01*
X024469Y023013D01*
X024529Y023073D01*
X024529Y023193D01*
X024469Y023254D01*
X024349Y023254D01*
X024289Y023193D01*
X024161Y023013D02*
X023981Y023013D01*
X023920Y023073D01*
X023920Y023254D01*
X023792Y023193D02*
X023732Y023254D01*
X023612Y023254D01*
X023612Y023133D02*
X023792Y023133D01*
X023792Y023193D02*
X023792Y023013D01*
X023612Y023013D01*
X023552Y023073D01*
X023612Y023133D01*
X023424Y023013D02*
X023184Y023013D01*
X023184Y023374D01*
X023184Y023538D02*
X023184Y023899D01*
X023304Y023779D01*
X023424Y023899D01*
X023424Y023538D01*
X023552Y023598D02*
X023612Y023538D01*
X023732Y023538D01*
X023792Y023598D01*
X023792Y023718D01*
X023732Y023779D01*
X023612Y023779D01*
X023552Y023718D01*
X023552Y023598D01*
X023920Y023538D02*
X024161Y023899D01*
X024289Y023899D02*
X024529Y023899D01*
X024409Y023899D02*
X024409Y023538D01*
X024657Y023598D02*
X024717Y023538D01*
X024837Y023538D01*
X024897Y023598D01*
X024897Y023718D01*
X024837Y023779D01*
X024717Y023779D01*
X024657Y023718D01*
X024657Y023598D01*
X024657Y023254D02*
X024657Y023073D01*
X024717Y023013D01*
X024897Y023013D01*
X024897Y023254D01*
X025025Y023254D02*
X025146Y023254D01*
X025085Y023314D02*
X025085Y023073D01*
X025146Y023013D01*
X025639Y023013D02*
X025639Y023374D01*
X025639Y023254D02*
X025819Y023254D01*
X025879Y023193D01*
X025879Y023073D01*
X025819Y023013D01*
X025639Y023013D01*
X026008Y023073D02*
X026008Y023254D01*
X026008Y023073D02*
X026068Y023013D01*
X026248Y023013D01*
X026248Y022953D02*
X026188Y022893D01*
X026128Y022893D01*
X026248Y022953D02*
X026248Y023254D01*
X026248Y023478D02*
X026008Y023478D01*
X025882Y023538D02*
X025762Y023538D01*
X025822Y023538D02*
X025822Y023779D01*
X025762Y023779D01*
X025822Y023899D02*
X025822Y023959D01*
X025821Y024138D02*
X025761Y024138D01*
X025701Y024198D01*
X025701Y024258D01*
X025821Y024379D01*
X025821Y024439D01*
X025761Y024499D01*
X025701Y024439D01*
X025701Y024379D01*
X025941Y024138D01*
X025941Y024258D02*
X025821Y024138D01*
X025574Y023779D02*
X025634Y023718D01*
X025634Y023538D01*
X025514Y023538D02*
X025514Y023718D01*
X025574Y023779D01*
X025514Y023718D02*
X025454Y023779D01*
X025394Y023779D01*
X025394Y023538D01*
X025266Y023538D02*
X025266Y023718D01*
X025206Y023779D01*
X025146Y023718D01*
X025146Y023538D01*
X025025Y023538D02*
X025025Y023779D01*
X025085Y023779D01*
X025146Y023718D01*
X025204Y024138D02*
X025024Y024138D01*
X024964Y024198D01*
X024964Y024318D01*
X025024Y024379D01*
X025204Y024379D01*
X025204Y024499D02*
X025204Y024138D01*
X024836Y024258D02*
X024596Y024258D01*
X024596Y024198D02*
X024596Y024318D01*
X024656Y024379D01*
X024776Y024379D01*
X024836Y024318D01*
X024836Y024258D01*
X024776Y024138D02*
X024656Y024138D01*
X024596Y024198D01*
X024468Y024198D02*
X024408Y024258D01*
X024287Y024258D01*
X024227Y024318D01*
X024287Y024379D01*
X024468Y024379D01*
X024468Y024198D02*
X024408Y024138D01*
X024227Y024138D01*
X024101Y024379D02*
X024041Y024379D01*
X023920Y024258D01*
X023920Y024138D02*
X023920Y024379D01*
X023792Y024318D02*
X023792Y024258D01*
X023552Y024258D01*
X023552Y024198D02*
X023552Y024318D01*
X023612Y024379D01*
X023732Y024379D01*
X023792Y024318D01*
X023732Y024138D02*
X023612Y024138D01*
X023552Y024198D01*
X023424Y024379D02*
X023304Y024138D01*
X023184Y024379D01*
X023056Y024318D02*
X023056Y024258D01*
X022816Y024258D01*
X022816Y024198D02*
X022816Y024318D01*
X022876Y024379D01*
X022996Y024379D01*
X023056Y024318D01*
X022996Y024138D02*
X022876Y024138D01*
X022816Y024198D01*
X022687Y024138D02*
X022567Y024258D01*
X022627Y024258D02*
X022447Y024258D01*
X022447Y024138D02*
X022447Y024499D01*
X022627Y024499D01*
X022687Y024439D01*
X022687Y024318D01*
X022627Y024258D01*
X022687Y023899D02*
X022687Y023538D01*
X022567Y023658D01*
X022447Y023538D01*
X022447Y023899D01*
X022816Y023718D02*
X022816Y023598D01*
X022876Y023538D01*
X022996Y023538D01*
X023056Y023598D01*
X023056Y023718D01*
X022996Y023779D01*
X022876Y023779D01*
X022816Y023718D01*
X026376Y023779D02*
X026376Y023538D01*
X026616Y023538D02*
X026616Y023718D01*
X026556Y023779D01*
X026376Y023779D01*
X026744Y023779D02*
X026744Y023538D01*
X026744Y023658D02*
X026864Y023779D01*
X026924Y023779D01*
X027051Y023779D02*
X027051Y023598D01*
X027111Y023538D01*
X027171Y023598D01*
X027231Y023538D01*
X027291Y023598D01*
X027291Y023779D01*
X027419Y023538D02*
X027660Y023899D01*
X027788Y023899D02*
X027788Y023598D01*
X027848Y023538D01*
X027968Y023538D01*
X028028Y023598D01*
X028028Y023899D01*
X028156Y023779D02*
X028336Y023779D01*
X028396Y023718D01*
X028396Y023538D01*
X028524Y023538D02*
X028705Y023538D01*
X028765Y023598D01*
X028705Y023658D01*
X028584Y023658D01*
X028524Y023718D01*
X028584Y023779D01*
X028765Y023779D01*
X028893Y023718D02*
X028953Y023779D01*
X029073Y023779D01*
X029133Y023718D01*
X029133Y023658D01*
X028893Y023658D01*
X028893Y023598D02*
X028893Y023718D01*
X028893Y023598D02*
X028953Y023538D01*
X029073Y023538D01*
X029261Y023598D02*
X029261Y023718D01*
X029321Y023779D01*
X029441Y023779D01*
X029501Y023718D01*
X029501Y023658D01*
X029261Y023658D01*
X029261Y023598D02*
X029321Y023538D01*
X029441Y023538D01*
X029629Y023538D02*
X029629Y023779D01*
X029810Y023779D01*
X029870Y023718D01*
X029870Y023538D01*
X029810Y024018D02*
X029749Y024018D01*
X029810Y024018D02*
X029870Y024078D01*
X029870Y024379D01*
X029629Y024379D02*
X029629Y024198D01*
X029689Y024138D01*
X029870Y024138D01*
X029501Y024198D02*
X029501Y024318D01*
X029441Y024379D01*
X029261Y024379D01*
X029261Y024499D02*
X029261Y024138D01*
X029441Y024138D01*
X029501Y024198D01*
X028765Y024138D02*
X028765Y024499D01*
X028765Y024379D02*
X028584Y024379D01*
X028524Y024318D01*
X028524Y024198D01*
X028584Y024138D01*
X028765Y024138D01*
X028396Y024258D02*
X028396Y024318D01*
X028336Y024379D01*
X028216Y024379D01*
X028156Y024318D01*
X028156Y024198D01*
X028216Y024138D01*
X028336Y024138D01*
X028396Y024258D02*
X028156Y024258D01*
X028031Y024138D02*
X027971Y024198D01*
X027971Y024439D01*
X027911Y024379D02*
X028031Y024379D01*
X027782Y024318D02*
X027782Y024138D01*
X027602Y024138D01*
X027542Y024198D01*
X027602Y024258D01*
X027782Y024258D01*
X027782Y024318D02*
X027722Y024379D01*
X027602Y024379D01*
X027414Y024379D02*
X027234Y024379D01*
X027174Y024318D01*
X027174Y024198D01*
X027234Y024138D01*
X027414Y024138D01*
X027414Y024499D01*
X027046Y024318D02*
X027046Y024198D01*
X026986Y024138D01*
X026806Y024138D01*
X026806Y024018D02*
X026806Y024379D01*
X026986Y024379D01*
X027046Y024318D01*
X026678Y024379D02*
X026678Y024138D01*
X026497Y024138D01*
X026437Y024198D01*
X026437Y024379D01*
X028156Y023779D02*
X028156Y023538D01*
X028217Y023374D02*
X028217Y023013D01*
X028217Y023133D02*
X028398Y023254D01*
X028217Y023133D02*
X028398Y023013D01*
X028524Y022953D02*
X028765Y022953D01*
X028893Y022953D02*
X029133Y022953D01*
X028089Y023013D02*
X027909Y023013D01*
X027849Y023073D01*
X027849Y023193D01*
X027909Y023254D01*
X028089Y023254D01*
X027721Y023193D02*
X027661Y023254D01*
X027541Y023254D01*
X027481Y023193D01*
X027481Y023073D01*
X027541Y023013D01*
X027661Y023013D01*
X027721Y023073D01*
X027721Y023193D01*
X027353Y023193D02*
X027293Y023254D01*
X027173Y023254D01*
X027113Y023193D01*
X026984Y023254D02*
X026804Y023254D01*
X026744Y023193D01*
X026804Y023133D01*
X026924Y023133D01*
X026984Y023073D01*
X026924Y023013D01*
X026744Y023013D01*
X027113Y023013D02*
X027113Y023374D01*
X027353Y023193D02*
X027353Y023013D01*
X037354Y015211D02*
X037534Y015211D01*
X037594Y015151D01*
X037594Y014911D01*
X037534Y014851D01*
X037354Y014851D01*
X037354Y015211D01*
X037722Y015091D02*
X037843Y015211D01*
X037843Y014851D01*
X037963Y014851D02*
X037722Y014851D01*
X038354Y014851D02*
X038354Y015211D01*
X038534Y015211D01*
X038594Y015151D01*
X038594Y014911D01*
X038534Y014851D01*
X038354Y014851D01*
X038722Y014851D02*
X038963Y015091D01*
X038963Y015151D01*
X038903Y015211D01*
X038783Y015211D01*
X038722Y015151D01*
X038722Y014851D02*
X038963Y014851D01*
X041468Y013524D02*
X041588Y013524D01*
X041528Y013524D02*
X041528Y013223D01*
X041468Y013163D01*
X041408Y013163D01*
X041347Y013223D01*
X041716Y013163D02*
X041716Y013524D01*
X041896Y013524D01*
X041956Y013464D01*
X041956Y013343D01*
X041896Y013283D01*
X041716Y013283D01*
X041730Y013638D02*
X041850Y013638D01*
X041910Y013698D01*
X042038Y013638D02*
X042278Y013638D01*
X042264Y013524D02*
X042324Y013464D01*
X042324Y013404D01*
X042264Y013343D01*
X042324Y013283D01*
X042324Y013223D01*
X042264Y013163D01*
X042144Y013163D01*
X042084Y013223D01*
X042204Y013343D02*
X042264Y013343D01*
X042264Y013524D02*
X042144Y013524D01*
X042084Y013464D01*
X042158Y013638D02*
X042158Y013999D01*
X042038Y013879D01*
X041910Y013939D02*
X041850Y013999D01*
X041730Y013999D01*
X041670Y013939D01*
X041670Y013698D01*
X041730Y013638D01*
X042407Y013638D02*
X042647Y013638D01*
X042527Y013638D02*
X042527Y013999D01*
X042407Y013879D01*
X035094Y013639D02*
X035034Y013699D01*
X034914Y013699D01*
X034854Y013639D01*
X035094Y013639D02*
X035094Y013579D01*
X034854Y013338D01*
X035094Y013338D01*
X035034Y012699D02*
X035094Y012639D01*
X035094Y012579D01*
X035034Y012518D01*
X035094Y012458D01*
X035094Y012398D01*
X035034Y012338D01*
X034914Y012338D01*
X034854Y012398D01*
X034974Y012518D02*
X035034Y012518D01*
X035034Y012699D02*
X034914Y012699D01*
X034854Y012639D01*
X035034Y011699D02*
X034854Y011518D01*
X035094Y011518D01*
X035034Y011338D02*
X035034Y011699D01*
X035094Y010699D02*
X034854Y010699D01*
X034854Y010518D01*
X034974Y010579D01*
X035034Y010579D01*
X035094Y010518D01*
X035094Y010398D01*
X035034Y010338D01*
X034914Y010338D01*
X034854Y010398D01*
X034854Y014338D02*
X035094Y014338D01*
X034974Y014338D02*
X034974Y014699D01*
X034854Y014579D01*
D12*
X020064Y020255D02*
X020064Y020352D01*
X019968Y020449D01*
X019867Y020400D02*
X019867Y020352D01*
X019818Y020303D01*
X019867Y020255D01*
X019867Y020207D01*
X019818Y020158D01*
X019721Y020158D01*
X019673Y020207D01*
X019770Y020303D02*
X019818Y020303D01*
X019867Y020400D02*
X019818Y020449D01*
X019721Y020449D01*
X019673Y020400D01*
X019572Y020400D02*
X019572Y020303D01*
X019523Y020255D01*
X019378Y020255D01*
X019378Y020158D02*
X019378Y020449D01*
X019523Y020449D01*
X019572Y020400D01*
X019525Y020638D02*
X019477Y020687D01*
X019477Y020880D01*
X019525Y020929D01*
X019622Y020929D01*
X019670Y020880D01*
X019670Y020687D01*
X019622Y020638D01*
X019525Y020638D01*
X019375Y020638D02*
X019279Y020735D01*
X019327Y020735D02*
X019182Y020735D01*
X019182Y020638D02*
X019182Y020929D01*
X019327Y020929D01*
X019375Y020880D01*
X019375Y020783D01*
X019327Y020735D01*
X019277Y020449D02*
X019180Y020449D01*
X019229Y020449D02*
X019229Y020207D01*
X019180Y020158D01*
X019132Y020158D01*
X019084Y020207D01*
X018983Y020449D02*
X018789Y020158D01*
X018688Y020158D02*
X018494Y020158D01*
X018688Y020352D01*
X018688Y020400D01*
X018640Y020449D01*
X018543Y020449D01*
X018494Y020400D01*
X018393Y020400D02*
X018393Y020303D01*
X018345Y020255D01*
X018200Y020255D01*
X018200Y020158D02*
X018200Y020449D01*
X018345Y020449D01*
X018393Y020400D01*
X018346Y020638D02*
X018298Y020687D01*
X018491Y020880D01*
X018491Y020687D01*
X018443Y020638D01*
X018346Y020638D01*
X018298Y020687D02*
X018298Y020880D01*
X018346Y020929D01*
X018443Y020929D01*
X018491Y020880D01*
X018593Y020880D02*
X018641Y020929D01*
X018738Y020929D01*
X018786Y020880D01*
X018593Y020687D01*
X018641Y020638D01*
X018738Y020638D01*
X018786Y020687D01*
X018786Y020880D01*
X018593Y020880D02*
X018593Y020687D01*
X018197Y020687D02*
X018197Y020880D01*
X018003Y020687D01*
X018052Y020638D01*
X018148Y020638D01*
X018197Y020687D01*
X018197Y020880D02*
X018148Y020929D01*
X018052Y020929D01*
X018003Y020880D01*
X018003Y020687D01*
X017902Y020638D02*
X017709Y020638D01*
X017709Y020929D01*
X017902Y020929D01*
X017805Y020783D02*
X017709Y020783D01*
X017608Y020735D02*
X017559Y020783D01*
X017462Y020783D01*
X017414Y020832D01*
X017414Y020880D01*
X017462Y020929D01*
X017559Y020929D01*
X017608Y020880D01*
X017511Y020977D02*
X017511Y020590D01*
X017559Y020638D02*
X017608Y020687D01*
X017608Y020735D01*
X017559Y020638D02*
X017462Y020638D01*
X017414Y020687D01*
X017462Y020400D02*
X017462Y020207D01*
X017511Y020158D01*
X017511Y020352D02*
X017414Y020352D01*
X017313Y020303D02*
X017313Y020255D01*
X017119Y020255D01*
X017119Y020207D02*
X017119Y020303D01*
X017168Y020352D01*
X017264Y020352D01*
X017313Y020303D01*
X017264Y020158D02*
X017168Y020158D01*
X017119Y020207D01*
X017018Y020207D02*
X016970Y020255D01*
X016873Y020255D01*
X016825Y020303D01*
X016873Y020352D01*
X017018Y020352D01*
X017018Y020207D02*
X016970Y020158D01*
X016825Y020158D01*
X016725Y020158D02*
X016628Y020255D01*
X016628Y020352D01*
X016725Y020449D01*
X016724Y020638D02*
X016578Y020638D01*
X016530Y020687D01*
X016530Y020783D01*
X016578Y020832D01*
X016724Y020832D01*
X016825Y020783D02*
X016873Y020832D01*
X016970Y020832D01*
X017018Y020783D01*
X017018Y020735D01*
X016825Y020735D01*
X016825Y020687D02*
X016825Y020783D01*
X016825Y020687D02*
X016873Y020638D01*
X016970Y020638D01*
X016970Y021118D02*
X016873Y021118D01*
X016825Y021167D01*
X016825Y021263D01*
X016873Y021312D01*
X016970Y021312D01*
X017018Y021263D01*
X017018Y021215D01*
X016825Y021215D01*
X016724Y021118D02*
X016578Y021118D01*
X016530Y021167D01*
X016530Y021263D01*
X016578Y021312D01*
X016724Y021312D01*
X016724Y021598D02*
X016578Y021598D01*
X016530Y021647D01*
X016530Y021743D01*
X016578Y021792D01*
X016724Y021792D01*
X016825Y021743D02*
X016873Y021792D01*
X016970Y021792D01*
X017018Y021743D01*
X017018Y021695D01*
X016825Y021695D01*
X016825Y021647D02*
X016825Y021743D01*
X016825Y021647D02*
X016873Y021598D01*
X016970Y021598D01*
X017414Y021647D02*
X017462Y021598D01*
X017559Y021598D01*
X017608Y021647D01*
X017608Y021695D01*
X017559Y021743D01*
X017462Y021743D01*
X017414Y021792D01*
X017414Y021840D01*
X017462Y021889D01*
X017559Y021889D01*
X017608Y021840D01*
X017709Y021840D02*
X017757Y021889D01*
X017854Y021889D01*
X017902Y021840D01*
X017709Y021647D01*
X017757Y021598D01*
X017854Y021598D01*
X017902Y021647D01*
X017902Y021840D01*
X018003Y021840D02*
X018003Y021647D01*
X018197Y021840D01*
X018197Y021647D01*
X018148Y021598D01*
X018052Y021598D01*
X018003Y021647D01*
X018003Y021840D02*
X018052Y021889D01*
X018148Y021889D01*
X018197Y021840D01*
X018298Y021840D02*
X018346Y021889D01*
X018443Y021889D01*
X018491Y021840D01*
X018298Y021647D01*
X018346Y021598D01*
X018443Y021598D01*
X018491Y021647D01*
X018491Y021840D01*
X018593Y021840D02*
X018641Y021889D01*
X018738Y021889D01*
X018786Y021840D01*
X018593Y021647D01*
X018641Y021598D01*
X018738Y021598D01*
X018786Y021647D01*
X018786Y021840D01*
X018593Y021840D02*
X018593Y021647D01*
X018641Y021409D02*
X018738Y021409D01*
X018786Y021360D01*
X018593Y021167D01*
X018641Y021118D01*
X018738Y021118D01*
X018786Y021167D01*
X018786Y021360D01*
X018641Y021409D02*
X018593Y021360D01*
X018593Y021167D01*
X018491Y021167D02*
X018443Y021118D01*
X018346Y021118D01*
X018298Y021167D01*
X018491Y021360D01*
X018491Y021167D01*
X018298Y021167D02*
X018298Y021360D01*
X018346Y021409D01*
X018443Y021409D01*
X018491Y021360D01*
X018197Y021360D02*
X018148Y021409D01*
X018052Y021409D01*
X018003Y021360D01*
X018003Y021167D01*
X018197Y021360D01*
X018197Y021167D01*
X018148Y021118D01*
X018052Y021118D01*
X018003Y021167D01*
X017902Y021167D02*
X017854Y021118D01*
X017757Y021118D01*
X017709Y021167D01*
X017709Y021360D01*
X017757Y021409D01*
X017854Y021409D01*
X017902Y021360D01*
X017608Y021360D02*
X017559Y021409D01*
X017462Y021409D01*
X017414Y021360D01*
X017414Y021312D01*
X017462Y021263D01*
X017559Y021263D01*
X017608Y021215D01*
X017608Y021167D01*
X017559Y021118D01*
X017462Y021118D01*
X017414Y021167D01*
X017511Y021070D02*
X017511Y021457D01*
X017511Y021550D02*
X017511Y021937D01*
X017610Y022078D02*
X017561Y022127D01*
X017561Y022223D01*
X017610Y022272D01*
X017755Y022272D01*
X017755Y022369D02*
X017755Y022078D01*
X017610Y022078D01*
X017460Y022175D02*
X017267Y022175D01*
X017267Y022127D02*
X017267Y022223D01*
X017315Y022272D01*
X017412Y022272D01*
X017460Y022223D01*
X017460Y022175D01*
X017412Y022078D02*
X017315Y022078D01*
X017267Y022127D01*
X017167Y022078D02*
X017070Y022078D01*
X017119Y022078D02*
X017119Y022369D01*
X017070Y022369D01*
X016969Y022223D02*
X016921Y022272D01*
X016776Y022272D01*
X016776Y022369D02*
X016776Y022078D01*
X016921Y022078D01*
X016969Y022127D01*
X016969Y022223D01*
X016674Y022223D02*
X016674Y022078D01*
X016529Y022078D01*
X016481Y022127D01*
X016529Y022175D01*
X016674Y022175D01*
X016674Y022223D02*
X016626Y022272D01*
X016529Y022272D01*
X016380Y022223D02*
X016380Y022078D01*
X016380Y022223D02*
X016331Y022272D01*
X016186Y022272D01*
X016186Y022078D01*
X016085Y022175D02*
X015892Y022175D01*
X015892Y022127D02*
X015892Y022223D01*
X015940Y022272D01*
X016037Y022272D01*
X016085Y022223D01*
X016085Y022175D01*
X016037Y022078D02*
X015940Y022078D01*
X015892Y022127D01*
X016039Y021889D02*
X016087Y021889D01*
X016087Y021598D01*
X016039Y021598D02*
X016136Y021598D01*
X016235Y021647D02*
X016284Y021695D01*
X016429Y021695D01*
X016429Y021743D02*
X016429Y021598D01*
X016284Y021598D01*
X016235Y021647D01*
X016284Y021792D02*
X016381Y021792D01*
X016429Y021743D01*
X016087Y021409D02*
X016087Y021118D01*
X016039Y021118D02*
X016136Y021118D01*
X016235Y021167D02*
X016284Y021118D01*
X016429Y021118D01*
X016429Y021263D01*
X016381Y021312D01*
X016284Y021312D01*
X016284Y021215D02*
X016429Y021215D01*
X016284Y021215D02*
X016235Y021167D01*
X016087Y020929D02*
X016087Y020638D01*
X016039Y020638D02*
X016136Y020638D01*
X016235Y020687D02*
X016284Y020735D01*
X016429Y020735D01*
X016429Y020783D02*
X016429Y020638D01*
X016284Y020638D01*
X016235Y020687D01*
X016284Y020832D02*
X016381Y020832D01*
X016429Y020783D01*
X016087Y020929D02*
X016039Y020929D01*
X015938Y020783D02*
X015938Y020687D01*
X015889Y020638D01*
X015744Y020638D01*
X015744Y020542D02*
X015744Y020832D01*
X015889Y020832D01*
X015938Y020783D01*
X015643Y020783D02*
X015643Y020735D01*
X015450Y020735D01*
X015450Y020687D02*
X015450Y020783D01*
X015498Y020832D01*
X015595Y020832D01*
X015643Y020783D01*
X015595Y020638D02*
X015498Y020638D01*
X015450Y020687D01*
X015349Y020832D02*
X015301Y020832D01*
X015204Y020735D01*
X015204Y020638D02*
X015204Y020832D01*
X015204Y021118D02*
X015204Y021312D01*
X015204Y021215D02*
X015301Y021312D01*
X015349Y021312D01*
X015450Y021263D02*
X015498Y021312D01*
X015595Y021312D01*
X015643Y021263D01*
X015643Y021215D01*
X015450Y021215D01*
X015450Y021167D02*
X015450Y021263D01*
X015450Y021167D02*
X015498Y021118D01*
X015595Y021118D01*
X015744Y021118D02*
X015889Y021118D01*
X015938Y021167D01*
X015938Y021263D01*
X015889Y021312D01*
X015744Y021312D01*
X015744Y021022D01*
X014810Y021118D02*
X014761Y021167D01*
X014761Y021360D01*
X014713Y021312D02*
X014810Y021312D01*
X014614Y021360D02*
X014614Y021457D01*
X014614Y021360D02*
X014566Y021312D01*
X014465Y021263D02*
X014465Y021118D01*
X014465Y021263D02*
X014416Y021312D01*
X014271Y021312D01*
X014271Y021118D01*
X014170Y021167D02*
X014170Y021263D01*
X014122Y021312D01*
X014025Y021312D01*
X013976Y021263D01*
X013976Y021167D01*
X014025Y021118D01*
X014122Y021118D01*
X014170Y021167D01*
X013875Y021118D02*
X013730Y021118D01*
X013682Y021167D01*
X013682Y021263D01*
X013730Y021312D01*
X013875Y021312D01*
X013875Y021409D02*
X013875Y021118D01*
X013875Y020929D02*
X013875Y020638D01*
X013730Y020638D01*
X013682Y020687D01*
X013682Y020783D01*
X013730Y020832D01*
X013875Y020832D01*
X013976Y020783D02*
X013976Y020687D01*
X014025Y020638D01*
X014122Y020638D01*
X014170Y020687D01*
X014170Y020783D01*
X014122Y020832D01*
X014025Y020832D01*
X013976Y020783D01*
X014271Y020832D02*
X014416Y020832D01*
X014465Y020783D01*
X014465Y020638D01*
X014465Y020449D02*
X014465Y020400D01*
X014271Y020207D01*
X014271Y020158D01*
X014170Y020207D02*
X014122Y020158D01*
X014025Y020158D01*
X013976Y020207D01*
X013976Y020303D02*
X014073Y020352D01*
X014122Y020352D01*
X014170Y020303D01*
X014170Y020207D01*
X013976Y020303D02*
X013976Y020449D01*
X014170Y020449D01*
X014271Y020449D02*
X014465Y020449D01*
X014566Y020352D02*
X014662Y020449D01*
X014662Y020158D01*
X014566Y020158D02*
X014759Y020158D01*
X015155Y020158D02*
X015155Y020352D01*
X015203Y020352D01*
X015252Y020303D01*
X015300Y020352D01*
X015349Y020303D01*
X015349Y020158D01*
X015252Y020158D02*
X015252Y020303D01*
X015450Y020303D02*
X015498Y020352D01*
X015595Y020352D01*
X015643Y020303D01*
X015643Y020207D01*
X015595Y020158D01*
X015498Y020158D01*
X015450Y020207D01*
X015450Y020303D01*
X015744Y020303D02*
X015793Y020352D01*
X015938Y020352D01*
X015938Y020449D02*
X015938Y020158D01*
X015793Y020158D01*
X015744Y020207D01*
X015744Y020303D01*
X016039Y020303D02*
X016087Y020352D01*
X016184Y020352D01*
X016232Y020303D01*
X016232Y020255D01*
X016039Y020255D01*
X016039Y020207D02*
X016039Y020303D01*
X016039Y020207D02*
X016087Y020158D01*
X016184Y020158D01*
X014810Y020638D02*
X014761Y020687D01*
X014761Y020880D01*
X014713Y020832D02*
X014810Y020832D01*
X014614Y020880D02*
X014566Y020832D01*
X014614Y020880D02*
X014614Y020977D01*
X014271Y020832D02*
X014271Y020638D01*
X013779Y020449D02*
X013779Y020158D01*
X013875Y020158D02*
X013682Y020158D01*
X013682Y020352D02*
X013779Y020449D01*
X013286Y020449D02*
X013092Y020449D01*
X013092Y020303D01*
X013189Y020352D01*
X013238Y020352D01*
X013286Y020303D01*
X013286Y020207D01*
X013238Y020158D01*
X013141Y020158D01*
X013092Y020207D01*
X013238Y020638D02*
X013238Y020929D01*
X013092Y020783D01*
X013286Y020783D01*
X013238Y021118D02*
X013141Y021118D01*
X013092Y021167D01*
X013189Y021263D02*
X013238Y021263D01*
X013286Y021215D01*
X013286Y021167D01*
X013238Y021118D01*
X013238Y021263D02*
X013286Y021312D01*
X013286Y021360D01*
X013238Y021409D01*
X013141Y021409D01*
X013092Y021360D01*
X013092Y021598D02*
X013286Y021792D01*
X013286Y021840D01*
X013238Y021889D01*
X013141Y021889D01*
X013092Y021840D01*
X013092Y022078D02*
X013286Y022078D01*
X013189Y022078D02*
X013189Y022369D01*
X013092Y022272D01*
X013141Y022558D02*
X013189Y022558D01*
X013238Y022607D01*
X013238Y022849D01*
X013286Y022849D02*
X013189Y022849D01*
X013387Y022849D02*
X013532Y022849D01*
X013581Y022800D01*
X013581Y022703D01*
X013532Y022655D01*
X013387Y022655D01*
X013387Y022558D02*
X013387Y022849D01*
X013682Y022752D02*
X013779Y022849D01*
X013779Y022558D01*
X013875Y022558D02*
X013682Y022558D01*
X013682Y022369D02*
X013827Y022369D01*
X013875Y022320D01*
X013875Y022223D01*
X013827Y022175D01*
X013682Y022175D01*
X013682Y022078D02*
X013682Y022369D01*
X013976Y022272D02*
X013976Y022078D01*
X013976Y022175D02*
X014073Y022272D01*
X014122Y022272D01*
X014222Y022223D02*
X014222Y022127D01*
X014270Y022078D01*
X014367Y022078D01*
X014415Y022127D01*
X014415Y022223D01*
X014367Y022272D01*
X014270Y022272D01*
X014222Y022223D01*
X014517Y022223D02*
X014613Y022223D01*
X014565Y022320D02*
X014613Y022369D01*
X014565Y022320D02*
X014565Y022078D01*
X014713Y022078D02*
X014858Y022078D01*
X014907Y022127D01*
X014907Y022320D01*
X014858Y022369D01*
X014713Y022369D01*
X014713Y022078D01*
X014614Y021937D02*
X014614Y021840D01*
X014566Y021792D01*
X014465Y021743D02*
X014465Y021598D01*
X014465Y021743D02*
X014416Y021792D01*
X014271Y021792D01*
X014271Y021598D01*
X014170Y021647D02*
X014170Y021743D01*
X014122Y021792D01*
X014025Y021792D01*
X013976Y021743D01*
X013976Y021647D01*
X014025Y021598D01*
X014122Y021598D01*
X014170Y021647D01*
X013875Y021598D02*
X013730Y021598D01*
X013682Y021647D01*
X013682Y021743D01*
X013730Y021792D01*
X013875Y021792D01*
X013875Y021889D02*
X013875Y021598D01*
X013286Y021598D02*
X013092Y021598D01*
X014713Y021792D02*
X014810Y021792D01*
X014761Y021840D02*
X014761Y021647D01*
X014810Y021598D01*
X015204Y021598D02*
X015204Y021792D01*
X015204Y021695D02*
X015301Y021792D01*
X015349Y021792D01*
X015450Y021743D02*
X015498Y021792D01*
X015595Y021792D01*
X015643Y021743D01*
X015643Y021695D01*
X015450Y021695D01*
X015450Y021647D02*
X015450Y021743D01*
X015450Y021647D02*
X015498Y021598D01*
X015595Y021598D01*
X015744Y021598D02*
X015889Y021598D01*
X015938Y021647D01*
X015938Y021743D01*
X015889Y021792D01*
X015744Y021792D01*
X015744Y021502D01*
X016039Y021409D02*
X016087Y021409D01*
X015447Y022078D02*
X015351Y022078D01*
X015302Y022127D01*
X015201Y022127D02*
X015201Y022320D01*
X015153Y022369D01*
X015056Y022369D01*
X015008Y022320D01*
X015008Y022127D01*
X015056Y022078D01*
X015153Y022078D01*
X015201Y022127D01*
X015302Y022272D02*
X015351Y022223D01*
X015447Y022223D01*
X015496Y022175D01*
X015496Y022127D01*
X015447Y022078D01*
X015302Y022272D02*
X015302Y022320D01*
X015351Y022369D01*
X015447Y022369D01*
X015496Y022320D01*
X015548Y022558D02*
X015548Y022752D01*
X015693Y022752D01*
X015741Y022703D01*
X015741Y022558D01*
X015843Y022558D02*
X015988Y022558D01*
X016036Y022607D01*
X015988Y022655D01*
X015891Y022655D01*
X015843Y022703D01*
X015891Y022752D01*
X016036Y022752D01*
X016432Y022752D02*
X016432Y022655D01*
X016529Y022558D01*
X016628Y022462D02*
X016677Y022462D01*
X016725Y022510D01*
X016725Y022752D01*
X016725Y022849D02*
X016725Y022897D01*
X016825Y022752D02*
X016825Y022607D01*
X016873Y022558D01*
X017018Y022558D01*
X017018Y022752D01*
X017119Y022752D02*
X017168Y022752D01*
X017216Y022703D01*
X017264Y022752D01*
X017313Y022703D01*
X017313Y022558D01*
X017216Y022558D02*
X017216Y022703D01*
X017119Y022752D02*
X017119Y022558D01*
X017414Y022558D02*
X017559Y022558D01*
X017608Y022607D01*
X017608Y022703D01*
X017559Y022752D01*
X017414Y022752D01*
X017414Y022462D01*
X017709Y022607D02*
X017709Y022703D01*
X017757Y022752D01*
X017854Y022752D01*
X017902Y022703D01*
X017902Y022655D01*
X017709Y022655D01*
X017709Y022607D02*
X017757Y022558D01*
X017854Y022558D01*
X018003Y022558D02*
X018003Y022752D01*
X018003Y022655D02*
X018100Y022752D01*
X018148Y022752D01*
X018249Y022703D02*
X018297Y022752D01*
X018442Y022752D01*
X018394Y022655D02*
X018297Y022655D01*
X018249Y022703D01*
X018249Y022558D02*
X018394Y022558D01*
X018442Y022607D01*
X018394Y022655D01*
X018838Y022703D02*
X018887Y022752D01*
X019032Y022752D01*
X018983Y022655D02*
X018887Y022655D01*
X018838Y022703D01*
X018838Y022558D02*
X018983Y022558D01*
X019032Y022607D01*
X018983Y022655D01*
X019133Y022655D02*
X019326Y022655D01*
X019326Y022703D01*
X019278Y022752D01*
X019181Y022752D01*
X019133Y022703D01*
X019133Y022607D01*
X019181Y022558D01*
X019278Y022558D01*
X019476Y022607D02*
X019524Y022558D01*
X019476Y022607D02*
X019476Y022800D01*
X019524Y022752D02*
X019427Y022752D01*
X019624Y022849D02*
X019721Y022752D01*
X019721Y022655D01*
X019624Y022558D01*
X019820Y022558D02*
X019820Y022607D01*
X019869Y022607D01*
X019869Y022558D01*
X019820Y022558D01*
X019820Y022703D02*
X019820Y022752D01*
X019869Y022752D01*
X019869Y022703D01*
X019820Y022703D01*
X019771Y021889D02*
X019868Y021792D01*
X019965Y021889D01*
X019965Y021598D01*
X019965Y021409D02*
X019965Y021118D01*
X019965Y020929D02*
X019965Y020638D01*
X019771Y020638D02*
X019771Y020929D01*
X019868Y020832D01*
X019965Y020929D01*
X019771Y021118D02*
X019771Y021409D01*
X019868Y021312D01*
X019965Y021409D01*
X019771Y021598D02*
X019771Y021889D01*
X019670Y021792D02*
X019670Y021598D01*
X019670Y021743D02*
X019477Y021743D01*
X019477Y021792D02*
X019573Y021889D01*
X019670Y021792D01*
X019477Y021792D02*
X019477Y021598D01*
X019375Y021598D02*
X019279Y021695D01*
X019327Y021695D02*
X019182Y021695D01*
X019182Y021598D02*
X019182Y021889D01*
X019327Y021889D01*
X019375Y021840D01*
X019375Y021743D01*
X019327Y021695D01*
X019327Y021409D02*
X019375Y021360D01*
X019375Y021263D01*
X019327Y021215D01*
X019182Y021215D01*
X019279Y021215D02*
X019375Y021118D01*
X019477Y021167D02*
X019525Y021118D01*
X019622Y021118D01*
X019670Y021167D01*
X019670Y021360D01*
X019622Y021409D01*
X019525Y021409D01*
X019477Y021360D01*
X019477Y021167D01*
X019327Y021409D02*
X019182Y021409D01*
X019182Y021118D01*
X018298Y021647D02*
X018298Y021840D01*
X017709Y021840D02*
X017709Y021647D01*
X018002Y020449D02*
X018099Y020449D01*
X018050Y020449D02*
X018050Y020207D01*
X018002Y020158D01*
X017953Y020158D01*
X017905Y020207D01*
X019968Y020158D02*
X020064Y020255D01*
X015447Y022607D02*
X015447Y022703D01*
X015398Y022752D01*
X015302Y022752D01*
X015253Y022703D01*
X015253Y022607D01*
X015302Y022558D01*
X015398Y022558D01*
X015447Y022607D01*
X015154Y022558D02*
X015057Y022558D01*
X015105Y022558D02*
X015105Y022752D01*
X015057Y022752D01*
X014957Y022752D02*
X014860Y022752D01*
X014909Y022800D02*
X014909Y022607D01*
X014957Y022558D01*
X014759Y022607D02*
X014711Y022558D01*
X014566Y022558D01*
X014566Y022462D02*
X014566Y022752D01*
X014711Y022752D01*
X014759Y022703D01*
X014759Y022607D01*
X014465Y022607D02*
X014465Y022703D01*
X014416Y022752D01*
X014319Y022752D01*
X014271Y022703D01*
X014271Y022607D01*
X014319Y022558D01*
X014416Y022558D01*
X014465Y022607D01*
X015105Y022849D02*
X015105Y022897D01*
X016432Y022752D02*
X016529Y022849D01*
X013141Y022558D02*
X013092Y022607D01*
X014444Y007897D02*
X014444Y007510D01*
X014492Y007558D02*
X014540Y007607D01*
X014540Y007655D01*
X014492Y007703D01*
X014395Y007703D01*
X014347Y007752D01*
X014347Y007800D01*
X014395Y007849D01*
X014492Y007849D01*
X014540Y007800D01*
X014642Y007800D02*
X014690Y007849D01*
X014787Y007849D01*
X014835Y007800D01*
X014642Y007607D01*
X014690Y007558D01*
X014787Y007558D01*
X014835Y007607D01*
X014835Y007800D01*
X014936Y007800D02*
X014985Y007849D01*
X015081Y007849D01*
X015130Y007800D01*
X014936Y007607D01*
X014985Y007558D01*
X015081Y007558D01*
X015130Y007607D01*
X015130Y007800D01*
X015231Y007800D02*
X015279Y007849D01*
X015376Y007849D01*
X015424Y007800D01*
X015231Y007607D01*
X015279Y007558D01*
X015376Y007558D01*
X015424Y007607D01*
X015424Y007800D01*
X015525Y007800D02*
X015574Y007849D01*
X015671Y007849D01*
X015719Y007800D01*
X015525Y007607D01*
X015574Y007558D01*
X015671Y007558D01*
X015719Y007607D01*
X015719Y007800D01*
X015820Y007703D02*
X016014Y007703D01*
X016115Y007752D02*
X016115Y007800D01*
X016163Y007849D01*
X016260Y007849D01*
X016308Y007800D01*
X016260Y007703D02*
X016163Y007703D01*
X016115Y007752D01*
X016115Y007607D02*
X016163Y007558D01*
X016260Y007558D01*
X016308Y007607D01*
X016308Y007655D01*
X016260Y007703D01*
X016409Y007752D02*
X016506Y007849D01*
X016506Y007558D01*
X016409Y007558D02*
X016603Y007558D01*
X016704Y007558D02*
X016704Y007849D01*
X016898Y007849D01*
X016999Y007849D02*
X017192Y007849D01*
X017293Y007849D02*
X017487Y007849D01*
X017390Y007703D02*
X017293Y007703D01*
X017293Y007558D02*
X017293Y007849D01*
X017095Y007703D02*
X016999Y007703D01*
X016999Y007558D02*
X016999Y007849D01*
X016801Y007703D02*
X016704Y007703D01*
X016212Y007897D02*
X016212Y007510D01*
X016260Y007369D02*
X016308Y007320D01*
X016308Y007223D01*
X016260Y007175D01*
X016115Y007175D01*
X016212Y007175D02*
X016308Y007078D01*
X016409Y007127D02*
X016409Y007320D01*
X016458Y007369D01*
X016555Y007369D01*
X016603Y007320D01*
X016603Y007127D01*
X016555Y007078D01*
X016458Y007078D01*
X016409Y007127D01*
X016458Y006889D02*
X016555Y006889D01*
X016603Y006840D01*
X016603Y006792D01*
X016555Y006743D01*
X016603Y006695D01*
X016603Y006647D01*
X016555Y006598D01*
X016458Y006598D01*
X016409Y006647D01*
X016308Y006647D02*
X016260Y006598D01*
X016163Y006598D01*
X016115Y006647D01*
X016163Y006743D02*
X016115Y006792D01*
X016115Y006840D01*
X016163Y006889D01*
X016260Y006889D01*
X016308Y006840D01*
X016409Y006840D02*
X016458Y006889D01*
X016506Y006743D02*
X016555Y006743D01*
X016704Y006743D02*
X016801Y006743D01*
X016704Y006598D02*
X016704Y006889D01*
X016898Y006889D01*
X016999Y006889D02*
X017192Y006889D01*
X017293Y006889D02*
X017487Y006889D01*
X017390Y006743D02*
X017293Y006743D01*
X017293Y006598D02*
X017293Y006889D01*
X017095Y006743D02*
X016999Y006743D01*
X016999Y006598D02*
X016999Y006889D01*
X016898Y007078D02*
X016898Y007369D01*
X016801Y007272D01*
X016704Y007369D01*
X016704Y007078D01*
X016212Y006937D02*
X016212Y006550D01*
X016308Y006647D02*
X016308Y006695D01*
X016260Y006743D01*
X016163Y006743D01*
X016014Y006743D02*
X015820Y006743D01*
X015719Y006647D02*
X015671Y006598D01*
X015574Y006598D01*
X015525Y006647D01*
X015719Y006840D01*
X015719Y006647D01*
X015719Y006840D02*
X015671Y006889D01*
X015574Y006889D01*
X015525Y006840D01*
X015525Y006647D01*
X015424Y006647D02*
X015376Y006598D01*
X015279Y006598D01*
X015231Y006647D01*
X015424Y006840D01*
X015424Y006647D01*
X015424Y006840D02*
X015376Y006889D01*
X015279Y006889D01*
X015231Y006840D01*
X015231Y006647D01*
X015130Y006647D02*
X015081Y006598D01*
X014985Y006598D01*
X014936Y006647D01*
X015130Y006840D01*
X015130Y006647D01*
X015130Y006840D02*
X015081Y006889D01*
X014985Y006889D01*
X014936Y006840D01*
X014936Y006647D01*
X014835Y006598D02*
X014642Y006598D01*
X014835Y006792D01*
X014835Y006840D01*
X014787Y006889D01*
X014690Y006889D01*
X014642Y006840D01*
X014540Y006840D02*
X014492Y006889D01*
X014395Y006889D01*
X014347Y006840D01*
X014347Y006792D01*
X014395Y006743D01*
X014492Y006743D01*
X014540Y006695D01*
X014540Y006647D01*
X014492Y006598D01*
X014395Y006598D01*
X014347Y006647D01*
X014444Y006550D02*
X014444Y006937D01*
X014936Y007078D02*
X014936Y007369D01*
X014936Y007607D02*
X014936Y007800D01*
X014642Y007800D02*
X014642Y007607D01*
X014492Y007558D02*
X014395Y007558D01*
X014347Y007607D01*
X015231Y007607D02*
X015231Y007800D01*
X015525Y007800D02*
X015525Y007607D01*
X015525Y007272D02*
X015525Y007127D01*
X015574Y007078D01*
X015622Y007127D01*
X015671Y007078D01*
X015719Y007127D01*
X015719Y007272D01*
X015424Y007223D02*
X015376Y007272D01*
X015279Y007272D01*
X015231Y007223D01*
X015231Y007127D01*
X015279Y007078D01*
X015376Y007078D01*
X015424Y007127D01*
X015424Y007223D01*
X015130Y007078D02*
X014936Y007078D01*
X015181Y006457D02*
X015181Y006409D01*
X015181Y006312D02*
X015181Y006118D01*
X015133Y006118D02*
X015229Y006118D01*
X015329Y006167D02*
X015377Y006118D01*
X015523Y006118D01*
X015523Y006070D02*
X015523Y006312D01*
X015377Y006312D01*
X015329Y006263D01*
X015329Y006167D01*
X015426Y006022D02*
X015474Y006022D01*
X015523Y006070D01*
X015624Y006118D02*
X015624Y006409D01*
X015672Y006312D02*
X015769Y006312D01*
X015817Y006263D01*
X015817Y006118D01*
X015671Y005929D02*
X015719Y005880D01*
X015525Y005687D01*
X015574Y005638D01*
X015671Y005638D01*
X015719Y005687D01*
X015719Y005880D01*
X015671Y005929D02*
X015574Y005929D01*
X015525Y005880D01*
X015525Y005687D01*
X015424Y005687D02*
X015376Y005638D01*
X015279Y005638D01*
X015231Y005687D01*
X015424Y005880D01*
X015424Y005687D01*
X015231Y005687D02*
X015231Y005880D01*
X015279Y005929D01*
X015376Y005929D01*
X015424Y005880D01*
X015130Y005880D02*
X014936Y005687D01*
X014985Y005638D01*
X015081Y005638D01*
X015130Y005687D01*
X015130Y005880D01*
X015081Y005929D01*
X014985Y005929D01*
X014936Y005880D01*
X014936Y005687D01*
X014835Y005783D02*
X014642Y005783D01*
X014787Y005929D01*
X014787Y005638D01*
X014540Y005687D02*
X014540Y005735D01*
X014492Y005783D01*
X014395Y005783D01*
X014347Y005832D01*
X014347Y005880D01*
X014395Y005929D01*
X014492Y005929D01*
X014540Y005880D01*
X014444Y005977D02*
X014444Y005590D01*
X014492Y005638D02*
X014540Y005687D01*
X014492Y005638D02*
X014395Y005638D01*
X014347Y005687D01*
X015010Y005449D02*
X015155Y005449D01*
X015203Y005400D01*
X015203Y005303D01*
X015155Y005255D01*
X015010Y005255D01*
X015010Y005158D02*
X015010Y005449D01*
X015304Y005352D02*
X015304Y005158D01*
X015304Y005255D02*
X015401Y005352D01*
X015450Y005352D01*
X015550Y005303D02*
X015550Y005207D01*
X015598Y005158D01*
X015695Y005158D01*
X015744Y005207D01*
X015744Y005303D01*
X015695Y005352D01*
X015598Y005352D01*
X015550Y005303D01*
X015845Y005303D02*
X015941Y005303D01*
X015893Y005400D02*
X015941Y005449D01*
X015893Y005400D02*
X015893Y005158D01*
X016041Y005158D02*
X016186Y005158D01*
X016235Y005207D01*
X016235Y005400D01*
X016186Y005449D01*
X016041Y005449D01*
X016041Y005158D01*
X016336Y005207D02*
X016336Y005400D01*
X016384Y005449D01*
X016481Y005449D01*
X016529Y005400D01*
X016529Y005207D01*
X016481Y005158D01*
X016384Y005158D01*
X016336Y005207D01*
X016630Y005207D02*
X016679Y005158D01*
X016776Y005158D01*
X016824Y005207D01*
X016824Y005255D01*
X016776Y005303D01*
X016679Y005303D01*
X016630Y005352D01*
X016630Y005400D01*
X016679Y005449D01*
X016776Y005449D01*
X016824Y005400D01*
X016704Y005638D02*
X016704Y005929D01*
X016898Y005929D01*
X016999Y005929D02*
X017192Y005929D01*
X017293Y005929D02*
X017487Y005929D01*
X017390Y005783D02*
X017293Y005783D01*
X017293Y005638D02*
X017293Y005929D01*
X017095Y005783D02*
X016999Y005783D01*
X016999Y005638D02*
X016999Y005929D01*
X016996Y006118D02*
X016996Y006409D01*
X016899Y006312D01*
X016802Y006409D01*
X016802Y006118D01*
X016701Y006167D02*
X016701Y006360D01*
X016653Y006409D01*
X016556Y006409D01*
X016508Y006360D01*
X016508Y006167D01*
X016556Y006118D01*
X016653Y006118D01*
X016701Y006167D01*
X016603Y005929D02*
X016603Y005880D01*
X016409Y005687D01*
X016409Y005638D01*
X016308Y005687D02*
X016308Y005735D01*
X016260Y005783D01*
X016163Y005783D01*
X016115Y005832D01*
X016115Y005880D01*
X016163Y005929D01*
X016260Y005929D01*
X016308Y005880D01*
X016409Y005929D02*
X016603Y005929D01*
X016704Y005783D02*
X016801Y005783D01*
X016308Y005687D02*
X016260Y005638D01*
X016163Y005638D01*
X016115Y005687D01*
X016212Y005590D02*
X016212Y005977D01*
X016213Y006118D02*
X016213Y006409D01*
X016358Y006409D01*
X016406Y006360D01*
X016406Y006263D01*
X016358Y006215D01*
X016213Y006215D01*
X016310Y006215D02*
X016406Y006118D01*
X016014Y005783D02*
X015820Y005783D01*
X015624Y006263D02*
X015672Y006312D01*
X015181Y006312D02*
X015133Y006312D01*
X015031Y006263D02*
X014838Y006263D01*
X014838Y006118D02*
X014838Y006409D01*
X015031Y006409D02*
X015031Y006118D01*
X016115Y007078D02*
X016115Y007369D01*
X016260Y007369D01*
D13*
X018827Y007268D02*
X018827Y007018D01*
X019077Y007018D01*
X018827Y007268D01*
X018827Y007518D01*
X019327Y007018D01*
X019327Y007268D01*
X018827Y007768D01*
X018827Y007518D01*
X018827Y007768D02*
X018827Y008018D01*
X019327Y007518D01*
X019327Y007768D01*
X019327Y008018D01*
X019202Y008143D01*
X019077Y008143D01*
X018952Y008143D01*
X019327Y007768D01*
X019327Y008018D01*
X019327Y008143D01*
X019202Y008143D01*
X019077Y008268D02*
X018827Y008268D01*
X018827Y008518D01*
X019077Y008268D01*
X019327Y008268D01*
X018827Y008768D01*
X018827Y008518D01*
X018827Y008768D02*
X018827Y009018D01*
X019327Y008518D01*
X019327Y008768D01*
X018827Y009268D01*
X018827Y009018D01*
X018827Y009268D02*
X018827Y009393D01*
X018952Y009393D01*
X019327Y009018D01*
X019327Y009268D01*
X019202Y009393D01*
X019077Y009393D01*
X018952Y009393D01*
X019202Y009393D02*
X019327Y009393D01*
X019327Y009268D01*
X019327Y009018D01*
X019327Y008768D01*
X019452Y008768D02*
X019952Y008268D01*
X019952Y008518D01*
X019702Y008768D01*
X019452Y008768D01*
X019452Y008518D01*
X019952Y008018D01*
X019952Y008268D01*
X019952Y008018D02*
X019952Y007768D01*
X019452Y008268D01*
X019452Y008018D01*
X019452Y007768D01*
X019577Y007643D01*
X019702Y007643D01*
X019827Y007643D01*
X019452Y008018D01*
X019452Y007768D01*
X019452Y007643D01*
X019577Y007643D01*
X019827Y007643D02*
X019952Y007643D01*
X019952Y007768D01*
X020452Y007768D02*
X020452Y007643D01*
X020577Y007643D01*
X021077Y008143D01*
X020827Y008143D01*
X020577Y008143D01*
X020452Y008018D01*
X020452Y007893D01*
X020452Y007768D01*
X020827Y008143D01*
X020577Y008143D01*
X020452Y008143D01*
X020452Y008018D01*
X020577Y007643D02*
X020827Y007643D01*
X021327Y008143D01*
X021077Y008143D01*
X021327Y008143D02*
X021577Y008143D01*
X021077Y007643D01*
X021327Y007643D01*
X021577Y007893D01*
X021577Y008143D01*
X021577Y007893D02*
X021577Y007643D01*
X021327Y007643D01*
X021202Y007518D02*
X020702Y007018D01*
X020952Y007018D01*
X021452Y007518D01*
X021202Y007518D01*
X020952Y007518D01*
X020452Y007018D01*
X020702Y007018D01*
X020577Y006893D02*
X020452Y006768D01*
X020452Y006643D01*
X020452Y006518D01*
X020827Y006893D01*
X020577Y006893D01*
X020452Y006893D01*
X020452Y006768D01*
X020577Y006893D02*
X020827Y006893D01*
X021077Y006893D01*
X020577Y006393D01*
X020827Y006393D01*
X021327Y006893D01*
X021077Y006893D01*
X020952Y007018D02*
X021202Y007018D01*
X021452Y007018D01*
X021577Y007143D01*
X021577Y007268D01*
X021577Y007393D01*
X021202Y007018D01*
X021452Y007018D01*
X021577Y007018D01*
X021577Y007143D01*
X021577Y006893D02*
X021077Y006393D01*
X021327Y006393D01*
X021577Y006643D01*
X021577Y006893D01*
X021327Y006893D01*
X021577Y006643D02*
X021577Y006393D01*
X021327Y006393D01*
X021077Y006393D02*
X020827Y006393D01*
X020577Y006393D02*
X020452Y006393D01*
X020452Y006518D01*
X020452Y007018D02*
X020452Y007268D01*
X020702Y007518D01*
X020452Y007518D01*
X020452Y007268D01*
X020702Y007518D02*
X020952Y007518D01*
X020827Y007643D02*
X021077Y007643D01*
X021452Y007518D02*
X021577Y007518D01*
X021577Y007393D01*
X019952Y008518D02*
X019952Y008768D01*
X019702Y008768D01*
X019702Y008893D02*
X019827Y008893D01*
X019452Y009268D01*
X019452Y009018D01*
X019577Y008893D01*
X019702Y008893D01*
X019577Y008893D02*
X019452Y008893D01*
X019452Y009018D01*
X019452Y009268D01*
X019452Y009518D01*
X019952Y009018D01*
X019952Y009268D01*
X019452Y009768D01*
X019452Y009518D01*
X019452Y009768D02*
X019452Y010018D01*
X019952Y009518D01*
X019952Y009768D01*
X019702Y010018D01*
X019452Y010018D01*
X019702Y010018D02*
X019952Y010018D01*
X019952Y009768D01*
X019952Y009518D02*
X019952Y009268D01*
X019952Y009018D02*
X019952Y008893D01*
X019827Y008893D01*
X019452Y008518D02*
X019452Y008268D01*
X019327Y008268D02*
X019327Y008518D01*
X018952Y008143D02*
X018827Y008143D01*
X018827Y008018D01*
X019327Y007518D02*
X019327Y007268D01*
X019327Y007018D02*
X019077Y007018D01*
X019077Y006893D02*
X018952Y006893D01*
X019327Y006518D01*
X019327Y006768D01*
X019202Y006893D01*
X019077Y006893D01*
X018952Y006893D02*
X018827Y006893D01*
X018827Y006768D01*
X019327Y006268D01*
X019327Y006518D01*
X019327Y006768D01*
X019327Y006893D01*
X019202Y006893D01*
X018827Y006768D02*
X018827Y006518D01*
X019327Y006018D01*
X019327Y006268D01*
X019327Y006018D02*
X019327Y005768D01*
X018827Y006268D01*
X018827Y006018D01*
X019077Y005768D01*
X019327Y005768D01*
X019077Y005768D02*
X018827Y005768D01*
X018827Y006018D01*
X018827Y006268D02*
X018827Y006518D01*
X018702Y005643D02*
X018702Y010143D01*
X020077Y010143D01*
X020077Y005643D01*
X018702Y005643D01*
X018702Y005393D02*
X018702Y004018D01*
X020077Y004018D01*
X020077Y005393D01*
X018702Y005393D01*
X018827Y005268D02*
X018827Y005018D01*
X019077Y005268D01*
X018827Y005268D01*
X018827Y005018D02*
X018827Y004768D01*
X019327Y005268D01*
X019077Y005268D01*
X019327Y005268D02*
X019577Y005268D01*
X019077Y004768D01*
X019327Y004768D01*
X019827Y005268D01*
X019577Y005268D01*
X019827Y005268D02*
X019952Y005268D01*
X019952Y005143D01*
X019577Y004768D01*
X019827Y004768D01*
X019952Y004893D01*
X019952Y005018D01*
X019952Y005143D01*
X019952Y004893D02*
X019952Y004768D01*
X019827Y004768D01*
X019577Y004768D01*
X019327Y004768D01*
X019202Y004643D02*
X018952Y004643D01*
X018827Y004518D01*
X018827Y004393D01*
X018827Y004268D01*
X019202Y004643D01*
X018952Y004643D01*
X018827Y004643D01*
X018827Y004518D01*
X018827Y004268D02*
X018827Y004143D01*
X018952Y004143D01*
X019452Y004643D01*
X019202Y004643D01*
X019077Y004768D02*
X018827Y004768D01*
X019452Y004643D02*
X019702Y004643D01*
X019202Y004143D01*
X019452Y004143D01*
X019952Y004643D01*
X019702Y004643D01*
X019952Y004643D02*
X019952Y004393D01*
X019702Y004143D01*
X019952Y004143D01*
X019952Y004393D01*
X019702Y004143D02*
X019452Y004143D01*
X019202Y004143D02*
X018952Y004143D01*
X020327Y004018D02*
X020327Y005393D01*
X021702Y005393D01*
X021702Y004018D01*
X020327Y004018D01*
X020452Y004143D02*
X020577Y004143D01*
X020452Y004268D01*
X020452Y004518D01*
X020827Y004143D01*
X020952Y004143D01*
X020952Y004268D01*
X020452Y004768D01*
X020452Y004518D01*
X020452Y004268D01*
X020452Y004143D01*
X020577Y004143D02*
X020702Y004143D01*
X020827Y004143D01*
X020952Y004268D02*
X020952Y004518D01*
X020452Y005018D01*
X020452Y004768D01*
X020452Y005018D02*
X020452Y005268D01*
X020952Y004768D01*
X020952Y005018D01*
X020702Y005268D01*
X020452Y005268D01*
X020702Y005268D02*
X020952Y005268D01*
X020952Y005018D01*
X020952Y004768D02*
X020952Y004518D01*
X020327Y005643D02*
X020327Y010143D01*
X021702Y010143D01*
X021702Y005643D01*
X020327Y005643D01*
X020452Y008893D02*
X020452Y009018D01*
X020827Y009393D01*
X020577Y009393D01*
X020452Y009268D01*
X020452Y009143D01*
X020452Y009018D01*
X020452Y008893D02*
X020577Y008893D01*
X021077Y009393D01*
X020827Y009393D01*
X020577Y009393D01*
X020452Y009393D01*
X020452Y009268D01*
X020452Y009518D02*
X020952Y010018D01*
X020702Y010018D01*
X020452Y009768D01*
X020452Y009518D01*
X020702Y009518D01*
X021202Y010018D01*
X020952Y010018D01*
X020702Y010018D02*
X020452Y010018D01*
X020452Y009768D01*
X020702Y009518D02*
X020952Y009518D01*
X021452Y010018D01*
X021202Y010018D01*
X021452Y010018D02*
X021577Y010018D01*
X021577Y009893D01*
X021202Y009518D01*
X021452Y009518D01*
X021577Y009643D01*
X021577Y009768D01*
X021577Y009893D01*
X021577Y009643D02*
X021577Y009518D01*
X021452Y009518D01*
X021202Y009518D01*
X020952Y009518D01*
X021077Y009393D02*
X021327Y009393D01*
X020827Y008893D01*
X021077Y008893D01*
X021577Y009393D01*
X021327Y009393D01*
X021577Y009393D02*
X021577Y009143D01*
X021327Y008893D01*
X021577Y008893D01*
X021577Y009143D01*
X021327Y008893D02*
X021077Y008893D01*
X020827Y008893D02*
X020577Y008893D01*
X016431Y008868D02*
X016356Y008793D01*
X016206Y008793D01*
X016131Y008868D01*
X016131Y008943D01*
X016206Y009018D01*
X016356Y009018D01*
X016431Y008943D01*
X016431Y008868D01*
X016356Y009018D02*
X016431Y009094D01*
X016431Y009169D01*
X016356Y009244D01*
X016206Y009244D01*
X016131Y009169D01*
X016131Y009094D01*
X016206Y009018D01*
X015971Y008868D02*
X015896Y008793D01*
X015746Y008793D01*
X015671Y008868D01*
X015671Y009169D01*
X015746Y009244D01*
X015896Y009244D01*
X015971Y009169D01*
X015514Y009244D02*
X015364Y009244D01*
X015439Y009244D02*
X015439Y008793D01*
X015364Y008793D02*
X015514Y008793D01*
X010181Y007744D02*
X010181Y007669D01*
X009881Y007368D01*
X009881Y007293D01*
X009721Y007368D02*
X009646Y007293D01*
X009496Y007293D01*
X009421Y007368D01*
X009421Y007669D01*
X009496Y007744D01*
X009646Y007744D01*
X009721Y007669D01*
X009881Y007744D02*
X010181Y007744D01*
X009264Y007744D02*
X009114Y007744D01*
X009189Y007744D02*
X009189Y007293D01*
X009114Y007293D02*
X009264Y007293D01*
X003758Y004869D02*
X003458Y004869D01*
X003458Y004643D01*
X003608Y004719D01*
X003683Y004719D01*
X003758Y004643D01*
X003758Y004493D01*
X003683Y004418D01*
X003533Y004418D01*
X003458Y004493D01*
X003298Y004643D02*
X003222Y004568D01*
X002997Y004568D01*
X002997Y004418D02*
X002997Y004869D01*
X003222Y004869D01*
X003298Y004794D01*
X003298Y004643D01*
X002837Y004869D02*
X002687Y004869D01*
X002762Y004869D02*
X002762Y004493D01*
X002687Y004418D01*
X002612Y004418D01*
X002537Y004493D01*
X002842Y007543D02*
X002992Y007543D01*
X003067Y007618D01*
X003227Y007618D02*
X003227Y007693D01*
X003303Y007768D01*
X003453Y007768D01*
X003528Y007693D01*
X003528Y007618D01*
X003453Y007543D01*
X003303Y007543D01*
X003227Y007618D01*
X003303Y007768D02*
X003227Y007844D01*
X003227Y007919D01*
X003303Y007994D01*
X003453Y007994D01*
X003528Y007919D01*
X003528Y007844D01*
X003453Y007768D01*
X003067Y007919D02*
X002992Y007994D01*
X002842Y007994D01*
X002767Y007919D01*
X002767Y007618D01*
X002842Y007543D01*
X003352Y011353D02*
X003427Y011428D01*
X003427Y011503D01*
X003352Y011578D01*
X002977Y011578D01*
X002977Y011503D02*
X002977Y011653D01*
X002977Y011813D02*
X002977Y012038D01*
X003052Y012113D01*
X003202Y012113D01*
X003277Y012038D01*
X003277Y011813D01*
X003427Y011813D02*
X002977Y011813D01*
X003202Y012274D02*
X003202Y012574D01*
X003427Y012499D02*
X002977Y012499D01*
X003202Y012274D01*
X003303Y013043D02*
X003453Y013043D01*
X003528Y013118D01*
X003528Y013419D01*
X003453Y013494D01*
X003303Y013494D01*
X003227Y013419D01*
X003227Y013344D01*
X003303Y013268D01*
X003528Y013268D01*
X003303Y013043D02*
X003227Y013118D01*
X003067Y013043D02*
X002917Y013193D01*
X002992Y013193D02*
X002767Y013193D01*
X002767Y013043D02*
X002767Y013494D01*
X002992Y013494D01*
X003067Y013419D01*
X003067Y013268D01*
X002992Y013193D01*
X003067Y013668D02*
X002917Y013818D01*
X002992Y013818D02*
X002767Y013818D01*
X002767Y013668D02*
X002767Y014119D01*
X002992Y014119D01*
X003067Y014044D01*
X003067Y013893D01*
X002992Y013818D01*
X003227Y013818D02*
X003303Y013893D01*
X003453Y013893D01*
X003528Y013818D01*
X003528Y013743D01*
X003453Y013668D01*
X003303Y013668D01*
X003227Y013743D01*
X003227Y013818D01*
X003303Y013893D02*
X003227Y013969D01*
X003227Y014044D01*
X003303Y014119D01*
X003453Y014119D01*
X003528Y014044D01*
X003528Y013969D01*
X003453Y013893D01*
X003417Y015918D02*
X003417Y016369D01*
X003267Y016369D02*
X003567Y016369D01*
X003727Y016294D02*
X003803Y016369D01*
X003953Y016369D01*
X004028Y016294D01*
X004028Y016219D01*
X003727Y015918D01*
X004028Y015918D01*
X006114Y016918D02*
X006264Y016918D01*
X006189Y016918D02*
X006189Y017369D01*
X006114Y017369D02*
X006264Y017369D01*
X006421Y017294D02*
X006421Y016993D01*
X006496Y016918D01*
X006646Y016918D01*
X006721Y016993D01*
X006881Y016993D02*
X006956Y016918D01*
X007106Y016918D01*
X007181Y016993D01*
X007181Y017068D01*
X007106Y017143D01*
X006881Y017143D01*
X006881Y016993D01*
X006881Y017143D02*
X007031Y017294D01*
X007181Y017369D01*
X006721Y017294D02*
X006646Y017369D01*
X006496Y017369D01*
X006421Y017294D01*
X004748Y017618D02*
X004590Y017618D01*
X003815Y017618D02*
X003590Y017618D01*
X004527Y018168D02*
X004562Y018120D01*
X004595Y018070D01*
X004626Y018018D01*
X004653Y017964D01*
X004677Y017909D01*
X004697Y017852D01*
X004715Y017795D01*
X004729Y017737D01*
X004740Y017678D01*
X004747Y017618D01*
X004527Y018168D02*
X002878Y018168D01*
X003417Y018293D02*
X003417Y018744D01*
X003267Y018744D02*
X003567Y018744D01*
X003727Y018594D02*
X003878Y018744D01*
X003878Y018293D01*
X004028Y018293D02*
X003727Y018293D01*
X004527Y018868D02*
X002878Y018868D01*
X002815Y019418D02*
X002657Y019418D01*
X003590Y019418D02*
X003815Y019418D01*
X002877Y018868D02*
X002842Y018916D01*
X002809Y018966D01*
X002778Y019018D01*
X002751Y019072D01*
X002727Y019127D01*
X002707Y019184D01*
X002689Y019241D01*
X002675Y019299D01*
X002664Y019358D01*
X002657Y019418D01*
X002653Y019480D01*
X002652Y019543D01*
X002656Y019605D01*
X002663Y019667D01*
X002673Y019728D01*
X002688Y019789D01*
X002706Y019849D01*
X002727Y019908D01*
X002752Y019965D01*
X002780Y020020D01*
X002811Y020074D01*
X002846Y020126D01*
X002884Y020176D01*
X002924Y020223D01*
X002968Y020268D01*
X003013Y020311D01*
X003062Y020350D01*
X003112Y020387D01*
X003165Y020420D01*
X003219Y020451D01*
X003276Y020478D01*
X003333Y020501D01*
X003392Y020521D01*
X004012Y020521D02*
X004072Y020501D01*
X004131Y020477D01*
X004188Y020449D01*
X004243Y020418D01*
X004297Y020383D01*
X004348Y020346D01*
X004397Y020305D01*
X004443Y020261D01*
X004487Y020215D01*
X004528Y020166D01*
X004566Y020115D01*
X004600Y020062D01*
X004632Y020006D01*
X004659Y019949D01*
X004684Y019890D01*
X004704Y019830D01*
X004722Y019769D01*
X004735Y019707D01*
X004744Y019644D01*
X004750Y019581D01*
X004752Y019517D01*
X004750Y019453D01*
X004744Y019390D01*
X004735Y019327D01*
X004721Y019265D01*
X004704Y019204D01*
X004683Y019144D01*
X004659Y019085D01*
X004631Y019028D01*
X004599Y018972D01*
X004564Y018919D01*
X004527Y018868D01*
X004590Y019418D02*
X004748Y019418D01*
X002877Y018168D02*
X002840Y018117D01*
X002805Y018064D01*
X002773Y018008D01*
X002745Y017951D01*
X002721Y017892D01*
X002700Y017832D01*
X002683Y017771D01*
X002669Y017709D01*
X002660Y017646D01*
X002654Y017583D01*
X002652Y017519D01*
X002654Y017455D01*
X002660Y017392D01*
X002669Y017329D01*
X002682Y017267D01*
X002700Y017206D01*
X002720Y017146D01*
X002745Y017087D01*
X002772Y017030D01*
X002804Y016974D01*
X002838Y016921D01*
X002876Y016870D01*
X002917Y016821D01*
X002961Y016775D01*
X003007Y016731D01*
X003056Y016690D01*
X003107Y016653D01*
X003161Y016618D01*
X003216Y016587D01*
X003273Y016559D01*
X003332Y016535D01*
X003392Y016515D01*
X004012Y016515D02*
X004071Y016535D01*
X004128Y016558D01*
X004185Y016585D01*
X004239Y016616D01*
X004292Y016649D01*
X004342Y016686D01*
X004391Y016725D01*
X004436Y016768D01*
X004480Y016813D01*
X004520Y016860D01*
X004558Y016910D01*
X004593Y016962D01*
X004624Y017016D01*
X004652Y017071D01*
X004677Y017128D01*
X004698Y017187D01*
X004716Y017247D01*
X004731Y017308D01*
X004741Y017369D01*
X004748Y017431D01*
X004752Y017493D01*
X004751Y017556D01*
X004747Y017618D01*
X002815Y017618D02*
X002657Y017618D01*
X010114Y017369D02*
X010264Y017369D01*
X010189Y017369D02*
X010189Y016918D01*
X010114Y016918D02*
X010264Y016918D01*
X010421Y016993D02*
X010496Y016918D01*
X010646Y016918D01*
X010721Y016993D01*
X010881Y016993D02*
X010956Y016918D01*
X011106Y016918D01*
X011181Y016993D01*
X011181Y017143D01*
X011106Y017219D01*
X011031Y017219D01*
X010881Y017143D01*
X010881Y017369D01*
X011181Y017369D01*
X010721Y017294D02*
X010646Y017369D01*
X010496Y017369D01*
X010421Y017294D01*
X010421Y016993D01*
X014114Y016869D02*
X014264Y016869D01*
X014189Y016869D02*
X014189Y016418D01*
X014114Y016418D02*
X014264Y016418D01*
X014421Y016493D02*
X014496Y016418D01*
X014646Y016418D01*
X014721Y016493D01*
X014881Y016643D02*
X015181Y016643D01*
X015106Y016418D02*
X015106Y016869D01*
X014881Y016643D01*
X014721Y016794D02*
X014646Y016869D01*
X014496Y016869D01*
X014421Y016794D01*
X014421Y016493D01*
X016977Y016578D02*
X016977Y016353D01*
X017427Y016353D01*
X017277Y016353D02*
X017277Y016578D01*
X017202Y016653D01*
X017052Y016653D01*
X016977Y016578D01*
X017127Y016813D02*
X016977Y016963D01*
X017427Y016963D01*
X017427Y016813D02*
X017427Y017113D01*
X017427Y017274D02*
X017427Y017574D01*
X017427Y017424D02*
X016977Y017424D01*
X017127Y017274D01*
X017427Y016653D02*
X017277Y016503D01*
X019537Y018243D02*
X019612Y018168D01*
X019687Y018168D01*
X019762Y018243D01*
X019762Y018619D01*
X019687Y018619D02*
X019837Y018619D01*
X019997Y018619D02*
X020222Y018619D01*
X020298Y018544D01*
X020298Y018393D01*
X020222Y018318D01*
X019997Y018318D01*
X019997Y018168D02*
X019997Y018619D01*
X020458Y018544D02*
X020533Y018619D01*
X020683Y018619D01*
X020758Y018544D01*
X020758Y018469D01*
X020458Y018168D01*
X020758Y018168D01*
X021767Y017544D02*
X021767Y017243D01*
X021842Y017168D01*
X021992Y017168D01*
X022067Y017243D01*
X022227Y017243D02*
X022528Y017544D01*
X022528Y017619D01*
X022227Y017619D01*
X022067Y017544D02*
X021992Y017619D01*
X021842Y017619D01*
X021767Y017544D01*
X022227Y017243D02*
X022227Y017168D01*
X022702Y016018D02*
X042702Y016018D01*
X042702Y017768D01*
X042727Y017774D02*
X043177Y017774D01*
X043177Y017699D02*
X043177Y017849D01*
X043102Y018006D02*
X043177Y018081D01*
X043177Y018231D01*
X043102Y018306D01*
X043177Y018467D02*
X043177Y018767D01*
X043177Y018617D02*
X042727Y018617D01*
X042877Y018467D01*
X042802Y018306D02*
X042727Y018231D01*
X042727Y018081D01*
X042802Y018006D01*
X043102Y018006D01*
X042727Y017849D02*
X042727Y017699D01*
X042702Y017768D02*
X042648Y017770D01*
X042595Y017776D01*
X042543Y017785D01*
X042491Y017798D01*
X042440Y017815D01*
X042390Y017836D01*
X042343Y017860D01*
X042297Y017887D01*
X042253Y017918D01*
X042211Y017951D01*
X042172Y017988D01*
X042135Y018027D01*
X042102Y018069D01*
X042071Y018113D01*
X042044Y018159D01*
X042020Y018206D01*
X041999Y018256D01*
X041982Y018307D01*
X041969Y018359D01*
X041960Y018411D01*
X041954Y018464D01*
X041952Y018518D01*
X041954Y018572D01*
X041960Y018625D01*
X041969Y018677D01*
X041982Y018729D01*
X041999Y018780D01*
X042020Y018830D01*
X042044Y018877D01*
X042071Y018923D01*
X042102Y018967D01*
X042135Y019009D01*
X042172Y019048D01*
X042211Y019085D01*
X042253Y019118D01*
X042297Y019149D01*
X042343Y019176D01*
X042390Y019200D01*
X042440Y019221D01*
X042491Y019238D01*
X042543Y019251D01*
X042595Y019260D01*
X042648Y019266D01*
X042702Y019268D01*
X042702Y021018D01*
X022702Y021018D01*
X022702Y016018D01*
X018927Y014499D02*
X018927Y014349D01*
X018852Y014274D01*
X018552Y014574D01*
X018852Y014574D01*
X018927Y014499D01*
X018852Y014274D02*
X018552Y014274D01*
X018477Y014349D01*
X018477Y014499D01*
X018552Y014574D01*
X018927Y014113D02*
X018927Y013813D01*
X018927Y013963D02*
X018477Y013963D01*
X018627Y013813D01*
X018552Y013653D02*
X018702Y013653D01*
X018777Y013578D01*
X018777Y013353D01*
X018777Y013503D02*
X018927Y013653D01*
X018927Y013353D02*
X018477Y013353D01*
X018477Y013578D01*
X018552Y013653D01*
X016453Y012744D02*
X016227Y012518D01*
X016528Y012518D01*
X016453Y012293D02*
X016453Y012744D01*
X016067Y012669D02*
X015992Y012744D01*
X015842Y012744D01*
X015767Y012669D01*
X015767Y012368D01*
X015842Y012293D01*
X015992Y012293D01*
X016067Y012368D01*
X012528Y012368D02*
X012453Y012293D01*
X012303Y012293D01*
X012227Y012368D01*
X012227Y012518D02*
X012378Y012594D01*
X012453Y012594D01*
X012528Y012518D01*
X012528Y012368D01*
X012227Y012518D02*
X012227Y012744D01*
X012528Y012744D01*
X012067Y012669D02*
X011992Y012744D01*
X011842Y012744D01*
X011767Y012669D01*
X011767Y012368D01*
X011842Y012293D01*
X011992Y012293D01*
X012067Y012368D01*
X008528Y012368D02*
X008528Y012443D01*
X008453Y012518D01*
X008227Y012518D01*
X008227Y012368D01*
X008303Y012293D01*
X008453Y012293D01*
X008528Y012368D01*
X008378Y012669D02*
X008227Y012518D01*
X008378Y012669D02*
X008528Y012744D01*
X008067Y012669D02*
X007992Y012744D01*
X007842Y012744D01*
X007767Y012669D01*
X007767Y012368D01*
X007842Y012293D01*
X007992Y012293D01*
X008067Y012368D01*
X024767Y010669D02*
X024767Y010368D01*
X024842Y010293D01*
X024992Y010293D01*
X025067Y010368D01*
X025227Y010368D02*
X025303Y010293D01*
X025453Y010293D01*
X025528Y010368D01*
X025528Y010669D01*
X025453Y010744D01*
X025303Y010744D01*
X025227Y010669D01*
X025227Y010594D01*
X025303Y010518D01*
X025528Y010518D01*
X025067Y010669D02*
X024992Y010744D01*
X024842Y010744D01*
X024767Y010669D01*
X027221Y010744D02*
X027221Y010293D01*
X027221Y010443D02*
X027446Y010443D01*
X027522Y010518D01*
X027522Y010669D01*
X027446Y010744D01*
X027221Y010744D01*
X027371Y010443D02*
X027522Y010293D01*
X027682Y010293D02*
X027682Y010744D01*
X027982Y010293D01*
X027982Y010744D01*
X028142Y010594D02*
X028292Y010744D01*
X028292Y010293D01*
X028142Y010293D02*
X028442Y010293D01*
X028496Y012793D02*
X028421Y012868D01*
X028421Y013169D01*
X028496Y013244D01*
X028646Y013244D01*
X028721Y013169D01*
X028881Y013094D02*
X029031Y013244D01*
X029031Y012793D01*
X028881Y012793D02*
X029181Y012793D01*
X028721Y012868D02*
X028646Y012793D01*
X028496Y012793D01*
X028264Y012793D02*
X028114Y012793D01*
X028189Y012793D02*
X028189Y013244D01*
X028114Y013244D02*
X028264Y013244D01*
X036852Y009799D02*
X037302Y009799D01*
X037302Y009649D02*
X037302Y009949D01*
X037002Y009649D02*
X036852Y009799D01*
X036927Y009488D02*
X036852Y009413D01*
X036852Y009188D01*
X037302Y009188D01*
X037152Y009188D02*
X037152Y009413D01*
X037077Y009488D01*
X036927Y009488D01*
X036852Y009028D02*
X036852Y008878D01*
X036852Y008953D02*
X037227Y008953D01*
X037302Y008878D01*
X037302Y008803D01*
X037227Y008728D01*
X030181Y006669D02*
X030181Y006368D01*
X030106Y006293D01*
X029956Y006293D01*
X029881Y006368D01*
X029721Y006368D02*
X029646Y006293D01*
X029496Y006293D01*
X029421Y006368D01*
X029421Y006669D01*
X029496Y006744D01*
X029646Y006744D01*
X029721Y006669D01*
X029881Y006669D02*
X029881Y006594D01*
X029956Y006518D01*
X030181Y006518D01*
X030181Y006669D02*
X030106Y006744D01*
X029956Y006744D01*
X029881Y006669D01*
X029264Y006744D02*
X029114Y006744D01*
X029189Y006744D02*
X029189Y006293D01*
X029114Y006293D02*
X029264Y006293D01*
X028606Y018793D02*
X028456Y018793D01*
X028381Y018868D01*
X028221Y018868D02*
X028146Y018793D01*
X027996Y018793D01*
X027921Y018868D01*
X027921Y019169D01*
X027996Y019244D01*
X028146Y019244D01*
X028221Y019169D01*
X028381Y019169D02*
X028456Y019244D01*
X028606Y019244D01*
X028681Y019169D01*
X028681Y019094D01*
X028606Y019018D01*
X028681Y018943D01*
X028681Y018868D01*
X028606Y018793D01*
X028606Y019018D02*
X028531Y019018D01*
X027764Y018793D02*
X027614Y018793D01*
X027689Y018793D02*
X027689Y019244D01*
X027614Y019244D02*
X027764Y019244D01*
X022758Y022118D02*
X022683Y022043D01*
X022533Y022043D01*
X022458Y022118D01*
X022758Y022419D01*
X022758Y022118D01*
X022458Y022118D02*
X022458Y022419D01*
X022533Y022494D01*
X022683Y022494D01*
X022758Y022419D01*
X022298Y022043D02*
X021997Y022043D01*
X022147Y022043D02*
X022147Y022494D01*
X021997Y022344D01*
X021837Y022419D02*
X021762Y022494D01*
X021612Y022494D01*
X021537Y022419D01*
X021537Y022118D01*
X021612Y022043D01*
X021762Y022043D01*
X021837Y022118D01*
X031267Y024043D02*
X031267Y024494D01*
X031492Y024494D01*
X031567Y024419D01*
X031567Y024268D01*
X031492Y024193D01*
X031267Y024193D01*
X031417Y024193D02*
X031567Y024043D01*
X031727Y024043D02*
X032028Y024043D01*
X031878Y024043D02*
X031878Y024494D01*
X031727Y024344D01*
X033267Y024494D02*
X033267Y024043D01*
X033267Y024193D02*
X033492Y024193D01*
X033567Y024268D01*
X033567Y024419D01*
X033492Y024494D01*
X033267Y024494D01*
X033417Y024193D02*
X033567Y024043D01*
X033727Y024043D02*
X034028Y024344D01*
X034028Y024419D01*
X033953Y024494D01*
X033803Y024494D01*
X033727Y024419D01*
X033727Y024043D02*
X034028Y024043D01*
X035267Y024118D02*
X035342Y024043D01*
X035492Y024043D01*
X035567Y024118D01*
X035727Y024043D02*
X036028Y024043D01*
X035878Y024043D02*
X035878Y024494D01*
X035727Y024344D01*
X035567Y024419D02*
X035492Y024494D01*
X035342Y024494D01*
X035267Y024419D01*
X035267Y024118D01*
X037267Y024118D02*
X037342Y024043D01*
X037492Y024043D01*
X037567Y024118D01*
X037727Y024043D02*
X038028Y024344D01*
X038028Y024419D01*
X037953Y024494D01*
X037803Y024494D01*
X037727Y024419D01*
X037567Y024419D02*
X037492Y024494D01*
X037342Y024494D01*
X037267Y024419D01*
X037267Y024118D01*
X037727Y024043D02*
X038028Y024043D01*
X039517Y024043D02*
X039517Y024494D01*
X039742Y024494D01*
X039817Y024419D01*
X039817Y024268D01*
X039742Y024193D01*
X039517Y024193D01*
X039667Y024193D02*
X039817Y024043D01*
X039977Y024268D02*
X040278Y024268D01*
X040203Y024043D02*
X040203Y024494D01*
X039977Y024268D01*
X041517Y024193D02*
X041742Y024193D01*
X041817Y024268D01*
X041817Y024419D01*
X041742Y024494D01*
X041517Y024494D01*
X041517Y024043D01*
X041667Y024193D02*
X041817Y024043D01*
X041977Y024118D02*
X042053Y024043D01*
X042203Y024043D01*
X042278Y024118D01*
X042278Y024193D01*
X042203Y024268D01*
X042128Y024268D01*
X042203Y024268D02*
X042278Y024344D01*
X042278Y024419D01*
X042203Y024494D01*
X042053Y024494D01*
X041977Y024419D01*
X042802Y019227D02*
X043102Y018927D01*
X043177Y019002D01*
X043177Y019152D01*
X043102Y019227D01*
X042802Y019227D01*
X042727Y019152D01*
X042727Y019002D01*
X042802Y018927D01*
X043102Y018927D01*
X037181Y018793D02*
X036881Y018793D01*
X037181Y019094D01*
X037181Y019169D01*
X037106Y019244D01*
X036956Y019244D01*
X036881Y019169D01*
X036721Y019169D02*
X036646Y019244D01*
X036496Y019244D01*
X036421Y019169D01*
X036421Y018868D01*
X036496Y018793D01*
X036646Y018793D01*
X036721Y018868D01*
X036264Y018793D02*
X036114Y018793D01*
X036189Y018793D02*
X036189Y019244D01*
X036114Y019244D02*
X036264Y019244D01*
X009028Y021493D02*
X008953Y021418D01*
X008803Y021418D01*
X008727Y021493D01*
X008727Y021643D02*
X008878Y021719D01*
X008953Y021719D01*
X009028Y021643D01*
X009028Y021493D01*
X008727Y021643D02*
X008727Y021869D01*
X009028Y021869D01*
X008567Y021794D02*
X008567Y021643D01*
X008492Y021568D01*
X008267Y021568D01*
X008267Y021418D02*
X008267Y021869D01*
X008492Y021869D01*
X008567Y021794D01*
X008417Y021568D02*
X008567Y021418D01*
X007403Y022493D02*
X007328Y022418D01*
X007178Y022418D01*
X007102Y022493D01*
X006942Y022493D02*
X006867Y022418D01*
X006717Y022418D01*
X006642Y022493D01*
X006642Y022794D01*
X006717Y022869D01*
X006867Y022869D01*
X006942Y022794D01*
X007102Y022794D02*
X007178Y022869D01*
X007328Y022869D01*
X007403Y022794D01*
X007403Y022719D01*
X007328Y022643D01*
X007403Y022568D01*
X007403Y022493D01*
X007328Y022643D02*
X007253Y022643D01*
X004528Y022618D02*
X004528Y022693D01*
X004453Y022768D01*
X004227Y022768D01*
X004227Y022618D01*
X004303Y022543D01*
X004453Y022543D01*
X004528Y022618D01*
X004378Y022919D02*
X004227Y022768D01*
X004067Y022768D02*
X003992Y022693D01*
X003767Y022693D01*
X003767Y022543D02*
X003767Y022994D01*
X003992Y022994D01*
X004067Y022919D01*
X004067Y022768D01*
X003917Y022693D02*
X004067Y022543D01*
X004378Y022919D02*
X004528Y022994D01*
X003528Y022994D02*
X003528Y022919D01*
X003227Y022618D01*
X003227Y022543D01*
X003067Y022543D02*
X002917Y022693D01*
X002992Y022693D02*
X002767Y022693D01*
X002767Y022543D02*
X002767Y022994D01*
X002992Y022994D01*
X003067Y022919D01*
X003067Y022768D01*
X002992Y022693D01*
X003227Y022994D02*
X003528Y022994D01*
D14*
X002702Y022018D02*
X002704Y022062D01*
X002710Y022106D01*
X002720Y022149D01*
X002733Y022191D01*
X002750Y022232D01*
X002771Y022271D01*
X002795Y022308D01*
X002822Y022343D01*
X002852Y022375D01*
X002885Y022405D01*
X002921Y022431D01*
X002958Y022455D01*
X002998Y022474D01*
X003039Y022491D01*
X003082Y022503D01*
X003125Y022512D01*
X003169Y022517D01*
X003213Y022518D01*
X003257Y022515D01*
X003301Y022508D01*
X003344Y022497D01*
X003386Y022483D01*
X003426Y022465D01*
X003465Y022443D01*
X003501Y022419D01*
X003535Y022391D01*
X003567Y022360D01*
X003596Y022326D01*
X003622Y022290D01*
X003644Y022252D01*
X003663Y022212D01*
X003678Y022170D01*
X003690Y022128D01*
X003698Y022084D01*
X003702Y022040D01*
X003702Y021996D01*
X003698Y021952D01*
X003690Y021908D01*
X003678Y021866D01*
X003663Y021824D01*
X003644Y021784D01*
X003622Y021746D01*
X003596Y021710D01*
X003567Y021676D01*
X003535Y021645D01*
X003501Y021617D01*
X003465Y021593D01*
X003426Y021571D01*
X003386Y021553D01*
X003344Y021539D01*
X003301Y021528D01*
X003257Y021521D01*
X003213Y021518D01*
X003169Y021519D01*
X003125Y021524D01*
X003082Y021533D01*
X003039Y021545D01*
X002998Y021562D01*
X002958Y021581D01*
X002921Y021605D01*
X002885Y021631D01*
X002852Y021661D01*
X002822Y021693D01*
X002795Y021728D01*
X002771Y021765D01*
X002750Y021804D01*
X002733Y021845D01*
X002720Y021887D01*
X002710Y021930D01*
X002704Y021974D01*
X002702Y022018D01*
X003702Y021018D02*
X003704Y021062D01*
X003710Y021106D01*
X003720Y021149D01*
X003733Y021191D01*
X003750Y021232D01*
X003771Y021271D01*
X003795Y021308D01*
X003822Y021343D01*
X003852Y021375D01*
X003885Y021405D01*
X003921Y021431D01*
X003958Y021455D01*
X003998Y021474D01*
X004039Y021491D01*
X004082Y021503D01*
X004125Y021512D01*
X004169Y021517D01*
X004213Y021518D01*
X004257Y021515D01*
X004301Y021508D01*
X004344Y021497D01*
X004386Y021483D01*
X004426Y021465D01*
X004465Y021443D01*
X004501Y021419D01*
X004535Y021391D01*
X004567Y021360D01*
X004596Y021326D01*
X004622Y021290D01*
X004644Y021252D01*
X004663Y021212D01*
X004678Y021170D01*
X004690Y021128D01*
X004698Y021084D01*
X004702Y021040D01*
X004702Y020996D01*
X004698Y020952D01*
X004690Y020908D01*
X004678Y020866D01*
X004663Y020824D01*
X004644Y020784D01*
X004622Y020746D01*
X004596Y020710D01*
X004567Y020676D01*
X004535Y020645D01*
X004501Y020617D01*
X004465Y020593D01*
X004426Y020571D01*
X004386Y020553D01*
X004344Y020539D01*
X004301Y020528D01*
X004257Y020521D01*
X004213Y020518D01*
X004169Y020519D01*
X004125Y020524D01*
X004082Y020533D01*
X004039Y020545D01*
X003998Y020562D01*
X003958Y020581D01*
X003921Y020605D01*
X003885Y020631D01*
X003852Y020661D01*
X003822Y020693D01*
X003795Y020728D01*
X003771Y020765D01*
X003750Y020804D01*
X003733Y020845D01*
X003720Y020887D01*
X003710Y020930D01*
X003704Y020974D01*
X003702Y021018D01*
X005552Y021018D02*
X006302Y021018D01*
X006304Y020979D01*
X006310Y020940D01*
X006319Y020902D01*
X006332Y020865D01*
X006349Y020829D01*
X006369Y020796D01*
X006393Y020764D01*
X006419Y020735D01*
X006448Y020709D01*
X006480Y020685D01*
X006513Y020665D01*
X006549Y020648D01*
X006586Y020635D01*
X006624Y020626D01*
X006663Y020620D01*
X006702Y020618D01*
X006741Y020620D01*
X006780Y020626D01*
X006818Y020635D01*
X006855Y020648D01*
X006891Y020665D01*
X006924Y020685D01*
X006956Y020709D01*
X006985Y020735D01*
X007011Y020764D01*
X007035Y020796D01*
X007055Y020829D01*
X007072Y020865D01*
X007085Y020902D01*
X007094Y020940D01*
X007100Y020979D01*
X007102Y021018D01*
X007852Y021018D01*
X007852Y013018D01*
X005552Y013018D01*
X005552Y021018D01*
X005033Y022457D02*
X005065Y022502D01*
X005099Y022544D01*
X005137Y022584D01*
X005176Y022621D01*
X005219Y022656D01*
X005263Y022687D01*
X005310Y022715D01*
X005359Y022741D01*
X005409Y022762D01*
X005460Y022781D01*
X005513Y022795D01*
X005566Y022806D01*
X005620Y022814D01*
X005675Y022818D01*
X005729Y022818D01*
X005784Y022814D01*
X005838Y022806D01*
X005891Y022795D01*
X005944Y022781D01*
X005995Y022762D01*
X006045Y022741D01*
X006094Y022715D01*
X006141Y022687D01*
X006185Y022656D01*
X006228Y022621D01*
X006267Y022584D01*
X006305Y022544D01*
X006339Y022502D01*
X006371Y022457D01*
X006152Y022468D02*
X005952Y022468D01*
X006052Y022568D02*
X006052Y022368D01*
X006371Y021579D02*
X006339Y021534D01*
X006305Y021492D01*
X006267Y021452D01*
X006228Y021415D01*
X006185Y021380D01*
X006141Y021349D01*
X006094Y021321D01*
X006045Y021295D01*
X005995Y021274D01*
X005944Y021255D01*
X005891Y021241D01*
X005838Y021230D01*
X005784Y021222D01*
X005729Y021218D01*
X005675Y021218D01*
X005620Y021222D01*
X005566Y021230D01*
X005513Y021241D01*
X005460Y021255D01*
X005409Y021274D01*
X005359Y021295D01*
X005310Y021321D01*
X005263Y021349D01*
X005219Y021380D01*
X005176Y021415D01*
X005137Y021452D01*
X005099Y021492D01*
X005065Y021534D01*
X005033Y021579D01*
X007452Y021293D02*
X007454Y021276D01*
X007458Y021259D01*
X007465Y021243D01*
X007475Y021229D01*
X007488Y021216D01*
X007502Y021206D01*
X007518Y021199D01*
X007535Y021195D01*
X007552Y021193D01*
X007702Y021193D01*
X007752Y021243D01*
X009652Y021243D01*
X009702Y021193D01*
X009852Y021193D01*
X009869Y021195D01*
X009886Y021199D01*
X009902Y021206D01*
X009916Y021216D01*
X009929Y021229D01*
X009939Y021243D01*
X009946Y021259D01*
X009950Y021276D01*
X009952Y021293D01*
X009552Y021018D02*
X011852Y021018D01*
X011852Y013018D01*
X011102Y013018D01*
X011490Y012956D02*
X009915Y012956D01*
X009898Y012954D01*
X009881Y012950D01*
X009865Y012943D01*
X009851Y012933D01*
X009838Y012920D01*
X009828Y012906D01*
X009821Y012890D01*
X009817Y012873D01*
X009815Y012856D01*
X009815Y012181D01*
X009817Y012164D01*
X009821Y012147D01*
X009828Y012131D01*
X009838Y012117D01*
X009851Y012104D01*
X009865Y012094D01*
X009881Y012087D01*
X009898Y012083D01*
X009915Y012081D01*
X011490Y012081D01*
X011507Y012083D01*
X011524Y012087D01*
X011540Y012094D01*
X011554Y012104D01*
X011567Y012117D01*
X011577Y012131D01*
X011584Y012147D01*
X011588Y012164D01*
X011590Y012181D01*
X011590Y012856D01*
X011588Y012873D01*
X011584Y012890D01*
X011577Y012906D01*
X011567Y012920D01*
X011554Y012933D01*
X011540Y012943D01*
X011524Y012950D01*
X011507Y012954D01*
X011490Y012956D01*
X011102Y013018D02*
X011100Y013057D01*
X011094Y013096D01*
X011085Y013134D01*
X011072Y013171D01*
X011055Y013207D01*
X011035Y013240D01*
X011011Y013272D01*
X010985Y013301D01*
X010956Y013327D01*
X010924Y013351D01*
X010891Y013371D01*
X010855Y013388D01*
X010818Y013401D01*
X010780Y013410D01*
X010741Y013416D01*
X010702Y013418D01*
X010663Y013416D01*
X010624Y013410D01*
X010586Y013401D01*
X010549Y013388D01*
X010513Y013371D01*
X010480Y013351D01*
X010448Y013327D01*
X010419Y013301D01*
X010393Y013272D01*
X010369Y013240D01*
X010349Y013207D01*
X010332Y013171D01*
X010319Y013134D01*
X010310Y013096D01*
X010304Y013057D01*
X010302Y013018D01*
X009552Y013018D01*
X009552Y021018D01*
X009952Y021993D02*
X009950Y022010D01*
X009946Y022027D01*
X009939Y022043D01*
X009929Y022057D01*
X009916Y022070D01*
X009902Y022080D01*
X009886Y022087D01*
X009869Y022091D01*
X009852Y022093D01*
X009702Y022093D01*
X009652Y022043D01*
X007752Y022043D01*
X007702Y022093D01*
X007552Y022093D01*
X007535Y022091D01*
X007518Y022087D01*
X007502Y022080D01*
X007488Y022070D01*
X007475Y022057D01*
X007465Y022043D01*
X007458Y022027D01*
X007454Y022010D01*
X007452Y021993D01*
X013552Y020018D02*
X015852Y020018D01*
X015852Y013018D01*
X015102Y013018D01*
X015490Y012956D02*
X013915Y012956D01*
X013898Y012954D01*
X013881Y012950D01*
X013865Y012943D01*
X013851Y012933D01*
X013838Y012920D01*
X013828Y012906D01*
X013821Y012890D01*
X013817Y012873D01*
X013815Y012856D01*
X013815Y012181D01*
X013817Y012164D01*
X013821Y012147D01*
X013828Y012131D01*
X013838Y012117D01*
X013851Y012104D01*
X013865Y012094D01*
X013881Y012087D01*
X013898Y012083D01*
X013915Y012081D01*
X015490Y012081D01*
X015507Y012083D01*
X015524Y012087D01*
X015540Y012094D01*
X015554Y012104D01*
X015567Y012117D01*
X015577Y012131D01*
X015584Y012147D01*
X015588Y012164D01*
X015590Y012181D01*
X015590Y012856D01*
X015588Y012873D01*
X015584Y012890D01*
X015577Y012906D01*
X015567Y012920D01*
X015554Y012933D01*
X015540Y012943D01*
X015524Y012950D01*
X015507Y012954D01*
X015490Y012956D01*
X014852Y012518D02*
X014802Y012518D01*
X014602Y012518D02*
X014552Y012518D01*
X014302Y013018D02*
X014304Y013057D01*
X014310Y013096D01*
X014319Y013134D01*
X014332Y013171D01*
X014349Y013207D01*
X014369Y013240D01*
X014393Y013272D01*
X014419Y013301D01*
X014448Y013327D01*
X014480Y013351D01*
X014513Y013371D01*
X014549Y013388D01*
X014586Y013401D01*
X014624Y013410D01*
X014663Y013416D01*
X014702Y013418D01*
X014741Y013416D01*
X014780Y013410D01*
X014818Y013401D01*
X014855Y013388D01*
X014891Y013371D01*
X014924Y013351D01*
X014956Y013327D01*
X014985Y013301D01*
X015011Y013272D01*
X015035Y013240D01*
X015055Y013207D01*
X015072Y013171D01*
X015085Y013134D01*
X015094Y013096D01*
X015100Y013057D01*
X015102Y013018D01*
X014302Y013018D02*
X013552Y013018D01*
X013552Y020018D01*
X016752Y018168D02*
X016752Y018018D01*
X016802Y017968D01*
X016802Y016068D01*
X016752Y016018D01*
X016752Y015868D01*
X016754Y015851D01*
X016758Y015834D01*
X016765Y015818D01*
X016775Y015804D01*
X016788Y015791D01*
X016802Y015781D01*
X016818Y015774D01*
X016835Y015770D01*
X016852Y015768D01*
X017552Y015768D02*
X017569Y015770D01*
X017586Y015774D01*
X017602Y015781D01*
X017616Y015791D01*
X017629Y015804D01*
X017639Y015818D01*
X017646Y015834D01*
X017650Y015851D01*
X017652Y015868D01*
X017652Y016018D01*
X017602Y016068D01*
X017602Y017968D01*
X017652Y018018D01*
X017652Y018168D01*
X017650Y018185D01*
X017646Y018202D01*
X017639Y018218D01*
X017629Y018232D01*
X017616Y018245D01*
X017602Y018255D01*
X017586Y018262D01*
X017569Y018266D01*
X017552Y018268D01*
X016852Y018268D02*
X016835Y018266D01*
X016818Y018262D01*
X016802Y018255D01*
X016788Y018245D01*
X016775Y018232D01*
X016765Y018218D01*
X016758Y018202D01*
X016754Y018185D01*
X016752Y018168D01*
X019202Y017768D02*
X019202Y017268D01*
X019452Y017018D01*
X019202Y016768D01*
X019202Y016268D01*
X019452Y016018D01*
X019202Y015768D01*
X019202Y015268D01*
X019452Y015018D01*
X019202Y014768D01*
X019202Y014268D01*
X019452Y014018D01*
X019202Y013768D01*
X019202Y013268D01*
X019452Y013018D01*
X019202Y012768D01*
X019202Y012268D01*
X019452Y012018D01*
X019202Y011768D01*
X019202Y011268D01*
X019452Y011018D01*
X019952Y011018D01*
X020202Y011268D01*
X020452Y011018D01*
X020952Y011018D01*
X021202Y011268D01*
X021202Y011768D01*
X020952Y012018D01*
X021202Y012268D01*
X021202Y012768D01*
X020952Y013018D01*
X021202Y013268D01*
X021202Y013768D01*
X020952Y014018D01*
X021202Y014268D01*
X021202Y014768D01*
X020952Y015018D01*
X021202Y015268D01*
X021202Y015768D01*
X020952Y016018D01*
X021202Y016268D01*
X021202Y016768D01*
X020952Y017018D01*
X021202Y017268D01*
X021202Y017768D01*
X020952Y018018D01*
X020452Y018018D01*
X020202Y017768D01*
X019952Y018018D01*
X019452Y018018D01*
X019202Y017768D01*
X021765Y016806D02*
X021765Y015231D01*
X021767Y015214D01*
X021771Y015197D01*
X021778Y015181D01*
X021788Y015167D01*
X021801Y015154D01*
X021815Y015144D01*
X021831Y015137D01*
X021848Y015133D01*
X021865Y015131D01*
X022540Y015131D01*
X022557Y015133D01*
X022574Y015137D01*
X022590Y015144D01*
X022604Y015154D01*
X022617Y015167D01*
X022627Y015181D01*
X022634Y015197D01*
X022638Y015214D01*
X022640Y015231D01*
X022640Y016806D01*
X022638Y016823D01*
X022634Y016840D01*
X022627Y016856D01*
X022617Y016870D01*
X022604Y016883D01*
X022590Y016893D01*
X022574Y016900D01*
X022557Y016904D01*
X022540Y016906D01*
X021865Y016906D01*
X021848Y016904D01*
X021831Y016900D01*
X021815Y016893D01*
X021801Y016883D01*
X021788Y016870D01*
X021778Y016856D01*
X021771Y016840D01*
X021767Y016823D01*
X021765Y016806D01*
X022202Y016168D02*
X022202Y016118D01*
X022202Y015918D02*
X022202Y015868D01*
X019152Y015168D02*
X019152Y015018D01*
X019102Y014968D01*
X019102Y013068D01*
X019152Y013018D01*
X019152Y012868D01*
X019150Y012851D01*
X019146Y012834D01*
X019139Y012818D01*
X019129Y012804D01*
X019116Y012791D01*
X019102Y012781D01*
X019086Y012774D01*
X019069Y012770D01*
X019052Y012768D01*
X018352Y012768D02*
X018335Y012770D01*
X018318Y012774D01*
X018302Y012781D01*
X018288Y012791D01*
X018275Y012804D01*
X018265Y012818D01*
X018258Y012834D01*
X018254Y012851D01*
X018252Y012868D01*
X018252Y013018D01*
X018302Y013068D01*
X018302Y014968D01*
X018252Y015018D01*
X018252Y015168D01*
X018254Y015185D01*
X018258Y015202D01*
X018265Y015218D01*
X018275Y015232D01*
X018288Y015245D01*
X018302Y015255D01*
X018318Y015262D01*
X018335Y015266D01*
X018352Y015268D01*
X019052Y015268D02*
X019069Y015266D01*
X019086Y015262D01*
X019102Y015255D01*
X019116Y015245D01*
X019129Y015232D01*
X019139Y015218D01*
X019146Y015202D01*
X019150Y015185D01*
X019152Y015168D01*
X022802Y014118D02*
X022802Y013268D01*
X022832Y013266D01*
X022862Y013261D01*
X022891Y013252D01*
X022918Y013239D01*
X022944Y013224D01*
X022968Y013205D01*
X022989Y013184D01*
X023008Y013160D01*
X023023Y013134D01*
X023036Y013107D01*
X023045Y013078D01*
X023050Y013048D01*
X023052Y013018D01*
X023050Y012988D01*
X023045Y012958D01*
X023036Y012929D01*
X023023Y012902D01*
X023008Y012876D01*
X022989Y012852D01*
X022968Y012831D01*
X022944Y012812D01*
X022918Y012797D01*
X022891Y012784D01*
X022862Y012775D01*
X022832Y012770D01*
X022802Y012768D01*
X022802Y011918D01*
X034602Y011918D01*
X034602Y014118D01*
X022802Y014118D01*
X022915Y010956D02*
X024490Y010956D01*
X024507Y010954D01*
X024524Y010950D01*
X024540Y010943D01*
X024554Y010933D01*
X024567Y010920D01*
X024577Y010906D01*
X024584Y010890D01*
X024588Y010873D01*
X024590Y010856D01*
X024590Y010181D01*
X024588Y010164D01*
X024584Y010147D01*
X024577Y010131D01*
X024567Y010117D01*
X024554Y010104D01*
X024540Y010094D01*
X024524Y010087D01*
X024507Y010083D01*
X024490Y010081D01*
X022915Y010081D01*
X022898Y010083D01*
X022881Y010087D01*
X022865Y010094D01*
X022851Y010104D01*
X022838Y010117D01*
X022828Y010131D01*
X022821Y010147D01*
X022817Y010164D01*
X022815Y010181D01*
X022815Y010856D01*
X022817Y010873D01*
X022821Y010890D01*
X022828Y010906D01*
X022838Y010920D01*
X022851Y010933D01*
X022865Y010943D01*
X022881Y010950D01*
X022898Y010954D01*
X022915Y010956D01*
X023552Y010518D02*
X023602Y010518D01*
X023802Y010518D02*
X023852Y010518D01*
X022752Y009118D02*
X036652Y009118D01*
X036652Y003918D01*
X022752Y003918D01*
X022752Y006018D01*
X022796Y006020D01*
X022839Y006026D01*
X022881Y006035D01*
X022923Y006048D01*
X022963Y006065D01*
X023002Y006085D01*
X023039Y006108D01*
X023073Y006135D01*
X023106Y006164D01*
X023135Y006197D01*
X023162Y006231D01*
X023185Y006268D01*
X023205Y006307D01*
X023222Y006347D01*
X023235Y006389D01*
X023244Y006431D01*
X023250Y006474D01*
X023252Y006518D01*
X023250Y006562D01*
X023244Y006605D01*
X023235Y006647D01*
X023222Y006689D01*
X023205Y006729D01*
X023185Y006768D01*
X023162Y006805D01*
X023135Y006839D01*
X023106Y006872D01*
X023073Y006901D01*
X023039Y006928D01*
X023002Y006951D01*
X022963Y006971D01*
X022923Y006988D01*
X022881Y007001D01*
X022839Y007010D01*
X022796Y007016D01*
X022752Y007018D01*
X022752Y009118D01*
X017740Y010125D02*
X003715Y010125D01*
X003715Y008018D01*
X003540Y008131D02*
X002865Y008131D01*
X002848Y008133D01*
X002831Y008137D01*
X002815Y008144D01*
X002801Y008154D01*
X002788Y008167D01*
X002778Y008181D01*
X002771Y008197D01*
X002767Y008214D01*
X002765Y008231D01*
X002765Y009806D01*
X002767Y009823D01*
X002771Y009840D01*
X002778Y009856D01*
X002788Y009870D01*
X002801Y009883D01*
X002815Y009893D01*
X002831Y009900D01*
X002848Y009904D01*
X002865Y009906D01*
X003540Y009906D01*
X003557Y009904D01*
X003574Y009900D01*
X003590Y009893D01*
X003604Y009883D01*
X003617Y009870D01*
X003627Y009856D01*
X003634Y009840D01*
X003638Y009823D01*
X003640Y009806D01*
X003640Y008231D01*
X003638Y008214D01*
X003634Y008197D01*
X003627Y008181D01*
X003617Y008167D01*
X003604Y008154D01*
X003590Y008144D01*
X003574Y008137D01*
X003557Y008133D01*
X003540Y008131D01*
X003715Y008018D02*
X003759Y008016D01*
X003802Y008010D01*
X003844Y008001D01*
X003886Y007988D01*
X003926Y007971D01*
X003965Y007951D01*
X004002Y007928D01*
X004036Y007901D01*
X004069Y007872D01*
X004098Y007839D01*
X004125Y007805D01*
X004148Y007768D01*
X004168Y007729D01*
X004185Y007689D01*
X004198Y007647D01*
X004207Y007605D01*
X004213Y007562D01*
X004215Y007518D01*
X004213Y007474D01*
X004207Y007431D01*
X004198Y007389D01*
X004185Y007347D01*
X004168Y007307D01*
X004148Y007268D01*
X004125Y007231D01*
X004098Y007197D01*
X004069Y007164D01*
X004036Y007135D01*
X004002Y007108D01*
X003965Y007085D01*
X003926Y007065D01*
X003886Y007048D01*
X003844Y007035D01*
X003802Y007026D01*
X003759Y007020D01*
X003715Y007018D01*
X003715Y004912D01*
X017740Y004912D01*
X017740Y010125D01*
X013702Y008668D02*
X013702Y006368D01*
X005702Y006368D01*
X005702Y007118D01*
X005741Y007120D01*
X005780Y007126D01*
X005818Y007135D01*
X005855Y007148D01*
X005891Y007165D01*
X005924Y007185D01*
X005956Y007209D01*
X005985Y007235D01*
X006011Y007264D01*
X006035Y007296D01*
X006055Y007329D01*
X006072Y007365D01*
X006085Y007402D01*
X006094Y007440D01*
X006100Y007479D01*
X006102Y007518D01*
X006100Y007557D01*
X006094Y007596D01*
X006085Y007634D01*
X006072Y007671D01*
X006055Y007707D01*
X006035Y007740D01*
X006011Y007772D01*
X005985Y007801D01*
X005956Y007827D01*
X005924Y007851D01*
X005891Y007871D01*
X005855Y007888D01*
X005818Y007901D01*
X005780Y007910D01*
X005741Y007916D01*
X005702Y007918D01*
X005702Y008668D01*
X013702Y008668D01*
X007490Y012081D02*
X005915Y012081D01*
X005898Y012083D01*
X005881Y012087D01*
X005865Y012094D01*
X005851Y012104D01*
X005838Y012117D01*
X005828Y012131D01*
X005821Y012147D01*
X005817Y012164D01*
X005815Y012181D01*
X005815Y012856D01*
X005817Y012873D01*
X005821Y012890D01*
X005828Y012906D01*
X005838Y012920D01*
X005851Y012933D01*
X005865Y012943D01*
X005881Y012950D01*
X005898Y012954D01*
X005915Y012956D01*
X007490Y012956D01*
X007507Y012954D01*
X007524Y012950D01*
X007540Y012943D01*
X007554Y012933D01*
X007567Y012920D01*
X007577Y012906D01*
X007584Y012890D01*
X007588Y012873D01*
X007590Y012856D01*
X007590Y012181D01*
X007588Y012164D01*
X007584Y012147D01*
X007577Y012131D01*
X007567Y012117D01*
X007554Y012104D01*
X007540Y012094D01*
X007524Y012087D01*
X007507Y012083D01*
X007490Y012081D01*
X006852Y012518D02*
X006802Y012518D01*
X006602Y012518D02*
X006552Y012518D01*
X004702Y012143D02*
X004577Y012018D01*
X004702Y011893D01*
X004702Y011143D01*
X004577Y011018D01*
X003827Y011018D01*
X003702Y011143D01*
X003702Y011893D01*
X003827Y012018D01*
X003702Y012143D01*
X003702Y012893D01*
X003827Y013018D01*
X003702Y013143D01*
X003702Y013893D01*
X003827Y014018D01*
X004577Y014018D01*
X004702Y013893D01*
X004702Y013143D01*
X004577Y013018D01*
X004702Y012893D01*
X004702Y012143D01*
X003702Y014518D02*
X003704Y014562D01*
X003710Y014606D01*
X003720Y014649D01*
X003733Y014691D01*
X003750Y014732D01*
X003771Y014771D01*
X003795Y014808D01*
X003822Y014843D01*
X003852Y014875D01*
X003885Y014905D01*
X003921Y014931D01*
X003958Y014955D01*
X003998Y014974D01*
X004039Y014991D01*
X004082Y015003D01*
X004125Y015012D01*
X004169Y015017D01*
X004213Y015018D01*
X004257Y015015D01*
X004301Y015008D01*
X004344Y014997D01*
X004386Y014983D01*
X004426Y014965D01*
X004465Y014943D01*
X004501Y014919D01*
X004535Y014891D01*
X004567Y014860D01*
X004596Y014826D01*
X004622Y014790D01*
X004644Y014752D01*
X004663Y014712D01*
X004678Y014670D01*
X004690Y014628D01*
X004698Y014584D01*
X004702Y014540D01*
X004702Y014496D01*
X004698Y014452D01*
X004690Y014408D01*
X004678Y014366D01*
X004663Y014324D01*
X004644Y014284D01*
X004622Y014246D01*
X004596Y014210D01*
X004567Y014176D01*
X004535Y014145D01*
X004501Y014117D01*
X004465Y014093D01*
X004426Y014071D01*
X004386Y014053D01*
X004344Y014039D01*
X004301Y014028D01*
X004257Y014021D01*
X004213Y014018D01*
X004169Y014019D01*
X004125Y014024D01*
X004082Y014033D01*
X004039Y014045D01*
X003998Y014062D01*
X003958Y014081D01*
X003921Y014105D01*
X003885Y014131D01*
X003852Y014161D01*
X003822Y014193D01*
X003795Y014228D01*
X003771Y014265D01*
X003750Y014304D01*
X003733Y014345D01*
X003720Y014387D01*
X003710Y014430D01*
X003704Y014474D01*
X003702Y014518D01*
X002702Y015518D02*
X002704Y015562D01*
X002710Y015606D01*
X002720Y015649D01*
X002733Y015691D01*
X002750Y015732D01*
X002771Y015771D01*
X002795Y015808D01*
X002822Y015843D01*
X002852Y015875D01*
X002885Y015905D01*
X002921Y015931D01*
X002958Y015955D01*
X002998Y015974D01*
X003039Y015991D01*
X003082Y016003D01*
X003125Y016012D01*
X003169Y016017D01*
X003213Y016018D01*
X003257Y016015D01*
X003301Y016008D01*
X003344Y015997D01*
X003386Y015983D01*
X003426Y015965D01*
X003465Y015943D01*
X003501Y015919D01*
X003535Y015891D01*
X003567Y015860D01*
X003596Y015826D01*
X003622Y015790D01*
X003644Y015752D01*
X003663Y015712D01*
X003678Y015670D01*
X003690Y015628D01*
X003698Y015584D01*
X003702Y015540D01*
X003702Y015496D01*
X003698Y015452D01*
X003690Y015408D01*
X003678Y015366D01*
X003663Y015324D01*
X003644Y015284D01*
X003622Y015246D01*
X003596Y015210D01*
X003567Y015176D01*
X003535Y015145D01*
X003501Y015117D01*
X003465Y015093D01*
X003426Y015071D01*
X003386Y015053D01*
X003344Y015039D01*
X003301Y015028D01*
X003257Y015021D01*
X003213Y015018D01*
X003169Y015019D01*
X003125Y015024D01*
X003082Y015033D01*
X003039Y015045D01*
X002998Y015062D01*
X002958Y015081D01*
X002921Y015105D01*
X002885Y015131D01*
X002852Y015161D01*
X002822Y015193D01*
X002795Y015228D01*
X002771Y015265D01*
X002750Y015304D01*
X002733Y015345D01*
X002720Y015387D01*
X002710Y015430D01*
X002704Y015474D01*
X002702Y015518D01*
X010552Y012518D02*
X010602Y012518D01*
X010802Y012518D02*
X010852Y012518D01*
X003202Y009168D02*
X003202Y009118D01*
X003202Y008918D02*
X003202Y008868D01*
X003602Y007018D02*
X002802Y007018D01*
X002702Y006918D01*
X002702Y006118D01*
X002802Y006018D01*
X002702Y005918D01*
X002702Y005118D01*
X002802Y005018D01*
X003602Y005018D01*
X003702Y005118D01*
X003702Y005918D01*
X003602Y006018D01*
X003702Y006118D01*
X003702Y006918D01*
X003602Y007018D01*
X024702Y017868D02*
X024702Y018618D01*
X024741Y018620D01*
X024780Y018626D01*
X024818Y018635D01*
X024855Y018648D01*
X024891Y018665D01*
X024924Y018685D01*
X024956Y018709D01*
X024985Y018735D01*
X025011Y018764D01*
X025035Y018796D01*
X025055Y018829D01*
X025072Y018865D01*
X025085Y018902D01*
X025094Y018940D01*
X025100Y018979D01*
X025102Y019018D01*
X025100Y019057D01*
X025094Y019096D01*
X025085Y019134D01*
X025072Y019171D01*
X025055Y019207D01*
X025035Y019240D01*
X025011Y019272D01*
X024985Y019301D01*
X024956Y019327D01*
X024924Y019351D01*
X024891Y019371D01*
X024855Y019388D01*
X024818Y019401D01*
X024780Y019410D01*
X024741Y019416D01*
X024702Y019418D01*
X024702Y020168D01*
X031702Y020168D01*
X031702Y017868D01*
X024702Y017868D01*
X022540Y020131D02*
X021865Y020131D01*
X021848Y020133D01*
X021831Y020137D01*
X021815Y020144D01*
X021801Y020154D01*
X021788Y020167D01*
X021778Y020181D01*
X021771Y020197D01*
X021767Y020214D01*
X021765Y020231D01*
X021765Y021806D01*
X021767Y021823D01*
X021771Y021840D01*
X021778Y021856D01*
X021788Y021870D01*
X021801Y021883D01*
X021815Y021893D01*
X021831Y021900D01*
X021848Y021904D01*
X021865Y021906D01*
X022540Y021906D01*
X022557Y021904D01*
X022574Y021900D01*
X022590Y021893D01*
X022604Y021883D01*
X022617Y021870D01*
X022627Y021856D01*
X022634Y021840D01*
X022638Y021823D01*
X022640Y021806D01*
X022640Y020231D01*
X022638Y020214D01*
X022634Y020197D01*
X022627Y020181D01*
X022617Y020167D01*
X022604Y020154D01*
X022590Y020144D01*
X022574Y020137D01*
X022557Y020133D01*
X022540Y020131D01*
X022202Y020868D02*
X022202Y020918D01*
X022202Y021118D02*
X022202Y021168D01*
X031702Y023518D02*
X031704Y023562D01*
X031710Y023606D01*
X031720Y023649D01*
X031733Y023691D01*
X031750Y023732D01*
X031771Y023771D01*
X031795Y023808D01*
X031822Y023843D01*
X031852Y023875D01*
X031885Y023905D01*
X031921Y023931D01*
X031958Y023955D01*
X031998Y023974D01*
X032039Y023991D01*
X032082Y024003D01*
X032125Y024012D01*
X032169Y024017D01*
X032213Y024018D01*
X032257Y024015D01*
X032301Y024008D01*
X032344Y023997D01*
X032386Y023983D01*
X032426Y023965D01*
X032465Y023943D01*
X032501Y023919D01*
X032535Y023891D01*
X032567Y023860D01*
X032596Y023826D01*
X032622Y023790D01*
X032644Y023752D01*
X032663Y023712D01*
X032678Y023670D01*
X032690Y023628D01*
X032698Y023584D01*
X032702Y023540D01*
X032702Y023496D01*
X032698Y023452D01*
X032690Y023408D01*
X032678Y023366D01*
X032663Y023324D01*
X032644Y023284D01*
X032622Y023246D01*
X032596Y023210D01*
X032567Y023176D01*
X032535Y023145D01*
X032501Y023117D01*
X032465Y023093D01*
X032426Y023071D01*
X032386Y023053D01*
X032344Y023039D01*
X032301Y023028D01*
X032257Y023021D01*
X032213Y023018D01*
X032169Y023019D01*
X032125Y023024D01*
X032082Y023033D01*
X032039Y023045D01*
X031998Y023062D01*
X031958Y023081D01*
X031921Y023105D01*
X031885Y023131D01*
X031852Y023161D01*
X031822Y023193D01*
X031795Y023228D01*
X031771Y023265D01*
X031750Y023304D01*
X031733Y023345D01*
X031720Y023387D01*
X031710Y023430D01*
X031704Y023474D01*
X031702Y023518D01*
X033702Y023518D02*
X033704Y023562D01*
X033710Y023606D01*
X033720Y023649D01*
X033733Y023691D01*
X033750Y023732D01*
X033771Y023771D01*
X033795Y023808D01*
X033822Y023843D01*
X033852Y023875D01*
X033885Y023905D01*
X033921Y023931D01*
X033958Y023955D01*
X033998Y023974D01*
X034039Y023991D01*
X034082Y024003D01*
X034125Y024012D01*
X034169Y024017D01*
X034213Y024018D01*
X034257Y024015D01*
X034301Y024008D01*
X034344Y023997D01*
X034386Y023983D01*
X034426Y023965D01*
X034465Y023943D01*
X034501Y023919D01*
X034535Y023891D01*
X034567Y023860D01*
X034596Y023826D01*
X034622Y023790D01*
X034644Y023752D01*
X034663Y023712D01*
X034678Y023670D01*
X034690Y023628D01*
X034698Y023584D01*
X034702Y023540D01*
X034702Y023496D01*
X034698Y023452D01*
X034690Y023408D01*
X034678Y023366D01*
X034663Y023324D01*
X034644Y023284D01*
X034622Y023246D01*
X034596Y023210D01*
X034567Y023176D01*
X034535Y023145D01*
X034501Y023117D01*
X034465Y023093D01*
X034426Y023071D01*
X034386Y023053D01*
X034344Y023039D01*
X034301Y023028D01*
X034257Y023021D01*
X034213Y023018D01*
X034169Y023019D01*
X034125Y023024D01*
X034082Y023033D01*
X034039Y023045D01*
X033998Y023062D01*
X033958Y023081D01*
X033921Y023105D01*
X033885Y023131D01*
X033852Y023161D01*
X033822Y023193D01*
X033795Y023228D01*
X033771Y023265D01*
X033750Y023304D01*
X033733Y023345D01*
X033720Y023387D01*
X033710Y023430D01*
X033704Y023474D01*
X033702Y023518D01*
X034815Y023181D02*
X034815Y023856D01*
X034817Y023873D01*
X034821Y023890D01*
X034828Y023906D01*
X034838Y023920D01*
X034851Y023933D01*
X034865Y023943D01*
X034881Y023950D01*
X034898Y023954D01*
X034915Y023956D01*
X036490Y023956D01*
X036507Y023954D01*
X036524Y023950D01*
X036540Y023943D01*
X036554Y023933D01*
X036567Y023920D01*
X036577Y023906D01*
X036584Y023890D01*
X036588Y023873D01*
X036590Y023856D01*
X036590Y023181D01*
X036588Y023164D01*
X036584Y023147D01*
X036577Y023131D01*
X036567Y023117D01*
X036554Y023104D01*
X036540Y023094D01*
X036524Y023087D01*
X036507Y023083D01*
X036490Y023081D01*
X034915Y023081D01*
X034898Y023083D01*
X034881Y023087D01*
X034865Y023094D01*
X034851Y023104D01*
X034838Y023117D01*
X034828Y023131D01*
X034821Y023147D01*
X034817Y023164D01*
X034815Y023181D01*
X035552Y023518D02*
X035602Y023518D01*
X035802Y023518D02*
X035852Y023518D01*
X036815Y023181D02*
X036815Y023856D01*
X036817Y023873D01*
X036821Y023890D01*
X036828Y023906D01*
X036838Y023920D01*
X036851Y023933D01*
X036865Y023943D01*
X036881Y023950D01*
X036898Y023954D01*
X036915Y023956D01*
X038490Y023956D01*
X038507Y023954D01*
X038524Y023950D01*
X038540Y023943D01*
X038554Y023933D01*
X038567Y023920D01*
X038577Y023906D01*
X038584Y023890D01*
X038588Y023873D01*
X038590Y023856D01*
X038590Y023181D01*
X038588Y023164D01*
X038584Y023147D01*
X038577Y023131D01*
X038567Y023117D01*
X038554Y023104D01*
X038540Y023094D01*
X038524Y023087D01*
X038507Y023083D01*
X038490Y023081D01*
X036915Y023081D01*
X036898Y023083D01*
X036881Y023087D01*
X036865Y023094D01*
X036851Y023104D01*
X036838Y023117D01*
X036828Y023131D01*
X036821Y023147D01*
X036817Y023164D01*
X036815Y023181D01*
X037552Y023518D02*
X037602Y023518D01*
X037802Y023518D02*
X037852Y023518D01*
X038702Y023518D02*
X038704Y023562D01*
X038710Y023606D01*
X038720Y023649D01*
X038733Y023691D01*
X038750Y023732D01*
X038771Y023771D01*
X038795Y023808D01*
X038822Y023843D01*
X038852Y023875D01*
X038885Y023905D01*
X038921Y023931D01*
X038958Y023955D01*
X038998Y023974D01*
X039039Y023991D01*
X039082Y024003D01*
X039125Y024012D01*
X039169Y024017D01*
X039213Y024018D01*
X039257Y024015D01*
X039301Y024008D01*
X039344Y023997D01*
X039386Y023983D01*
X039426Y023965D01*
X039465Y023943D01*
X039501Y023919D01*
X039535Y023891D01*
X039567Y023860D01*
X039596Y023826D01*
X039622Y023790D01*
X039644Y023752D01*
X039663Y023712D01*
X039678Y023670D01*
X039690Y023628D01*
X039698Y023584D01*
X039702Y023540D01*
X039702Y023496D01*
X039698Y023452D01*
X039690Y023408D01*
X039678Y023366D01*
X039663Y023324D01*
X039644Y023284D01*
X039622Y023246D01*
X039596Y023210D01*
X039567Y023176D01*
X039535Y023145D01*
X039501Y023117D01*
X039465Y023093D01*
X039426Y023071D01*
X039386Y023053D01*
X039344Y023039D01*
X039301Y023028D01*
X039257Y023021D01*
X039213Y023018D01*
X039169Y023019D01*
X039125Y023024D01*
X039082Y023033D01*
X039039Y023045D01*
X038998Y023062D01*
X038958Y023081D01*
X038921Y023105D01*
X038885Y023131D01*
X038852Y023161D01*
X038822Y023193D01*
X038795Y023228D01*
X038771Y023265D01*
X038750Y023304D01*
X038733Y023345D01*
X038720Y023387D01*
X038710Y023430D01*
X038704Y023474D01*
X038702Y023518D01*
X040702Y023518D02*
X040704Y023562D01*
X040710Y023606D01*
X040720Y023649D01*
X040733Y023691D01*
X040750Y023732D01*
X040771Y023771D01*
X040795Y023808D01*
X040822Y023843D01*
X040852Y023875D01*
X040885Y023905D01*
X040921Y023931D01*
X040958Y023955D01*
X040998Y023974D01*
X041039Y023991D01*
X041082Y024003D01*
X041125Y024012D01*
X041169Y024017D01*
X041213Y024018D01*
X041257Y024015D01*
X041301Y024008D01*
X041344Y023997D01*
X041386Y023983D01*
X041426Y023965D01*
X041465Y023943D01*
X041501Y023919D01*
X041535Y023891D01*
X041567Y023860D01*
X041596Y023826D01*
X041622Y023790D01*
X041644Y023752D01*
X041663Y023712D01*
X041678Y023670D01*
X041690Y023628D01*
X041698Y023584D01*
X041702Y023540D01*
X041702Y023496D01*
X041698Y023452D01*
X041690Y023408D01*
X041678Y023366D01*
X041663Y023324D01*
X041644Y023284D01*
X041622Y023246D01*
X041596Y023210D01*
X041567Y023176D01*
X041535Y023145D01*
X041501Y023117D01*
X041465Y023093D01*
X041426Y023071D01*
X041386Y023053D01*
X041344Y023039D01*
X041301Y023028D01*
X041257Y023021D01*
X041213Y023018D01*
X041169Y023019D01*
X041125Y023024D01*
X041082Y023033D01*
X041039Y023045D01*
X040998Y023062D01*
X040958Y023081D01*
X040921Y023105D01*
X040885Y023131D01*
X040852Y023161D01*
X040822Y023193D01*
X040795Y023228D01*
X040771Y023265D01*
X040750Y023304D01*
X040733Y023345D01*
X040720Y023387D01*
X040710Y023430D01*
X040704Y023474D01*
X040702Y023518D01*
X040702Y020168D02*
X040702Y019418D01*
X040663Y019416D01*
X040624Y019410D01*
X040586Y019401D01*
X040549Y019388D01*
X040513Y019371D01*
X040480Y019351D01*
X040448Y019327D01*
X040419Y019301D01*
X040393Y019272D01*
X040369Y019240D01*
X040349Y019207D01*
X040332Y019171D01*
X040319Y019134D01*
X040310Y019096D01*
X040304Y019057D01*
X040302Y019018D01*
X040304Y018979D01*
X040310Y018940D01*
X040319Y018902D01*
X040332Y018865D01*
X040349Y018829D01*
X040369Y018796D01*
X040393Y018764D01*
X040419Y018735D01*
X040448Y018709D01*
X040480Y018685D01*
X040513Y018665D01*
X040549Y018648D01*
X040586Y018635D01*
X040624Y018626D01*
X040663Y018620D01*
X040702Y018618D01*
X040702Y017868D01*
X032702Y017868D01*
X032702Y020168D01*
X040702Y020168D01*
X040452Y015018D02*
X040952Y015018D01*
X041202Y014768D01*
X041202Y014268D01*
X040952Y014018D01*
X041202Y013768D01*
X041202Y013268D01*
X040952Y013018D01*
X040452Y013018D01*
X040202Y013268D01*
X039952Y013018D01*
X039452Y013018D01*
X039202Y013268D01*
X039202Y013768D01*
X039452Y014018D01*
X039202Y014268D01*
X039202Y014768D01*
X039452Y015018D01*
X039952Y015018D01*
X040202Y014768D01*
X040452Y015018D01*
X041315Y014856D02*
X041315Y014181D01*
X041317Y014164D01*
X041321Y014147D01*
X041328Y014131D01*
X041338Y014117D01*
X041351Y014104D01*
X041365Y014094D01*
X041381Y014087D01*
X041398Y014083D01*
X041415Y014081D01*
X042990Y014081D01*
X043007Y014083D01*
X043024Y014087D01*
X043040Y014094D01*
X043054Y014104D01*
X043067Y014117D01*
X043077Y014131D01*
X043084Y014147D01*
X043088Y014164D01*
X043090Y014181D01*
X043090Y014856D01*
X043088Y014873D01*
X043084Y014890D01*
X043077Y014906D01*
X043067Y014920D01*
X043054Y014933D01*
X043040Y014943D01*
X043024Y014950D01*
X043007Y014954D01*
X042990Y014956D01*
X041415Y014956D01*
X041398Y014954D01*
X041381Y014950D01*
X041365Y014943D01*
X041351Y014933D01*
X041338Y014920D01*
X041328Y014906D01*
X041321Y014890D01*
X041317Y014873D01*
X041315Y014856D01*
X042052Y014518D02*
X042102Y014518D01*
X042302Y014518D02*
X042352Y014518D01*
X039002Y014218D02*
X038702Y014218D01*
X038402Y014218D01*
X038702Y014218D02*
X038402Y013818D01*
X039002Y013818D01*
X038702Y014218D01*
X038002Y014218D02*
X037702Y014218D01*
X037402Y014218D01*
X037202Y014268D02*
X036952Y014018D01*
X035452Y014018D01*
X035202Y013768D01*
X035202Y013268D01*
X035452Y013018D01*
X036952Y013018D01*
X037202Y012768D01*
X037202Y012268D01*
X036952Y012018D01*
X035452Y012018D01*
X035202Y011768D01*
X035202Y011268D01*
X035452Y011018D01*
X035202Y010768D01*
X035202Y010268D01*
X035452Y010018D01*
X036952Y010018D01*
X037202Y010268D01*
X037202Y010768D01*
X036952Y011018D01*
X035452Y011018D01*
X034702Y011018D02*
X029702Y011018D01*
X028702Y011018D01*
X028952Y010768D01*
X028702Y011018D02*
X028702Y010018D01*
X029702Y010018D01*
X034702Y010018D01*
X034702Y011018D01*
X035452Y012018D02*
X035202Y012268D01*
X035202Y012768D01*
X035452Y013018D01*
X036952Y013018D02*
X037202Y013268D01*
X037202Y013768D01*
X036952Y014018D01*
X037202Y014268D02*
X037202Y014768D01*
X036952Y015018D01*
X035452Y015018D01*
X035202Y014768D01*
X035202Y014268D01*
X035452Y014018D01*
X037402Y013818D02*
X038002Y013818D01*
X037702Y014218D01*
X037402Y013818D01*
X036952Y012018D02*
X037202Y011768D01*
X037202Y011268D01*
X036952Y011018D01*
X029702Y011018D02*
X029702Y010018D01*
X029452Y010268D01*
X028952Y010268D02*
X028702Y010018D01*
X029452Y010768D02*
X029702Y011018D01*
D15*
X031602Y023518D02*
X031802Y023518D01*
X033602Y023518D02*
X033802Y023518D01*
X039602Y023518D02*
X039802Y023518D01*
X041602Y023518D02*
X041802Y023518D01*
X004202Y021618D02*
X004202Y021418D01*
X003202Y021418D02*
X003202Y021618D01*
X003602Y015518D02*
X003802Y015518D01*
X003802Y014518D02*
X003602Y014518D01*
D16*
X006602Y012818D02*
X006602Y012518D01*
X006602Y012218D01*
X006802Y012218D02*
X006802Y012518D01*
X006802Y012818D01*
X010602Y012818D02*
X010602Y012518D01*
X010602Y012218D01*
X010802Y012218D02*
X010802Y012518D01*
X010802Y012818D01*
X014602Y012818D02*
X014602Y012518D01*
X014602Y012218D01*
X014802Y012218D02*
X014802Y012518D01*
X014802Y012818D01*
X021902Y015918D02*
X022202Y015918D01*
X022502Y015918D01*
X022502Y016118D02*
X022202Y016118D01*
X021902Y016118D01*
X021902Y020918D02*
X022202Y020918D01*
X022502Y020918D01*
X022502Y021118D02*
X022202Y021118D01*
X021902Y021118D01*
X035602Y023218D02*
X035602Y023518D01*
X035602Y023818D01*
X035802Y023818D02*
X035802Y023518D01*
X035802Y023218D01*
X037602Y023218D02*
X037602Y023518D01*
X037602Y023818D01*
X037802Y023818D02*
X037802Y023518D01*
X037802Y023218D01*
X042102Y014818D02*
X042102Y014518D01*
X042102Y014218D01*
X042302Y014218D02*
X042302Y014518D01*
X042302Y014818D01*
X023802Y010818D02*
X023802Y010518D01*
X023802Y010218D01*
X023602Y010218D02*
X023602Y010518D01*
X023602Y010818D01*
X003502Y009118D02*
X003202Y009118D01*
X002902Y009118D01*
X002902Y008918D02*
X003202Y008918D01*
X003502Y008918D01*
M02*
